{
DisplayStrings = (
"Quota Blon Hulon "
);
customParameters = (
{
name = note;
value = "";
},
{
name = openTypeNameCompatibleFullName;
value = Michroma;
},
{
name = openTypeNameUniqueID;
value = "1.000;pyrs;Michroma";
},
{
name = openTypeNameVersion;
value = "Version 1.000";
},
{
name = openTypeOS2CodePageRanges;
value = (
    0,
    4,
    8,
    29,
    62
);
},
{
name = openTypeOS2FamilyClass;
value = (
    0,
    0
);
},
{
name = openTypeOS2Panose;
value = (
    0,
    0,
    0,
    0,
    0,
    0,
    0,
    0,
    0,
    0
);
},
{
name = openTypeOS2StrikeoutPosition;
value = 512;
},
{
name = openTypeOS2StrikeoutSize;
value = 102;
},
{
name = openTypeOS2SubscriptXOffset;
value = 0;
},
{
name = openTypeOS2SubscriptXSize;
value = 1434;
},
{
name = openTypeOS2SubscriptYOffset;
value = 287;
},
{
name = openTypeOS2SubscriptYSize;
value = 1331;
},
{
name = openTypeOS2SuperscriptXOffset;
value = 0;
},
{
name = openTypeOS2SuperscriptXSize;
value = 1434;
},
{
name = openTypeOS2SuperscriptYOffset;
value = 977;
},
{
name = openTypeOS2SuperscriptYSize;
value = 1331;
},
{
name = openTypeOS2UnicodeRanges;
value = (
    0,
    1,
    2,
    3,
    5,
    7,
    31,
    32,
    33,
    35,
    38,
    45,
    59,
    60,
    61,
    62,
    90,
    92
);
},
{
name = openTypeOS2VendorID;
value = newt;
},
{
name = postscriptBlueFuzz;
value = 1;
},
{
name = postscriptBlueScale;
value = 0.0396;
},
{
name = postscriptBlueShift;
value = 7;
}
);
date = "2014-01-19 23:47:16 +0000";
familyName = "Michroma";
featurePrefixes = (
{

glyphs = (
{
glyphname = A;
lastChange = "2014-03-17 19:22:22 -0800";
layers = (
{
layerId = "3D86ED3E-BC30-4996-8F23-7FA448982149";
name = Regular;
paths = (
{
closed = 1;
nodes = (
"1696 352 LINE",
"480 352 LINE",
"288 0 LINE",
"64 0 LINE",
"960 1536 LINE",
"1216 1536 LINE",
"2112 0 LINE",
"1888 0 LINE"
);
},
{
closed = 1;
nodes = (
"1600 512 LINE",
"1088 1408 LINE",
"576 512 LINE"
);
}
);
width = 2176;
}
);
unicode = 0041;
},
{
glyphname = Ainvertedbreve;
layers = (
{
components = (
{
name = A;
transform = "{1, 0, 0, 1, 64, 0}";
}
);
layerId = "3D86ED3E-BC30-4996-8F23-7FA448982149";
name = Regular;
paths = (
{
closed = 1;
nodes = (
"768 1690 LINE",
"768 1925 OFFCURVE",
"909 2010 OFFCURVE",
"1152 2010 CURVE SMOOTH",
"1395 2010 OFFCURVE",
"1536 1926 OFFCURVE",
"1536 1690 CURVE",
"1376 1690 LINE",
"1376 1776 OFFCURVE",
"1355 1832 OFFCURVE",
"1312 1858 CURVE SMOOTH",
"1285 1874 OFFCURVE",
"1232 1882 OFFCURVE",
"1152 1882 CURVE SMOOTH",
"1072 1882 OFFCURVE",
"1020 1875 OFFCURVE",
"997 1861 CURVE SMOOTH",
"951 1833 OFFCURVE",
"928 1776 OFFCURVE",
"928 1690 CURVE"
);
}
);
width = 2304;
}
);
unicode = 0202;
},
{
glyphname = AE;
layers = (
{
layerId = "3D86ED3E-BC30-4996-8F23-7FA448982149";
name = Regular;
paths = (
{
closed = 1;
nodes = (
"1472 0 LINE",
"1472 352 LINE",
"582 352 LINE",
"256 0 LINE",
"0 0 LINE",
"1408 1536 LINE",
"2944 1536 LINE",
"2944 1376 LINE",
"1664 1376 LINE",
"1664 864 LINE",
"2880 864 LINE",
"2880 704 LINE",
"1664 704 LINE",
"1664 160 LINE",
"2944 160 LINE",
"2944 0 LINE"
);
},
{
closed = 1;
nodes = (
"1472 512 LINE",
"1472 1376 LINE",
"704 512 LINE"
);
}
);
width = 3072;
}
);
unicode = 00C6;
},
{
glyphname = B;
lastChange = "2014-03-17 19:45:33 -0800";
layers = (
{
background = {
paths = (
{
closed = 1;
nodes = (
"1473 1536 LINE SMOOTH",
"1784 1536 OFFCURVE",
"1920 1466 OFFCURVE",
"1920 1186 CURVE SMOOTH",
"1920 983 OFFCURVE",
"1837 844 OFFCURVE",
"1664 832 CURVE",
"1767 826 OFFCURVE",
"1831 792 OFFCURVE",
"1882 746 CURVE SMOOTH",
"1940 694 OFFCURVE",
"1984 595 OFFCURVE",
"1984 498 CURVE SMOOTH",
"1984 321 OFFCURVE",
"1970 203 OFFCURVE",
"1880 119 CURVE SMOOTH",
"1851 92 OFFCURVE",
"1814 70 OFFCURVE",
"1766 52 CURVE SMOOTH",
"1672 17 OFFCURVE",
"1530 0 OFFCURVE",
"1343 0 CURVE SMOOTH",
"192 0 LINE",
"192 1536 LINE"
);
},
{
closed = 1;
nodes = (
"1279 160 LINE SMOOTH",
"1440 160 OFFCURVE",
"1545 165 OFFCURVE",
"1595 175 CURVE SMOOTH",
"1680 192 OFFCURVE",
"1726 210 OFFCURVE",
"1758 268 CURVE SMOOTH",
"1780 309 OFFCURVE",
"1792 379 OFFCURVE",
"1792 478 CURVE SMOOTH",
"1792 651 OFFCURVE",
"1746 696 OFFCURVE",
"1612 719 CURVE SMOOTH",
"1547 730 OFFCURVE",
"1436 736 OFFCURVE",
"1279 736 CURVE SMOOTH",
"384 736 LINE",
"384 160 LINE"
);
},
{
closed = 1;
nodes = (
"1279 896 LINE SMOOTH",
"1415 896 OFFCURVE",
"1506 901 OFFCURVE",
"1551 911 CURVE SMOOTH",
"1628 928 OFFCURVE",
"1669 944 OFFCURVE",
"1698 996 CURVE SMOOTH",
"1718 1031 OFFCURVE",
"1728 1080 OFFCURVE",
"1728 1143 CURVE SMOOTH",
"1728 1250 OFFCURVE",
"1723 1305 OFFCURVE",
"1664 1340 CURVE SMOOTH",
"1623 1364 OFFCURVE",
"1538 1376 OFFCURVE",
"1409 1376 CURVE SMOOTH",
"384 1376 LINE",
"384 896 LINE"
);
}
);
};
layerId = "3D86ED3E-BC30-4996-8F23-7FA448982149";
name = Regular;
paths = (
{
closed = 1;
nodes = (
"1416 1536 LINE SMOOTH",
"1764 1536 OFFCURVE",
"1920 1456 OFFCURVE",
"1920 1155 CURVE SMOOTH",
"1920 973 OFFCURVE",
"1837 844 OFFCURVE",
"1664 832 CURVE",
"1891 809 OFFCURVE",
"1984 658 OFFCURVE",
"1984 448 CURVE SMOOTH",
"1984 82 OFFCURVE",
"1836 0 OFFCURVE",
"1331 0 CURVE SMOOTH",
"192 0 LINE",
"192 1536 LINE"
);
},
{
closed = 1;
nodes = (
"1331 160 LINE SMOOTH",
"1696 160 OFFCURVE",
"1792 174 OFFCURVE",
"1792 448 CURVE SMOOTH",
"1792 730 OFFCURVE",
"1564 736 OFFCURVE",
"1279 736 CURVE SMOOTH",
"384 736 LINE",
"384 160 LINE"
);
},
{
closed = 1;
nodes = (
"1279 896 LINE SMOOTH",
"1577 896 OFFCURVE",
"1728 882 OFFCURVE",
"1728 1155 CURVE SMOOTH",
"1728 1357 OFFCURVE",
"1654 1376 OFFCURVE",
"1416 1376 CURVE SMOOTH",
"384 1376 LINE",
"384 896 LINE"
);
}
);
width = 2112;
}
);
unicode = 0042;
},
{
glyphname = C;
lastChange = "2014-03-17 19:09:51 -0800";
layers = (
{
background = {
paths = (
{
closed = 1;
nodes = (
"1171 1568 LINE",
"1171 1402 LINE",
"871 1402 LINE",
"394 1402 OFFCURVE",
"320 1374 OFFCURVE",
"320 788 CURVE",
"128 748 LINE",
"128 788 LINE",
"128 1467 OFFCURVE",
"271 1568 OFFCURVE",
"871 1568 CURVE"
);
},
{
closed = 1;
nodes = (
"271 -32 OFFCURVE",
"128 89 OFFCURVE",
"128 748 CURVE",
"320 788 LINE",
"320 748 LINE",
"320 182 OFFCURVE",
"394 134 OFFCURVE",
"871 134 CURVE",
"1171 134 LINE",
"1171 -32 LINE",
"871 -32 LINE"
);
},
{
closed = 1;
nodes = (
"2014 589 LINE",
"2014 69 OFFCURVE",
"1822 -32 OFFCURVE",
"1274 -32 CURVE",
"974 -32 LINE",
"974 134 LINE",
"1274 134 LINE",
"1702 134 OFFCURVE",
"1822 173 OFFCURVE",
"1822 589 CURVE"
);
},
{
closed = 1;
nodes = (
"1822 1363 OFFCURVE",
"1702 1402 OFFCURVE",
"1274 1402 CURVE",
"974 1402 LINE",
"974 1568 LINE",
"1274 1568 LINE",
"1822 1568 OFFCURVE",
"2014 1467 OFFCURVE",
"2014 947 CURVE",
"1822 947 LINE"
);
}
);
};
layerId = "3D86ED3E-BC30-4996-8F23-7FA448982149";
name = Regular;
paths = (
{
closed = 1;
nodes = (
"1171 1568 LINE",
"1171 1402 LINE",
"871 1402 LINE",
"394 1402 OFFCURVE",
"320 1374 OFFCURVE",
"320 788 CURVE",
"128 748 LINE",
"128 788 LINE",
"128 1467 OFFCURVE",
"271 1568 OFFCURVE",
"871 1568 CURVE"
);
},
{
closed = 1;
nodes = (
"271 -32 OFFCURVE",
"128 89 OFFCURVE",
"128 748 CURVE",
"320 788 LINE",
"320 748 LINE",
"320 182 OFFCURVE",
"394 134 OFFCURVE",
"871 134 CURVE",
"1171 134 LINE",
"1171 -32 LINE",
"871 -32 LINE"
);
},
{
closed = 1;
nodes = (
"2014 519 LINE",
"2014 29 OFFCURVE",
"1822 -32 OFFCURVE",
"1274 -32 CURVE",
"974 -32 LINE",
"974 134 LINE",
"1274 134 LINE",
"1702 134 OFFCURVE",
"1822 133 OFFCURVE",
"1822 519 CURVE"
);
},
{
closed = 1;
nodes = (
"1822 1393 OFFCURVE",
"1702 1402 OFFCURVE",
"1274 1402 CURVE",
"974 1402 LINE",
"974 1568 LINE",
"1274 1568 LINE",
"1822 1568 OFFCURVE",
"2014 1497 OFFCURVE",
"2014 1007 CURVE",
"1822 1007 LINE"
);
}
);
width = 2145;
}
);
unicode = 0043;
},
{
glyphname = Ccedilla;
layers = (
{
layerId = "3D86ED3E-BC30-4996-8F23-7FA448982149";
name = Regular;
paths = (
{
closed = 1;
nodes = (
"1087 -128 LINE",
"1258 -128 OFFCURVE",
"1343 -181 OFFCURVE",
"1343 -288 CURVE SMOOTH",
"1343 -493 OFFCURVE",
"1187 -544 OFFCURVE",
"959 -544 CURVE",
"959 -384 LINE",
"1034 -384 OFFCURVE",
"1080 -381 OFFCURVE",
"1099 -374 CURVE SMOOTH",
"1134 -361 OFFCURVE",
"1151 -332 OFFCURVE",
"1151 -288 CURVE SMOOTH",
"1151 -267 OFFCURVE",
"1144 -253 OFFCURVE",
"1130 -246 CURVE SMOOTH",
"1101 -232 OFFCURVE",
"1044 -224 OFFCURVE",
"959 -224 CURVE",
"959 -32 LINE",
"831 -32 LINE SMOOTH",
"604 -32 OFFCURVE",
"439 -4 OFFCURVE",
"336 54 CURVE SMOOTH",
"191 135 OFFCURVE",
"137 296 OFFCURVE",
"131 520 CURVE SMOOTH",
"129 595 OFFCURVE",
"128 677 OFFCURVE",
"128 768 CURVE SMOOTH",
"128 843 LINE SMOOTH",
"128 1053 OFFCURVE",
"133 1243 OFFCURVE",
"216 1372 CURVE SMOOTH",
"244 1416 OFFCURVE",
"284 1453 OFFCURVE",
"336 1482 CURVE SMOOTH",
"439 1540 OFFCURVE",
"604 1568 OFFCURVE",
"831 1568 CURVE SMOOTH",
"1280 1568 LINE SMOOTH",
"1558 1568 OFFCURVE",
"1747 1527 OFFCURVE",
"1847 1444 CURVE SMOOTH",
"1948 1361 OFFCURVE",
"1983 1236 OFFCURVE",
"1983 1056 CURVE",
"1791 1056 LINE",
"1791 1204 OFFCURVE",
"1767 1299 OFFCURVE",
"1679 1352 CURVE SMOOTH",
"1587 1407 OFFCURVE",
"1455 1408 OFFCURVE",
"1298 1408 CURVE SMOOTH",
"1280 1408 LINE SMOOTH",
"831 1408 LINE SMOOTH",
"654 1408 OFFCURVE",
"534 1395 OFFCURVE",
"471 1370 CURVE SMOOTH",
"393 1338 OFFCURVE",
"356 1283 OFFCURVE",
"338 1190 CURVE SMOOTH",
"326 1129 OFFCURVE",
"320 988 OFFCURVE",
"320 768 CURVE SMOOTH",
"320 551 OFFCURVE",
"325 415 OFFCURVE",
"336 359 CURVE SMOOTH",
"356 255 OFFCURVE",
"387 200 OFFCURVE",
"471 166 CURVE SMOOTH",
"534 141 OFFCURVE",
"654 128 OFFCURVE",
"831 128 CURVE SMOOTH",
"1280 128 LINE SMOOTH",
"1434 128 OFFCURVE",
"1538 135 OFFCURVE",
"1590 150 CURVE SMOOTH",
"1680 175 OFFCURVE",
"1726 200 OFFCURVE",
"1758 270 CURVE SMOOTH",
"1780 319 OFFCURVE",
"1791 400 OFFCURVE",
"1791 512 CURVE",
"1983 512 LINE",
"1983 237 OFFCURVE",
"1915 96 OFFCURVE",
"1718 24 CURVE SMOOTH",
"1617 -13 OFFCURVE",
"1471 -32 OFFCURVE",
"1280 -32 CURVE SMOOTH",
"1087 -32 LINE"
);
}
);
width = 2111;
}
);
unicode = 00C7;
},
{
glyphname = D;
lastChange = "2014-03-17 05:47:39 -0800";
layers = (
{
background = {
paths = (
{
closed = 1;
nodes = (
"1233 0 LINE",
"196 0 LINE",
"196 1536 LINE",
"1233 1536 LINE",
"1233 1370 LINE",
"388 1370 LINE",
"388 166 LINE",
"1233 166 LINE"
);
},
{
closed = 1;
nodes = (
"1936 1536 OFFCURVE",
"2079 1435 OFFCURVE",
"2079 788 CURVE",
"2079 748 LINE",
"1887 788 LINE",
"1887 1342 OFFCURVE",
"1813 1370 OFFCURVE",
"1336 1370 CURVE",
"1042 1370 LINE",
"1042 1536 LINE",
"1336 1536 LINE"
);
},
{
closed = 1;
nodes = (
"1042 0 LINE",
"1042 166 LINE",
"1336 166 LINE",
"1813 166 OFFCURVE",
"1887 214 OFFCURVE",
"1887 748 CURVE",
"1887 788 LINE",
"2079 748 LINE",
"2079 121 OFFCURVE",
"1936 0 OFFCURVE",
"1336 0 CURVE"
);
}
);
};
layerId = "3D86ED3E-BC30-4996-8F23-7FA448982149";
name = Regular;
paths = (
{
closed = 1;
nodes = (
"1233 0 LINE",
"196 0 LINE",
"196 1536 LINE",
"1233 1536 LINE",
"1233 1370 LINE",
"388 1370 LINE",
"388 166 LINE",
"1233 166 LINE"
);
},
{
closed = 1;
nodes = (
"1936 1536 OFFCURVE",
"2079 1435 OFFCURVE",
"2079 788 CURVE",
"2079 748 LINE",
"1887 788 LINE",
"1887 1342 OFFCURVE",
"1813 1370 OFFCURVE",
"1336 1370 CURVE",
"1042 1370 LINE",
"1042 1536 LINE",
"1336 1536 LINE"
);
},
{
closed = 1;
nodes = (
"1042 0 LINE",
"1042 166 LINE",
"1336 166 LINE",
"1813 166 OFFCURVE",
"1887 214 OFFCURVE",
"1887 748 CURVE",
"1887 788 LINE",
"2079 748 LINE",
"2079 121 OFFCURVE",
"1936 0 OFFCURVE",
"1336 0 CURVE"
);
}
);
width = 2207;
}
);
unicode = 0044;
},
{
glyphname = Eth;
layers = (
{
layerId = "3D86ED3E-BC30-4996-8F23-7FA448982149";
name = Regular;
paths = (
{
closed = 1;
nodes = (
"0 704 LINE",
"0 864 LINE",
"128 864 LINE",
"128 1536 LINE",
"1279 1536 LINE SMOOTH",
"1506 1536 OFFCURVE",
"1671 1508 OFFCURVE",
"1774 1453 CURVE SMOOTH",
"1826 1425 OFFCURVE",
"1868 1390 OFFCURVE",
"1896 1348 CURVE SMOOTH",
"1981 1222 OFFCURVE",
"1984 1031 OFFCURVE",
"1984 820 CURVE SMOOTH",
"1984 768 LINE SMOOTH",
"1984 681 OFFCURVE",
"1982 602 OFFCURVE",
"1980 530 CURVE SMOOTH",
"1973 313 OFFCURVE",
"1920 161 OFFCURVE",
"1774 83 CURVE SMOOTH",
"1671 28 OFFCURVE",
"1506 0 OFFCURVE",
"1279 0 CURVE SMOOTH",
"128 0 LINE",
"128 704 LINE"
);
},
{
closed = 1;
nodes = (
"320 160 LINE",
"1279 160 LINE SMOOTH",
"1456 160 OFFCURVE",
"1576 172 OFFCURVE",
"1639 196 CURVE SMOOTH",
"1722 227 OFFCURVE",
"1754 279 OFFCURVE",
"1775 378 CURVE SMOOTH",
"1786 431 OFFCURVE",
"1792 561 OFFCURVE",
"1792 768 CURVE SMOOTH",
"1792 975 OFFCURVE",
"1785 1109 OFFCURVE",
"1772 1170 CURVE SMOOTH",
"1751 1270 OFFCURVE",
"1714 1313 OFFCURVE",
"1620 1348 CURVE SMOOTH",
"1570 1367 OFFCURVE",
"1456 1376 OFFCURVE",
"1279 1376 CURVE SMOOTH",
"320 1376 LINE",
"320 864 LINE",
"768 864 LINE",
"768 704 LINE",
"320 704 LINE"
);
}
);
width = 2112;
}
);
unicode = 00D0;
},
{
glyphname = E;
layers = (
{
layerId = "3D86ED3E-BC30-4996-8F23-7FA448982149";
name = Regular;
paths = (
{
closed = 1;
nodes = (
"192 0 LINE",
"192 1536 LINE",
"1700 1536 LINE",
"1700 1376 LINE",
"384 1376 LINE",
"384 864 LINE",
"1645 864 LINE",
"1645 704 LINE",
"384 704 LINE",
"384 160 LINE",
"1728 160 LINE",
"1728 0 LINE"
);
}
);
width = 1792;
}
);
unicode = 0045;
},
{
glyphname = Einvertedbreve;
layers = (
{
components = (
{
name = E;
transform = "{1, 0, 0, 1, -63, 0}";
}
);
layerId = "3D86ED3E-BC30-4996-8F23-7FA448982149";
name = Regular;
paths = (
{
closed = 1;
nodes = (
"512 1690 LINE",
"512 1925 OFFCURVE",
"653 2010 OFFCURVE",
"896 2010 CURVE SMOOTH",
"1139 2010 OFFCURVE",
"1280 1926 OFFCURVE",
"1280 1690 CURVE",
"1120 1690 LINE",
"1120 1776 OFFCURVE",
"1099 1832 OFFCURVE",
"1056 1858 CURVE SMOOTH",
"1029 1874 OFFCURVE",
"976 1882 OFFCURVE",
"896 1882 CURVE SMOOTH",
"816 1882 OFFCURVE",
"764 1875 OFFCURVE",
"741 1861 CURVE SMOOTH",
"695 1833 OFFCURVE",
"672 1776 OFFCURVE",
"672 1690 CURVE"
);
}
);
width = 1792;
}
);
unicode = 0206;
},
{
glyphname = F;
layers = (
{
layerId = "3D86ED3E-BC30-4996-8F23-7FA448982149";
name = Regular;
paths = (
{
closed = 1;
nodes = (
"192 0 LINE",
"192 1536 LINE",
"1664 1536 LINE",
"1664 1376 LINE",
"384 1376 LINE",
"384 864 LINE",
"1600 864 LINE",
"1600 704 LINE",
"384 704 LINE",
"384 0 LINE"
);
}
);
width = 1728;
}
);
unicode = 0046;
},
{
glyphname = G;
lastChange = "2014-03-17 19:12:46 -0800";
layers = (
{
layerId = "3D86ED3E-BC30-4996-8F23-7FA448982149";
name = Regular;
paths = (
{
closed = 1;
nodes = (
"1822 648 LINE",
"1087 648 LINE",
"1087 808 LINE",
"2014 808 LINE"
);
},
{
closed = 1;
nodes = (
"1154 1568 LINE",
"1154 1402 LINE",
"871 1402 LINE",
"394 1402 OFFCURVE",
"320 1374 OFFCURVE",
"320 788 CURVE",
"128 748 LINE",
"128 788 LINE",
"128 1467 OFFCURVE",
"271 1568 OFFCURVE",
"871 1568 CURVE"
);
},
{
closed = 1;
nodes = (
"271 -32 OFFCURVE",
"128 89 OFFCURVE",
"128 748 CURVE",
"320 788 LINE",
"320 748 LINE",
"320 182 OFFCURVE",
"394 134 OFFCURVE",
"871 134 CURVE",
"1171 134 LINE",
"1171 -32 LINE",
"871 -32 LINE"
);
},
{
closed = 1;
nodes = (
"1822 648 LINE",
"2014 808 LINE",
"2014 589 LINE",
"2014 69 OFFCURVE",
"1862 -32 OFFCURVE",
"1314 -32 CURVE",
"974 -32 LINE",
"974 134 LINE",
"1314 134 LINE",
"1755 134 OFFCURVE",
"1822 173 OFFCURVE",
"1822 589 CURVE"
);
},
{
closed = 1;
nodes = (
"1805 1395 OFFCURVE",
"1725 1402 OFFCURVE",
"1247 1402 CURVE",
"974 1402 LINE",
"974 1568 LINE",
"1247 1568 LINE",
"1875 1568 OFFCURVE",
"1997 1499 OFFCURVE",
"1997 1077 CURVE",
"1805 1077 LINE"
);
}
);
width = 2177;
}
);
unicode = 0047;
},
{
glyphname = H;
layers = (
{
layerId = "3D86ED3E-BC30-4996-8F23-7FA448982149";
name = Regular;
paths = (
{
closed = 1;
nodes = (
"1796 1536 LINE",
"1988 1536 LINE",
"1988 0 LINE",
"1796 0 LINE",
"1796 704 LINE",
"388 704 LINE",
"388 0 LINE",
"196 0 LINE",
"196 1536 LINE",
"388 1536 LINE",
"388 864 LINE",
"1796 864 LINE"
);
}
);
width = 2184;
}
);
unicode = 0048;
},
{
glyphname = Hbar;
layers = (
{
layerId = "3D86ED3E-BC30-4996-8F23-7FA448982149";
name = Regular;
paths = (
{
closed = 1;
nodes = (
"1792 1536 LINE",
"1984 1536 LINE",
"1984 0 LINE",
"1792 0 LINE",
"1792 704 LINE",
"384 704 LINE",
"384 0 LINE",
"192 0 LINE",
"192 1536 LINE",
"384 1536 LINE",
"384 864 LINE",
"1792 864 LINE"
);
}
);
width = 2176;
}
);
unicode = 0126;
},
{
glyphname = Iinvertedbreve;
layers = (
{
components = (
{
name = l;
transform = "{1, 0, 0, 1, -63, 0}";
}
);
layerId = "3D86ED3E-BC30-4996-8F23-7FA448982149";
name = Regular;
paths = (
{
closed = 1;
nodes = (
"-159 1690 LINE",
"-159 1925 OFFCURVE",
"-18 2010 OFFCURVE",
"225 2010 CURVE SMOOTH",
"468 2010 OFFCURVE",
"609 1926 OFFCURVE",
"609 1690 CURVE",
"449 1690 LINE",
"449 1776 OFFCURVE",
"428 1832 OFFCURVE",
"385 1858 CURVE SMOOTH",
"358 1874 OFFCURVE",
"305 1882 OFFCURVE",
"225 1882 CURVE SMOOTH",
"145 1882 OFFCURVE",
"93 1875 OFFCURVE",
"70 1861 CURVE SMOOTH",
"24 1833 OFFCURVE",
"1 1776 OFFCURVE",
"1 1690 CURVE"
);
}
);
width = 448;
}
);
unicode = 020A;
},
{
glyphname = J;
layers = (
{
layerId = "3D86ED3E-BC30-4996-8F23-7FA448982149";
name = Regular;
paths = (
{
closed = 1;
nodes = (
"1024 156 LINE SMOOTH",
"1255 156 OFFCURVE",
"1344 223 OFFCURVE",
"1344 448 CURVE SMOOTH",
"1344 1536 LINE",
"1536 1536 LINE",
"1536 448 LINE SMOOTH",
"1536 286 OFFCURVE",
"1499 171 OFFCURVE",
"1424 104 CURVE SMOOTH",
"1347 35 OFFCURVE",
"1214 0 OFFCURVE",
"1024 0 CURVE SMOOTH",
"576 0 LINE SMOOTH",
"321 0 OFFCURVE",
"179 56 OFFCURVE",
"144 270 CURVE SMOOTH",
"133 335 OFFCURVE",
"128 416 OFFCURVE",
"128 512 CURVE SMOOTH",
"128 576 LINE",
"320 576 LINE",
"320 512 LINE SMOOTH",
"320 359 OFFCURVE",
"339 260 OFFCURVE",
"376 214 CURVE SMOOTH",
"417 163 OFFCURVE",
"483 156 OFFCURVE",
"576 156 CURVE SMOOTH"
);
}
);
width = 1715;
}
);
unicode = 004A;
},
{
glyphname = K;
lastChange = "2014-03-17 17:14:04 -0800";
layers = (
{
layerId = "3D86ED3E-BC30-4996-8F23-7FA448982149";
name = Regular;
paths = (
{
closed = 1;
nodes = (
"1632 1536 LINE",
"1920 1536 LINE",
"761 735 LINE",
"761 834 LINE",
"1952 0 LINE",
"1664 0 LINE",
"569 753 LINE",
"726 704 LINE",
"298 704 LINE",
"384 790 LINE",
"384 0 LINE",
"192 0 LINE",
"192 1536 LINE",
"384 1536 LINE",
"384 778 LINE",
"298 864 LINE",
"726 864 LINE",
"568 816 LINE"
);
}
);
width = 2016;
}
);
unicode = 004B;
},
{
glyphname = L;
layers = (
{
layerId = "3D86ED3E-BC30-4996-8F23-7FA448982149";
name = Regular;
paths = (
{
closed = 1;
nodes = (
"192 0 LINE",
"192 1536 LINE",
"384 1536 LINE",
"384 160 LINE",
"1600 160 LINE",
"1600 0 LINE"
);
}
);
width = 1664;
}
);
unicode = 004C;
},
{
glyphname = Lslash;
layers = (
{
layerId = "3D86ED3E-BC30-4996-8F23-7FA448982149";
name = Regular;
paths = (
{
closed = 1;
nodes = (
"64 768 LINE",
"64 928 LINE",
"768 1088 LINE",
"768 928 LINE"
);
},
{
closed = 1;
nodes = (
"1600 0 LINE",
"192 0 LINE",
"192 1536 LINE",
"384 1536 LINE",
"384 160 LINE",
"1600 160 LINE"
);
}
);
width = 1664;
}
);
unicode = 0141;
},
{
glyphname = M;
lastChange = "2014-03-17 19:21:43 -0800";
layers = (
{
layerId = "3D86ED3E-BC30-4996-8F23-7FA448982149";
name = Regular;
paths = (
{
closed = 1;
nodes = (
"388 1362 LINE",
"388 0 LINE",
"196 0 LINE",
"196 1536 LINE",
"482 1536 LINE",
"1411 283 LINE",
"2326 1536 LINE",
"2612 1536 LINE",
"2612 0 LINE",
"2420 0 LINE",
"2420 1362 LINE",
"1503 101 LINE",
"1329 101 LINE"
);
}
);
width = 2808;
}
);
unicode = 004D;
},
{
glyphname = N;
layers = (
{
layerId = "3D86ED3E-BC30-4996-8F23-7FA448982149";
name = Regular;
paths = (
{
closed = 1;
nodes = (
"384 1310 LINE",
"384 0 LINE",
"192 0 LINE",
"192 1536 LINE",
"392 1536 LINE",
"1935 237 LINE",
"1937 237 LINE",
"1937 1536 LINE",
"2129 1536 LINE",
"2129 0 LINE",
"1929 0 LINE",
"386 1310 LINE"
);
}
);
width = 2321;
}
);
unicode = 004E;
},
{
glyphname = O;
lastChange = "2014-03-17 05:52:02 -0800";
layers = (
{
background = {
paths = (
{
closed = 1;
nodes = (
"1171 1568 LINE",
"1171 1402 LINE",
"871 1402 LINE",
"394 1402 OFFCURVE",
"320 1374 OFFCURVE",
"320 788 CURVE",
"128 748 LINE",
"128 788 LINE",
"128 1467 OFFCURVE",
"271 1568 OFFCURVE",
"871 1568 CURVE"
);
},
{
closed = 1;
nodes = (
"1874 1568 OFFCURVE",
"2017 1467 OFFCURVE",
"2017 788 CURVE",
"2017 748 LINE",
"1825 788 LINE",
"1825 1374 OFFCURVE",
"1751 1402 OFFCURVE",
"1274 1402 CURVE",
"974 1402 LINE",
"974 1568 LINE",
"1274 1568 LINE"
);
},
{
closed = 1;
nodes = (
"271 -32 OFFCURVE",
"128 89 OFFCURVE",
"128 748 CURVE",
"320 788 LINE",
"320 748 LINE",
"320 182 OFFCURVE",
"394 134 OFFCURVE",
"871 134 CURVE",
"1171 134 LINE",
"1171 -32 LINE",
"871 -32 LINE"
);
},
{
closed = 1;
nodes = (
"974 -32 LINE",
"974 134 LINE",
"1274 134 LINE",
"1751 134 OFFCURVE",
"1825 182 OFFCURVE",
"1825 748 CURVE",
"1825 788 LINE",
"2017 748 LINE",
"2017 89 OFFCURVE",
"1874 -32 OFFCURVE",
"1274 -32 CURVE"
);
}
);
};
layerId = "3D86ED3E-BC30-4996-8F23-7FA448982149";
name = Regular;
paths = (
{
closed = 1;
nodes = (
"1171 1568 LINE",
"1171 1402 LINE",
"871 1402 LINE",
"394 1402 OFFCURVE",
"320 1374 OFFCURVE",
"320 788 CURVE",
"128 748 LINE",
"128 788 LINE",
"128 1467 OFFCURVE",
"271 1568 OFFCURVE",
"871 1568 CURVE"
);
},
{
closed = 1;
nodes = (
"271 -32 OFFCURVE",
"128 89 OFFCURVE",
"128 748 CURVE",
"320 788 LINE",
"320 748 LINE",
"320 182 OFFCURVE",
"394 134 OFFCURVE",
"871 134 CURVE",
"1171 134 LINE",
"1171 -32 LINE",
"871 -32 LINE"
);
},
{
closed = 1;
nodes = (
"1874 1568 OFFCURVE",
"2017 1467 OFFCURVE",
"2017 788 CURVE",
"2017 748 LINE",
"1825 788 LINE",
"1825 1374 OFFCURVE",
"1751 1402 OFFCURVE",
"1274 1402 CURVE",
"974 1402 LINE",
"974 1568 LINE",
"1274 1568 LINE"
);
},
{
closed = 1;
nodes = (
"974 -32 LINE",
"974 134 LINE",
"1274 134 LINE",
"1751 134 OFFCURVE",
"1825 182 OFFCURVE",
"1825 748 CURVE",
"1825 788 LINE",
"2017 748 LINE",
"2017 89 OFFCURVE",
"1874 -32 OFFCURVE",
"1274 -32 CURVE"
);
}
);
width = 2145;
}
);
unicode = 004F;
},
{
glyphname = Oinvertedbreve;
layers = (
{
components = (
{
name = O;
transform = "{1, 0, 0, 1, 1, 0}";
}
);
layerId = "3D86ED3E-BC30-4996-8F23-7FA448982149";
name = Regular;
paths = (
{
closed = 1;
nodes = (
"737 1690 LINE",
"737 1925 OFFCURVE",
"878 2010 OFFCURVE",
"1121 2010 CURVE SMOOTH",
"1364 2010 OFFCURVE",
"1505 1926 OFFCURVE",
"1505 1690 CURVE",
"1345 1690 LINE",
"1345 1776 OFFCURVE",
"1324 1832 OFFCURVE",
"1281 1858 CURVE SMOOTH",
"1254 1874 OFFCURVE",
"1201 1882 OFFCURVE",
"1121 1882 CURVE SMOOTH",
"1041 1882 OFFCURVE",
"989 1875 OFFCURVE",
"966 1861 CURVE SMOOTH",
"920 1833 OFFCURVE",
"897 1776 OFFCURVE",
"897 1690 CURVE"
);
}
);
width = 2241;
}
);
unicode = 020E;
},
{
glyphname = Oslash;
lastChange = "2014-03-17 18:58:10 -0800";
layers = (
{
components = (
{
name = O;
transform = "{1, 0, 0, 1, 0, 0}";
}
);
layerId = "3D86ED3E-BC30-4996-8F23-7FA448982149";
name = Regular;
paths = (
{
closed = 1;
nodes = (
"1518 1792 LINE",
"1644 1740 LINE",
"664 -254 LINE",
"538 -202 LINE"
);
}
);
width = 2145;
}
);
unicode = 00D8;
},
{
glyphname = OE;
layers = (
{
layerId = "3D86ED3E-BC30-4996-8F23-7FA448982149";
name = Regular;
paths = (
{
closed = 1;
nodes = (
"1409 1564 LINE SMOOTH",
"1425 1564 OFFCURVE",
"1441 1565 OFFCURVE",
"1457 1565 CURVE SMOOTH",
"1665 1565 OFFCURVE",
"1820 1534 OFFCURVE",
"1920 1472 CURVE",
"1920 1536 LINE",
"3456 1536 LINE",
"3456 1376 LINE",
"2112 1376 LINE",
"2112 864 LINE",
"3392 864 LINE",
"3392 704 LINE",
"2112 704 LINE",
"2112 160 LINE",
"3456 160 LINE",
"3456 0 LINE",
"1920 0 LINE",
"1920 64 LINE",
"1816 0 OFFCURVE",
"1646 -32 OFFCURVE",
"1409 -32 CURVE SMOOTH",
"831 -32 LINE SMOOTH",
"604 -32 OFFCURVE",
"439 -4 OFFCURVE",
"336 54 CURVE SMOOTH",
"191 135 OFFCURVE",
"137 296 OFFCURVE",
"131 520 CURVE SMOOTH",
"129 595 OFFCURVE",
"128 677 OFFCURVE",
"128 768 CURVE SMOOTH",
"128 843 LINE SMOOTH",
"128 1053 OFFCURVE",
"133 1243 OFFCURVE",
"216 1372 CURVE SMOOTH",
"244 1416 OFFCURVE",
"284 1453 OFFCURVE",
"336 1482 CURVE SMOOTH",
"435 1537 OFFCURVE",
"583 1565 OFFCURVE",
"780 1565 CURVE SMOOTH",
"797 1565 OFFCURVE",
"814 1564 OFFCURVE",
"831 1564 CURVE SMOOTH"
);
},
{
closed = 1;
nodes = (
"1409 128 LINE SMOOTH",
"1586 128 OFFCURVE",
"1705 141 OFFCURVE",
"1768 166 CURVE SMOOTH",
"1846 198 OFFCURVE",
"1883 253 OFFCURVE",
"1901 346 CURVE SMOOTH",
"1914 410 OFFCURVE",
"1920 551 OFFCURVE",
"1920 768 CURVE SMOOTH",
"1920 985 OFFCURVE",
"1915 1121 OFFCURVE",
"1904 1177 CURVE SMOOTH",
"1884 1280 OFFCURVE",
"1851 1336 OFFCURVE",
"1768 1370 CURVE SMOOTH",
"1691 1401 OFFCURVE",
"1596 1404 OFFCURVE",
"1484 1404 CURVE SMOOTH",
"1409 1404 LINE SMOOTH",
"831 1404 LINE SMOOTH",
"804 1405 OFFCURVE",
"778 1405 OFFCURVE",
"753 1405 CURVE SMOOTH",
"505 1405 OFFCURVE",
"375 1380 OFFCURVE",
"338 1190 CURVE SMOOTH",
"326 1129 OFFCURVE",
"320 988 OFFCURVE",
"320 768 CURVE SMOOTH",
"320 551 OFFCURVE",
"325 415 OFFCURVE",
"336 359 CURVE SMOOTH",
"356 255 OFFCURVE",
"387 200 OFFCURVE",
"471 166 CURVE SMOOTH",
"534 141 OFFCURVE",
"654 128 OFFCURVE",
"831 128 CURVE SMOOTH"
);
}
);
width = 3520;
}
);
unicode = 0152;
},
{
glyphname = P;
lastChange = "2014-03-17 05:53:55 -0800";
layers = (
{
background = {
paths = (
{
closed = 1;
nodes = (
"1107 592 LINE",
"196 592 LINE",
"196 1536 LINE",
"1107 1536 LINE",
"1107 1370 LINE",
"388 1370 LINE",
"388 758 LINE",
"1107 758 LINE"
);
},
{
closed = 1;
nodes = (
"1824 1536 OFFCURVE",
"1916 1431 OFFCURVE",
"1916 1084 CURVE",
"1916 1044 LINE",
"1724 1084 LINE",
"1724 1338 OFFCURVE",
"1664 1370 OFFCURVE",
"1187 1370 CURVE",
"1026 1370 LINE",
"1026 1536 LINE",
"1224 1536 LINE"
);
},
{
closed = 1;
nodes = (
"1026 592 LINE",
"1026 758 LINE",
"1187 758 LINE",
"1664 758 OFFCURVE",
"1724 806 OFFCURVE",
"1724 1044 CURVE",
"1724 1084 LINE",
"1916 1044 LINE",
"1916 713 OFFCURVE",
"1818 592 OFFCURVE",
"1218 592 CURVE"
);
},
{
closed = 1;
nodes = (
"388 649 LINE",
"388 0 LINE",
"196 0 LINE",
"196 649 LINE"
);
}
);
};
layerId = "3D86ED3E-BC30-4996-8F23-7FA448982149";
name = Regular;
paths = (
{
closed = 1;
nodes = (
"1107 592 LINE",
"196 592 LINE",
"196 1536 LINE",
"1107 1536 LINE",
"1107 1370 LINE",
"388 1370 LINE",
"388 758 LINE",
"1107 758 LINE"
);
},
{
closed = 1;
nodes = (
"1824 1536 OFFCURVE",
"1916 1431 OFFCURVE",
"1916 1084 CURVE",
"1916 1044 LINE",
"1724 1084 LINE",
"1724 1338 OFFCURVE",
"1664 1370 OFFCURVE",
"1187 1370 CURVE",
"1026 1370 LINE",
"1026 1536 LINE",
"1224 1536 LINE"
);
},
{
closed = 1;
nodes = (
"1026 592 LINE",
"1026 758 LINE",
"1187 758 LINE",
"1664 758 OFFCURVE",
"1724 806 OFFCURVE",
"1724 1044 CURVE",
"1724 1084 LINE",
"1916 1044 LINE",
"1916 713 OFFCURVE",
"1818 592 OFFCURVE",
"1218 592 CURVE"
);
},
{
closed = 1;
nodes = (
"388 649 LINE",
"388 0 LINE",
"196 0 LINE",
"196 649 LINE"
);
}
);
width = 1991;
}
);
unicode = 0050;
},
{
glyphname = Thorn;
layers = (
{
layerId = "3D86ED3E-BC30-4996-8F23-7FA448982149";
name = Regular;
paths = (
{
closed = 1;
nodes = (
"128 0 LINE",
"128 1536 LINE",
"320 1536 LINE",
"320 1344 LINE",
"1282 1344 LINE SMOOTH",
"1466 1344 OFFCURVE",
"1601 1327 OFFCURVE",
"1686 1294 CURVE SMOOTH",
"1729 1277 OFFCURVE",
"1761 1257 OFFCURVE",
"1784 1232 CURVE SMOOTH",
"1854 1157 OFFCURVE",
"1856 1040 OFFCURVE",
"1856 894 CURVE SMOOTH",
"1856 843 OFFCURVE",
"1854 796 OFFCURVE",
"1852 752 CURVE SMOOTH",
"1847 659 OFFCURVE",
"1820 587 OFFCURVE",
"1768 538 CURVE SMOOTH",
"1682 456 OFFCURVE",
"1476 416 OFFCURVE",
"1151 416 CURVE SMOOTH",
"320 416 LINE",
"320 0 LINE"
);
},
{
closed = 1;
nodes = (
"320 1184 LINE",
"320 576 LINE",
"1151 576 LINE SMOOTH",
"1325 576 OFFCURVE",
"1445 583 OFFCURVE",
"1511 597 CURVE SMOOTH",
"1610 618 OFFCURVE",
"1656 664 OFFCURVE",
"1662 776 CURVE SMOOTH",
"1664 810 OFFCURVE",
"1664 862 OFFCURVE",
"1664 935 CURVE SMOOTH",
"1664 1106 OFFCURVE",
"1636 1144 OFFCURVE",
"1495 1170 CURVE SMOOTH",
"1446 1179 OFFCURVE",
"1331 1184 OFFCURVE",
"1151 1184 CURVE SMOOTH"
);
}
);
width = 1920;
}
);
unicode = 00DE;
},
{
glyphname = Q;
layers = (
{
components = (
{
name = O;
transform = "{1, 0, 0, 1, 0, 0}";
}
);
layerId = "3D86ED3E-BC30-4996-8F23-7FA448982149";
name = Regular;
paths = (
{
closed = 1;
nodes = (
"2145 -93 LINE",
"2048 -212 LINE",
"1107 525 LINE",
"1204 644 LINE"
);
}
);
width = 2145;
}
);
unicode = 0051;
},
{
glyphname = R;
lastChange = "2014-03-17 15:00:51 -0800";
layers = (
{
background = {
paths = (
{
closed = 1;
nodes = (
"1724 1058 LINE SMOOTH",
"1724 835 OFFCURVE",
"1664 787 OFFCURVE",
"1187 787 CURVE SMOOTH",
"1026 787 LINE",
"1026 621 LINE",
"1187 621 LINE SMOOTH",
"1664 621 OFFCURVE",
"1724 573 OFFCURVE",
"1724 335 CURVE SMOOTH",
"1724 0 LINE",
"1916 0 LINE",
"1916 365 LINE SMOOTH",
"1916 565 OFFCURVE",
"1847 673 OFFCURVE",
"1664 703 CURVE",
"1847 732 OFFCURVE",
"1916 841 OFFCURVE",
"1916 1058 CURVE",
"1724 1098 LINE"
);
},
{
closed = 1;
nodes = (
"196 678 LINE",
"196 0 LINE",
"388 0 LINE",
"388 678 LINE"
);
},
{
closed = 1;
nodes = (
"196 1536 LINE",
"196 621 LINE",
"1107 621 LINE",
"1107 787 LINE",
"388 787 LINE",
"388 1370 LINE",
"1107 1370 LINE",
"1107 1536 LINE"
);
},
{
closed = 1;
nodes = (
"1026 1536 LINE",
"1026 1370 LINE",
"1187 1370 LINE",
"1664 1370 OFFCURVE",
"1724 1352 OFFCURVE",
"1724 1098 CURVE",
"1916 1058 LINE",
"1916 1098 LINE",
"1916 1445 OFFCURVE",
"1824 1536 OFFCURVE",
"1224 1536 CURVE"
);
}
);
};
layerId = "3D86ED3E-BC30-4996-8F23-7FA448982149";
name = Regular;
paths = (
{
closed = 1;
nodes = (
"1724 1058 LINE SMOOTH",
"1724 835 OFFCURVE",
"1694 787 OFFCURVE",
"1237 787 CURVE SMOOTH",
"1026 787 LINE",
"1026 621 LINE",
"1227 621 LINE SMOOTH",
"1704 621 OFFCURVE",
"1724 573 OFFCURVE",
"1724 335 CURVE SMOOTH",
"1724 0 LINE",
"1916 0 LINE",
"1916 365 LINE SMOOTH",
"1916 565 OFFCURVE",
"1847 673 OFFCURVE",
"1664 703 CURVE",
"1847 732 OFFCURVE",
"1916 841 OFFCURVE",
"1916 1058 CURVE",
"1724 1098 LINE"
);
},
{
closed = 1;
nodes = (
"196 678 LINE",
"196 0 LINE",
"388 0 LINE",
"388 678 LINE"
);
},
{
closed = 1;
nodes = (
"196 1536 LINE",
"196 621 LINE",
"1107 621 LINE",
"1107 787 LINE",
"388 787 LINE",
"388 1370 LINE",
"1107 1370 LINE",
"1107 1536 LINE"
);
},
{
closed = 1;
nodes = (
"1026 1536 LINE",
"1026 1370 LINE",
"1187 1370 LINE",
"1664 1370 OFFCURVE",
"1724 1352 OFFCURVE",
"1724 1098 CURVE",
"1916 1058 LINE",
"1916 1098 LINE",
"1916 1445 OFFCURVE",
"1824 1536 OFFCURVE",
"1224 1536 CURVE"
);
}
);
width = 2087;
}
);
unicode = 0052;
},
{
glyphname = Rinvertedbreve;
layers = (
{
components = (
{
name = R;
transform = "{1, 0, 0, 1, -63, 0}";
}
);
layerId = "3D86ED3E-BC30-4996-8F23-7FA448982149";
name = Regular;
paths = (
{
closed = 1;
nodes = (
"288 1690 LINE",
"288 1925 OFFCURVE",
"429 2010 OFFCURVE",
"672 2010 CURVE SMOOTH",
"915 2010 OFFCURVE",
"1056 1926 OFFCURVE",
"1056 1690 CURVE",
"896 1690 LINE",
"896 1776 OFFCURVE",
"875 1832 OFFCURVE",
"832 1858 CURVE SMOOTH",
"805 1874 OFFCURVE",
"752 1882 OFFCURVE",
"672 1882 CURVE SMOOTH",
"592 1882 OFFCURVE",
"540 1875 OFFCURVE",
"517 1861 CURVE SMOOTH",
"471 1833 OFFCURVE",
"448 1776 OFFCURVE",
"448 1690 CURVE"
);
}
);
width = 2048;
}
);
unicode = 0212;
},
{
glyphname = S;
lastChange = "2014-03-17 17:32:53 -0800";
layers = (
{
background = {
paths = (
{
closed = 1;
nodes = (
"1181 1568 LINE",
"1181 1402 LINE",
"876 1402 LINE",
"399 1402 OFFCURVE",
"325 1388 OFFCURVE",
"325 1132 CURVE",
"133 1132 LINE",
"133 1481 OFFCURVE",
"266 1568 OFFCURVE",
"866 1568 CURVE"
);
},
{
closed = 1;
nodes = (
"976 -32 LINE",
"976 134 LINE",
"1296 134 LINE",
"1773 134 OFFCURVE",
"1827 178 OFFCURVE",
"1827 444 CURVE",
"2019 444 LINE",
"2019 85 OFFCURVE",
"1906 -32 OFFCURVE",
"1306 -32 CURVE"
);
},
{
closed = 1;
nodes = (
"325 153 OFFCURVE",
"425 134 OFFCURVE",
"853 134 CURVE",
"1173 134 LINE",
"1173 -32 LINE",
"853 -32 LINE",
"305 -32 OFFCURVE",
"133 49 OFFCURVE",
"133 569 CURVE",
"325 569 LINE"
);
},
{
closed = 1;
nodes = (
"1800 1433 OFFCURVE",
"1680 1402 OFFCURVE",
"1284 1402 CURVE",
"979 1402 LINE",
"979 1568 LINE",
"1284 1568 LINE",
"1800 1568 OFFCURVE",
"1992 1537 OFFCURVE",
"1992 1017 CURVE",
"1800 1017 LINE"
);
},
{
closed = 1;
nodes = (
"216 706 OFFCURVE",
"133 813 OFFCURVE",
"133 1132 CURVE",
"325 1132 LINE",
"325 916 OFFCURVE",
"359 877 OFFCURVE",
"796 877 CURVE",
"1176 877 LINE",
"1176 706 LINE",
"766 706 LINE"
);
},
{
closed = 1;
nodes = (
"1946 877 OFFCURVE",
"2019 774 OFFCURVE",
"2019 444 CURVE",
"1827 444 LINE",
"1827 681 OFFCURVE",
"1793 706 OFFCURVE",
"1316 706 CURVE",
"976 706 LINE",
"976 877 LINE",
"1386 877 LINE"
);
}
);
};
layerId = "3D86ED3E-BC30-4996-8F23-7FA448982149";
name = Regular;
paths = (
{
closed = 1;
nodes = (
"796 881 LINE SMOOTH",
"359 887 OFFCURVE",
"325 916 OFFCURVE",
"325 1132 CURVE",
"133 1132 LINE",
"133 813 OFFCURVE",
"210 718 OFFCURVE",
"760 710 CURVE SMOOTH",
"1316 702 LINE SMOOTH",
"1793 695 OFFCURVE",
"1827 681 OFFCURVE",
"1827 444 CURVE",
"2019 444 LINE",
"2019 774 OFFCURVE",
"1952 865 OFFCURVE",
"1392 873 CURVE SMOOTH"
);
},
{
closed = 1;
nodes = (
"1181 1568 LINE",
"1181 1402 LINE",
"866 1402 LINE",
"389 1402 OFFCURVE",
"325 1388 OFFCURVE",
"325 1132 CURVE",
"133 1132 LINE",
"133 1481 OFFCURVE",
"256 1568 OFFCURVE",
"856 1568 CURVE"
);
},
{
closed = 1;
nodes = (
"976 -32 LINE",
"976 134 LINE",
"1311 134 LINE",
"1788 134 OFFCURVE",
"1827 178 OFFCURVE",
"1827 444 CURVE",
"2019 444 LINE",
"2019 85 OFFCURVE",
"1921 -32 OFFCURVE",
"1321 -32 CURVE"
);
},
{
closed = 1;
nodes = (
"325 133 OFFCURVE",
"425 134 OFFCURVE",
"853 134 CURVE",
"1173 134 LINE",
"1173 -32 LINE",
"853 -32 LINE",
"305 -32 OFFCURVE",
"133 29 OFFCURVE",
"133 509 CURVE",
"325 509 LINE"
);
},
{
closed = 1;
nodes = (
"1797 1433 OFFCURVE",
"1677 1402 OFFCURVE",
"1284 1402 CURVE",
"979 1402 LINE",
"979 1568 LINE",
"1284 1568 LINE",
"1827 1568 OFFCURVE",
"1989 1537 OFFCURVE",
"1989 1077 CURVE",
"1797 1077 LINE"
);
}
);
width = 2142;
}
);
unicode = 0053;
},
{
glyphname = T;
lastChange = "2014-03-17 15:01:47 -0800";
layers = (
{
layerId = "3D86ED3E-BC30-4996-8F23-7FA448982149";
name = Regular;
paths = (
{
closed = 1;
nodes = (
"1822 1536 LINE",
"1822 1376 LINE",
"1054 1376 LINE",
"1054 0 LINE",
"862 0 LINE",
"862 1376 LINE",
"94 1376 LINE",
"94 1536 LINE"
);
}
);
width = 1916;
}
);
unicode = 0054;
},
{
glyphname = U;
layers = (
{
layerId = "3D86ED3E-BC30-4996-8F23-7FA448982149";
name = Regular;
paths = (
{
closed = 1;
nodes = (
"328 1536 LINE",
"328 788 LINE",
"136 748 LINE",
"136 1536 LINE"
);
},
{
closed = 1;
nodes = (
"279 -32 OFFCURVE",
"136 89 OFFCURVE",
"136 748 CURVE",
"328 788 LINE",
"328 748 LINE SMOOTH",
"328 181 OFFCURVE",
"404 134 OFFCURVE",
"879 134 CURVE",
"1171 134 LINE",
"1171 -32 LINE",
"879 -32 LINE"
);
},
{
closed = 1;
nodes = (
"1984 748 LINE",
"1792 788 LINE",
"1792 1536 LINE",
"1984 1536 LINE"
);
},
{
closed = 1;
nodes = (
"949 -32 LINE",
"949 134 LINE",
"1241 134 LINE",
"1716 134 OFFCURVE",
"1792 181 OFFCURVE",
"1792 748 CURVE SMOOTH",
"1792 788 LINE",
"1984 748 LINE",
"1984 89 OFFCURVE",
"1841 -32 OFFCURVE",
"1241 -32 CURVE"
);
}
);
width = 2120;
}
);
unicode = 0055;
},
{
glyphname = Uinvertedbreve;
layers = (
{
components = (
{
name = U;
transform = "{1, 0, 0, 1, 0, 0}";
}
);
layerId = "3D86ED3E-BC30-4996-8F23-7FA448982149";
name = Regular;
paths = (
{
closed = 1;
nodes = (
"673 1690 LINE",
"673 1925 OFFCURVE",
"814 2010 OFFCURVE",
"1057 2010 CURVE SMOOTH",
"1300 2010 OFFCURVE",
"1441 1926 OFFCURVE",
"1441 1690 CURVE",
"1281 1690 LINE",
"1281 1776 OFFCURVE",
"1260 1832 OFFCURVE",
"1217 1858 CURVE SMOOTH",
"1190 1874 OFFCURVE",
"1137 1882 OFFCURVE",
"1057 1882 CURVE SMOOTH",
"977 1882 OFFCURVE",
"925 1875 OFFCURVE",
"902 1861 CURVE SMOOTH",
"856 1833 OFFCURVE",
"833 1776 OFFCURVE",
"833 1690 CURVE"
);
}
);
width = 2113;
}
);
unicode = 0216;
},
{
glyphname = V;
lastChange = "2014-03-17 15:56:52 -0800";
layers = (
{
layerId = "3D86ED3E-BC30-4996-8F23-7FA448982149";
name = Regular;
paths = (
{
closed = 1;
nodes = (
"1760 1536 LINE",
"1977 1536 LINE",
"1152 0 LINE",
"896 0 LINE",
"68 1536 LINE",
"288 1536 LINE",
"1064 60 LINE",
"984 60 LINE"
);
}
);
width = 2048;
}
);
unicode = 0056;
},
{
glyphname = W;
lastChange = "2014-03-17 19:14:17 -0800";
layers = (
{
layerId = "3D86ED3E-BC30-4996-8F23-7FA448982149";
name = Regular;
paths = (
{
closed = 1;
nodes = (
"1584 1536 LINE",
"1808 1536 LINE",
"2468 83 LINE",
"2397 83 LINE",
"3030 1536 LINE",
"3251 1536 LINE",
"2560 0 LINE",
"2304 0 LINE",
"1660 1423 LINE",
"1732 1423 LINE",
"1088 0 LINE",
"832 0 LINE",
"77 1536 LINE",
"298 1536 LINE",
"998 84 LINE",
"924 83 LINE"
);
}
);
width = 3328;
}
);
unicode = 0057;
},
{
glyphname = X;
layers = (
{
layerId = "3D86ED3E-BC30-4996-8F23-7FA448982149";
name = Regular;
paths = (
{
closed = 1;
nodes = (
"1209 810 LINE",
"2112 0 LINE",
"1840 0 LINE",
"1075 686 LINE",
"336 0 LINE",
"64 0 LINE",
"937 810 LINE",
"128 1536 LINE",
"400 1536 LINE",
"1070 934 LINE",
"1719 1536 LINE",
"1991 1536 LINE"
);
}
);
width = 2176;
}
);
unicode = 0058;
},
{
glyphname = Y;
lastChange = "2014-03-17 16:00:15 -0800";
layers = (
{
layerId = "3D86ED3E-BC30-4996-8F23-7FA448982149";
name = Regular;
paths = (
{
closed = 1;
nodes = (
"128 1536 LINE",
"384 1536 LINE",
"1088 784 LINE",
"1792 1536 LINE",
"2048 1536 LINE",
"1184 640 LINE",
"1184 0 LINE",
"992 0 LINE",
"992 640 LINE"
);
}
);
width = 2176;
}
);
unicode = 0059;
},
{
glyphname = Z;
layers = (
{
layerId = "3D86ED3E-BC30-4996-8F23-7FA448982149";
name = Regular;
paths = (
{
closed = 1;
nodes = (
"128 0 LINE",
"128 160 LINE",
"1614 1376 LINE",
"192 1376 LINE",
"192 1536 LINE",
"1888 1536 LINE",
"1888 1376 LINE",
"394 160 LINE",
"1920 160 LINE",
"1920 0 LINE"
);
}
);
width = 2046;
}
);
unicode = 005A;
},
{
glyphname = a;
lastChange = "2014-03-17 19:41:29 -0800";
layers = (
{
layerId = "3D86ED3E-BC30-4996-8F23-7FA448982149";
name = Regular;
paths = (
{
closed = 1;
nodes = (
"736 669 CURVE SMOOTH",
"1299 669 OFFCURVE",
"1269 573 OFFCURVE",
"1301 460 CURVE",
"1244 448 LINE",
"1247 987 OFFCURVE",
"1242 1024 OFFCURVE",
"813 1024 CURVE SMOOTH",
"386 1024 OFFCURVE",
"369 996 OFFCURVE",
"369 852 CURVE",
"177 852 LINE",
"177 1141 OFFCURVE",
"312 1184 OFFCURVE",
"813 1184 CURVE SMOOTH",
"1352 1184 OFFCURVE",
"1436 1072 OFFCURVE",
"1436 554 CURVE SMOOTH",
"1436 0 LINE",
"1244 0 LINE",
"1244 224 LINE",
"1311 211 LINE",
"1259 41 OFFCURVE",
"1190 -22 OFFCURVE",
"736 -22 CURVE SMOOTH",
"321 -22 OFFCURVE",
"129 13 OFFCURVE",
"129 321 CURVE SMOOTH",
"129 634 OFFCURVE",
"302 669 OFFCURVE"
);
},
{
closed = 1;
nodes = (
"375 134 OFFCURVE",
"736 134 CURVE SMOOTH",
"1193 134 OFFCURVE",
"1244 139 OFFCURVE",
"1244 330 CURVE SMOOTH",
"1244 504 OFFCURVE",
"1193 513 OFFCURVE",
"736 513 CURVE SMOOTH",
"375 513 OFFCURVE",
"321 500 OFFCURVE",
"321 321 CURVE SMOOTH",
"321 147 OFFCURVE"
);
}
);
width = 1560;
}
);
unicode = 0061;
},
{
glyphname = ainvertedbreve;
layers = (
{
components = (
{
name = a;
transform = "{1, 0, 0, 1, 5, 0}";
}
);
layerId = "3D86ED3E-BC30-4996-8F23-7FA448982149";
name = Regular;
paths = (
{
closed = 1;
nodes = (
"450 1242 LINE",
"450 1477 OFFCURVE",
"591 1562 OFFCURVE",
"834 1562 CURVE SMOOTH",
"1077 1562 OFFCURVE",
"1218 1478 OFFCURVE",
"1218 1242 CURVE",
"1058 1242 LINE",
"1058 1328 OFFCURVE",
"1037 1384 OFFCURVE",
"994 1410 CURVE SMOOTH",
"967 1426 OFFCURVE",
"914 1434 OFFCURVE",
"834 1434 CURVE SMOOTH",
"754 1434 OFFCURVE",
"702 1427 OFFCURVE",
"679 1413 CURVE SMOOTH",
"633 1385 OFFCURVE",
"610 1328 OFFCURVE",
"610 1242 CURVE"
);
}
);
width = 1600;
}
);
unicode = 0203;
},
{
glyphname = ae;
layers = (
{
layerId = "3D86ED3E-BC30-4996-8F23-7FA448982149";
name = Regular;
paths = (
{
closed = 1;
nodes = (
"1382 896 CURVE",
"1465 1071 OFFCURVE",
"1657 1120 OFFCURVE",
"1925 1120 CURVE SMOOTH",
"2056 1120 OFFCURVE",
"2155 1114 OFFCURVE",
"2222 1102 CURVE SMOOTH",
"2500 1051 OFFCURVE",
"2624 907 OFFCURVE",
"2624 576 CURVE",
"2608 512 LINE",
"1472 512 LINE",
"1472 486 LINE",
"1474 337 OFFCURVE",
"1500 237 OFFCURVE",
"1590 184 CURVE SMOOTH",
"1683 129 OFFCURVE",
"1821 128 OFFCURVE",
"1980 128 CURVE SMOOTH",
"2071 128 OFFCURVE",
"2144 131 OFFCURVE",
"2202 136 CURVE SMOOTH",
"2340 148 OFFCURVE",
"2432 177 OFFCURVE",
"2432 320 CURVE",
"2624 320 LINE",
"2624 191 OFFCURVE",
"2577 100 OFFCURVE",
"2484 48 CURVE SMOOTH",
"2389 -5 OFFCURVE",
"2232 -32 OFFCURVE",
"2016 -32 CURVE SMOOTH",
"1732 -32 OFFCURVE",
"1500 -7 OFFCURVE",
"1382 145 CURVE",
"1314 56 OFFCURVE",
"1182 -1 OFFCURVE",
"984 -26 CURVE SMOOTH",
"931 -33 OFFCURVE",
"856 -36 OFFCURVE",
"762 -36 CURVE SMOOTH",
"459 -36 OFFCURVE",
"128 8 OFFCURVE",
"128 293 CURVE SMOOTH",
"128 453 OFFCURVE",
"187 558 OFFCURVE",
"304 606 CURVE SMOOTH",
"375 635 OFFCURVE",
"454 651 OFFCURVE",
"542 654 CURVE SMOOTH",
"630 657 OFFCURVE",
"703 659 OFFCURVE",
"763 659 CURVE SMOOTH",
"958 659 OFFCURVE",
"1211 634 OFFCURVE",
"1280 544 CURVE",
"1280 764 OFFCURVE",
"1254 893 OFFCURVE",
"1100 938 CURVE SMOOTH",
"1049 953 OFFCURVE",
"970 960 OFFCURVE",
"863 960 CURVE SMOOTH",
"756 960 OFFCURVE",
"673 957 OFFCURVE",
"615 952 CURVE SMOOTH",
"477 940 OFFCURVE",
"384 911 OFFCURVE",
"384 768 CURVE",
"192 768 LINE",
"192 897 OFFCURVE",
"238 988 OFFCURVE",
"332 1040 CURVE SMOOTH",
"428 1093 OFFCURVE",
"596 1120 OFFCURVE",
"834 1120 CURVE SMOOTH",
"987 1120 OFFCURVE",
"1093 1109 OFFCURVE",
"1153 1088 CURVE SMOOTH",
"1269 1046 OFFCURVE",
"1329 997 OFFCURVE"
);
},
{
closed = 1;
nodes = (
"564 136 CURVE SMOOTH",
"632 131 OFFCURVE",
"716 128 OFFCURVE",
"814 128 CURVE SMOOTH",
"975 128 OFFCURVE",
"1087 131 OFFCURVE",
"1184 176 CURVE SMOOTH",
"1248 206 OFFCURVE",
"1280 254 OFFCURVE",
"1280 320 CURVE SMOOTH",
"1280 385 OFFCURVE",
"1244 430 OFFCURVE",
"1170 456 CURVE SMOOTH",
"1094 483 OFFCURVE",
"961 496 OFFCURVE",
"770 496 CURVE SMOOTH",
"574 496 OFFCURVE",
"455 488 OFFCURVE",
"414 473 CURVE SMOOTH",
"340 445 OFFCURVE",
"320 413 OFFCURVE",
"320 320 CURVE SMOOTH",
"320 232 OFFCURVE",
"342 190 OFFCURVE",
"409 164 CURVE SMOOTH",
"445 150 OFFCURVE",
"496 141 OFFCURVE"
);
},
{
closed = 1;
nodes = (
"1972 960 CURVE SMOOTH",
"1756 960 OFFCURVE",
"1559 960 OFFCURVE",
"1498 812 CURVE SMOOTH",
"1481 770 OFFCURVE",
"1472 712 OFFCURVE",
"1472 640 CURVE",
"2432 640 LINE",
"2432 764 OFFCURVE",
"2397 850 OFFCURVE",
"2328 896 CURVE SMOOTH",
"2264 939 OFFCURVE",
"2145 960 OFFCURVE"
);
}
);
width = 2752;
}
);
unicode = 00E6;
},
{
glyphname = b;
layers = (
{
layerId = "3D86ED3E-BC30-4996-8F23-7FA448982149";
name = Regular;
paths = (
{
closed = 1;
nodes = (
"324 0 LINE",
"132 0 LINE",
"132 1536 LINE",
"324 1536 LINE"
);
},
{
closed = 1;
nodes = (
"225 582 LINE",
"225 1115 OFFCURVE",
"421 1184 OFFCURVE",
"837 1184 CURVE",
"837 1024 LINE",
"403 1024 OFFCURVE",
"324 972 OFFCURVE",
"324 582 CURVE"
);
},
{
closed = 1;
nodes = (
"324 186 OFFCURVE",
"403 138 OFFCURVE",
"837 138 CURVE",
"837 -22 LINE",
"421 -22 OFFCURVE",
"225 43 OFFCURVE",
"225 582 CURVE",
"324 582 LINE"
);
},
{
closed = 1;
nodes = (
"1350 972 OFFCURVE",
"1313 1024 OFFCURVE",
"837 1024 CURVE",
"837 1184 LINE",
"1353 1184 OFFCURVE",
"1542 1115 OFFCURVE",
"1542 582 CURVE",
"1350 582 LINE"
);
},
{
closed = 1;
nodes = (
"1542 582 LINE",
"1542 43 OFFCURVE",
"1353 -22 OFFCURVE",
"837 -22 CURVE",
"837 138 LINE",
"1313 138 OFFCURVE",
"1350 186 OFFCURVE",
"1350 582 CURVE"
);
}
);
width = 1638;
}
);
unicode = 0062;
},
{
glyphname = c;
layers = (
{
layerId = "3D86ED3E-BC30-4996-8F23-7FA448982149";
name = Regular;
paths = (
{
closed = 1;
nodes = (
"96 582 LINE",
"96 1115 OFFCURVE",
"285 1184 OFFCURVE",
"801 1184 CURVE",
"801 1024 LINE",
"325 1024 OFFCURVE",
"288 972 OFFCURVE",
"288 582 CURVE"
);
},
{
closed = 1;
nodes = (
"288 186 OFFCURVE",
"325 138 OFFCURVE",
"801 138 CURVE",
"801 -22 LINE",
"285 -22 OFFCURVE",
"96 43 OFFCURVE",
"96 582 CURVE",
"288 582 LINE"
);
},
{
closed = 1;
nodes = (
"1291 789 LINE",
"1291 992 OFFCURVE",
"1197 1024 OFFCURVE",
"801 1024 CURVE",
"801 1184 LINE",
"1263 1184 OFFCURVE",
"1475 1134 OFFCURVE",
"1475 789 CURVE"
);
},
{
closed = 1;
nodes = (
"1475 384 LINE",
"1475 26 OFFCURVE",
"1268 -22 OFFCURVE",
"801 -22 CURVE",
"801 138 LINE",
"1204 138 OFFCURVE",
"1291 169 OFFCURVE",
"1291 384 CURVE"
);
}
);
width = 1571;
}
);
unicode = 0063;
},
{
glyphname = ccedilla;
layers = (
{
layerId = "3D86ED3E-BC30-4996-8F23-7FA448982149";
name = Regular;
paths = (
{
closed = 1;
nodes = (
"1088 -288 CURVE SMOOTH",
"1088 -411 OFFCURVE",
"1038 -465 OFFCURVE",
"951 -508 CURVE SMOOTH",
"904 -532 OFFCURVE",
"821 -544 OFFCURVE",
"704 -544 CURVE",
"704 -384 LINE",
"779 -384 OFFCURVE",
"827 -380 OFFCURVE",
"848 -372 CURVE SMOOTH",
"876 -361 OFFCURVE",
"896 -336 OFFCURVE",
"896 -300 CURVE SMOOTH",
"896 -284 OFFCURVE",
"895 -272 OFFCURVE",
"893 -264 CURVE SMOOTH",
"886 -237 OFFCURVE",
"823 -224 OFFCURVE",
"704 -224 CURVE",
"704 -29 LINE",
"443 -17 OFFCURVE",
"264 25 OFFCURVE",
"182 196 CURVE SMOOTH",
"146 272 OFFCURVE",
"128 388 OFFCURVE",
"128 544 CURVE SMOOTH",
"128 700 OFFCURVE",
"146 816 OFFCURVE",
"182 892 CURVE SMOOTH",
"222 977 OFFCURVE",
"293 1036 OFFCURVE",
"394 1070 CURVE SMOOTH",
"492 1103 OFFCURVE",
"638 1120 OFFCURVE",
"833 1120 CURVE SMOOTH",
"1080 1120 OFFCURVE",
"1251 1087 OFFCURVE",
"1345 1020 CURVE SMOOTH",
"1437 955 OFFCURVE",
"1473 856 OFFCURVE",
"1473 704 CURVE",
"1281 704 LINE",
"1281 870 OFFCURVE",
"1250 898 OFFCURVE",
"1121 937 CURVE SMOOTH",
"1070 952 OFFCURVE",
"974 960 OFFCURVE",
"833 960 CURVE SMOOTH",
"664 960 OFFCURVE",
"544 948 OFFCURVE",
"473 924 CURVE SMOOTH",
"399 899 OFFCURVE",
"361 861 OFFCURVE",
"338 786 CURVE SMOOTH",
"327 750 OFFCURVE",
"321 669 OFFCURVE",
"321 544 CURVE SMOOTH",
"321 419 OFFCURVE",
"327 336 OFFCURVE",
"340 294 CURVE SMOOTH",
"374 181 OFFCURVE",
"477 150 OFFCURVE",
"618 136 CURVE SMOOTH",
"676 130 OFFCURVE",
"762 128 OFFCURVE",
"875 128 CURVE SMOOTH",
"988 128 OFFCURVE",
"1079 138 OFFCURVE",
"1148 159 CURVE SMOOTH",
"1181 169 OFFCURVE",
"1207 181 OFFCURVE",
"1225 196 CURVE SMOOTH",
"1275 237 OFFCURVE",
"1281 274 OFFCURVE",
"1281 384 CURVE",
"1473 384 LINE",
"1473 232 OFFCURVE",
"1437 133 OFFCURVE",
"1345 68 CURVE SMOOTH",
"1251 1 OFFCURVE",
"1080 -32 OFFCURVE",
"833 -32 CURVE SMOOTH",
"832 -32 LINE",
"832 -128 LINE",
"1003 -128 OFFCURVE",
"1088 -181 OFFCURVE"
);
}
);
width = 1601;
}
);
unicode = 00E7;
},
{
glyphname = d;
layers = (
{
layerId = "3D86ED3E-BC30-4996-8F23-7FA448982149";
name = Regular;
paths = (
{
closed = 1;
nodes = (
"1506 1536 LINE",
"1506 0 LINE",
"1314 0 LINE",
"1314 1536 LINE"
);
},
{
closed = 1;
nodes = (
"1314 972 OFFCURVE",
"1235 1024 OFFCURVE",
"801 1024 CURVE",
"801 1184 LINE",
"1217 1184 OFFCURVE",
"1413 1115 OFFCURVE",
"1413 582 CURVE",
"1314 582 LINE"
);
},
{
closed = 1;
nodes = (
"1413 582 LINE",
"1413 43 OFFCURVE",
"1217 -22 OFFCURVE",
"801 -22 CURVE",
"801 138 LINE",
"1235 138 OFFCURVE",
"1314 186 OFFCURVE",
"1314 582 CURVE"
);
},
{
closed = 1;
nodes = (
"96 582 LINE",
"96 1115 OFFCURVE",
"285 1184 OFFCURVE",
"801 1184 CURVE",
"801 1024 LINE",
"325 1024 OFFCURVE",
"288 972 OFFCURVE",
"288 582 CURVE"
);
},
{
closed = 1;
nodes = (
"288 186 OFFCURVE",
"325 138 OFFCURVE",
"801 138 CURVE",
"801 -22 LINE",
"285 -22 OFFCURVE",
"96 43 OFFCURVE",
"96 582 CURVE",
"288 582 LINE"
);
}
);
width = 1638;
}
);
unicode = 0064;
},
{
glyphname = eth;
layers = (
{
layerId = "3D86ED3E-BC30-4996-8F23-7FA448982149";
name = Regular;
paths = (
{
closed = 1;
nodes = (
"1856 768 CURVE SMOOTH",
"1856 677 OFFCURVE",
"1854 595 OFFCURVE",
"1852 520 CURVE SMOOTH",
"1845 297 OFFCURVE",
"1793 134 OFFCURVE",
"1648 54 CURVE SMOOTH",
"1544 -4 OFFCURVE",
"1378 -32 OFFCURVE",
"1152 -32 CURVE SMOOTH",
"831 -32 LINE SMOOTH",
"556 -32 OFFCURVE",
"367 8 OFFCURVE",
"264 88 CURVE SMOOTH",
"165 165 OFFCURVE",
"128 278 OFFCURVE",
"128 448 CURVE SMOOTH",
"128 528 OFFCURVE",
"138 598 OFFCURVE",
"157 658 CURVE SMOOTH",
"227 876 OFFCURVE",
"495 928 OFFCURVE",
"794 928 CURVE SMOOTH",
"913 928 OFFCURVE",
"1010 928 OFFCURVE",
"1083 926 CURVE SMOOTH",
"1380 919 OFFCURVE",
"1574 888 OFFCURVE",
"1664 832 CURVE",
"1664 957 OFFCURVE",
"1653 1059 OFFCURVE",
"1631 1136 CURVE",
"1324 1026 LINE",
"1281 1146 LINE",
"1579 1253 LINE",
"1526 1331 OFFCURVE",
"1463 1363 OFFCURVE",
"1351 1388 CURVE SMOOTH",
"1292 1401 OFFCURVE",
"1183 1408 OFFCURVE",
"1024 1408 CURVE SMOOTH",
"820 1408 OFFCURVE",
"668 1395 OFFCURVE",
"566 1369 CURVE SMOOTH",
"516 1356 OFFCURVE",
"477 1341 OFFCURVE",
"448 1324 CURVE SMOOTH",
"380 1283 OFFCURVE",
"352 1238 OFFCURVE",
"352 1120 CURVE",
"193 1120 LINE",
"193 1224 OFFCURVE",
"213 1306 OFFCURVE",
"252 1364 CURVE SMOOTH",
"375 1547 OFFCURVE",
"693 1568 OFFCURVE",
"1006 1568 CURVE SMOOTH",
"1112 1568 OFFCURVE",
"1203 1563 OFFCURVE",
"1278 1553 CURVE SMOOTH",
"1497 1524 OFFCURVE",
"1650 1443 OFFCURVE",
"1739 1311 CURVE",
"2004 1406 LINE",
"2047 1286 LINE",
"1796 1196 LINE",
"1836 1090 OFFCURVE",
"1856 947 OFFCURVE"
);
},
{
closed = 1;
nodes = (
"500 742 CURVE SMOOTH",
"422 723 OFFCURVE",
"381 696 OFFCURVE",
"346 632 CURVE SMOOTH",
"328 600 OFFCURVE",
"320 538 OFFCURVE",
"320 448 CURVE SMOOTH",
"320 244 OFFCURVE",
"364 188 OFFCURVE",
"524 148 CURVE SMOOTH",
"578 135 OFFCURVE",
"680 128 OFFCURVE",
"831 128 CURVE SMOOTH",
"1152 128 LINE SMOOTH",
"1328 128 OFFCURVE",
"1474 132 OFFCURVE",
"1566 200 CURVE SMOOTH",
"1648 261 OFFCURVE",
"1664 364 OFFCURVE",
"1664 514 CURVE SMOOTH",
"1664 595 OFFCURVE",
"1647 651 OFFCURVE",
"1613 682 CURVE SMOOTH",
"1561 730 OFFCURVE",
"1478 744 OFFCURVE",
"1376 754 CURVE SMOOTH",
"1233 768 OFFCURVE",
"1045 768 OFFCURVE",
"876 768 CURVE SMOOTH",
"868 768 LINE SMOOTH",
"821 768 LINE SMOOTH",
"686 768 OFFCURVE",
"601 767 OFFCURVE"
);
}
);
width = 1984;
}
);
unicode = 00F0;
},
{
glyphname = dcroat;
layers = (
{
layerId = "3D86ED3E-BC30-4996-8F23-7FA448982149";
name = Regular;
paths = (
{
closed = 1;
nodes = (
"778 1120 CURVE SMOOTH",
"1021 1120 OFFCURVE",
"1270 1093 OFFCURVE",
"1344 960 CURVE",
"1344 1249 LINE",
"896 1249 LINE",
"896 1409 LINE",
"1344 1409 LINE",
"1344 1536 LINE",
"1536 1536 LINE",
"1536 1409 LINE",
"1664 1409 LINE",
"1664 1249 LINE",
"1536 1249 LINE",
"1536 0 LINE",
"1344 0 LINE",
"1344 127 LINE",
"1285 21 OFFCURVE",
"1114 -32 OFFCURVE",
"832 -32 CURVE SMOOTH",
"494 -32 OFFCURVE",
"250 19 OFFCURVE",
"166 265 CURVE SMOOTH",
"141 339 OFFCURVE",
"128 432 OFFCURVE",
"128 544 CURVE SMOOTH",
"128 870 OFFCURVE",
"236 1039 OFFCURVE",
"506 1093 CURVE SMOOTH",
"595 1111 OFFCURVE",
"686 1120 OFFCURVE"
);
},
{
closed = 1;
nodes = (
"408 204 CURVE SMOOTH",
"497 132 OFFCURVE",
"658 128 OFFCURVE",
"824 128 CURVE SMOOTH",
"826 128 LINE SMOOTH",
"1039 128 OFFCURVE",
"1221 128 OFFCURVE",
"1296 264 CURVE SMOOTH",
"1328 322 OFFCURVE",
"1344 415 OFFCURVE",
"1344 541 CURVE SMOOTH",
"1344 770 OFFCURVE",
"1306 895 OFFCURVE",
"1135 938 CURVE SMOOTH",
"1076 953 OFFCURVE",
"992 960 OFFCURVE",
"883 960 CURVE SMOOTH",
"774 960 OFFCURVE",
"692 958 OFFCURVE",
"638 954 CURVE SMOOTH",
"499 943 OFFCURVE",
"395 911 OFFCURVE",
"352 808 CURVE SMOOTH",
"330 756 OFFCURVE",
"320 669 OFFCURVE",
"320 544 CURVE SMOOTH",
"320 419 OFFCURVE",
"329 336 OFFCURVE",
"346 295 CURVE SMOOTH",
"363 254 OFFCURVE",
"384 223 OFFCURVE"
);
}
);
width = 1664;
}
);
unicode = 0111;
},
{
glyphname = e;
lastChange = "2014-03-17 16:28:55 -0800";
layers = (
{
layerId = "3D86ED3E-BC30-4996-8F23-7FA448982149";
name = Regular;
paths = (
{
closed = 1;
nodes = (
"96 582 LINE",
"96 1115 OFFCURVE",
"277 1184 OFFCURVE",
"793 1184 CURVE",
"793 1024 LINE",
"317 1024 OFFCURVE",
"288 972 OFFCURVE",
"288 582 CURVE"
);
},
{
closed = 1;
nodes = (
"288 186 OFFCURVE",
"322 138 OFFCURVE",
"798 138 CURVE",
"798 -22 LINE",
"282 -22 OFFCURVE",
"96 43 OFFCURVE",
"96 582 CURVE",
"288 582 LINE"
);
},
{
closed = 1;
nodes = (
"1447 597 LINE",
"1263 597 LINE",
"1263 770 LINE",
"1263 973 OFFCURVE",
"1203 1024 OFFCURVE",
"793 1024 CURVE",
"793 1184 LINE",
"1235 1184 OFFCURVE",
"1447 1115 OFFCURVE",
"1447 770 CURVE"
);
},
{
closed = 1;
nodes = (
"1447 342 LINE",
"1447 -2 OFFCURVE",
"1248 -22 OFFCURVE",
"798 -22 CURVE",
"798 138 LINE",
"1204 138 OFFCURVE",
"1268 157 OFFCURVE",
"1268 342 CURVE"
);
},
{
closed = 1;
nodes = (
"1447 674 LINE",
"1447 523 LINE",
"198 523 LINE",
"198 674 LINE"
);
}
);
width = 1567;
}
);
unicode = 0065;
},
{
glyphname = einvertedbreve;
layers = (
{
components = (
{
name = e;
transform = "{1, 0, 0, 1, 32, 0}";
}
);
layerId = "3D86ED3E-BC30-4996-8F23-7FA448982149";
name = Regular;
paths = (
{
closed = 1;
nodes = (
"448 1242 LINE",
"448 1477 OFFCURVE",
"589 1562 OFFCURVE",
"832 1562 CURVE SMOOTH",
"1075 1562 OFFCURVE",
"1216 1478 OFFCURVE",
"1216 1242 CURVE",
"1056 1242 LINE",
"1056 1328 OFFCURVE",
"1035 1384 OFFCURVE",
"992 1410 CURVE SMOOTH",
"965 1426 OFFCURVE",
"912 1434 OFFCURVE",
"832 1434 CURVE SMOOTH",
"752 1434 OFFCURVE",
"700 1427 OFFCURVE",
"677 1413 CURVE SMOOTH",
"631 1385 OFFCURVE",
"608 1328 OFFCURVE",
"608 1242 CURVE"
);
}
);
width = 1600;
}
);
unicode = 0207;
},
{
glyphname = f;
lastChange = "2014-03-17 17:34:03 -0800";
layers = (
{
layerId = "3D86ED3E-BC30-4996-8F23-7FA448982149";
name = Regular;
paths = (
{
closed = 1;
nodes = (
"512 1006 LINE",
"512 0 LINE",
"320 0 LINE",
"320 1006 LINE",
"128 1006 LINE",
"128 1152 LINE",
"320 1152 LINE",
"320 1202 LINE SMOOTH",
"320 1530 OFFCURVE",
"474 1608 OFFCURVE",
"833 1608 CURVE SMOOTH",
"1056 1608 LINE",
"1056 1452 LINE",
"832 1452 LINE SMOOTH",
"546 1452 OFFCURVE",
"512 1415 OFFCURVE",
"512 1202 CURVE SMOOTH",
"512 1152 LINE",
"1056 1152 LINE",
"1056 1006 LINE"
);
}
);
width = 1056;
}
);
unicode = 0066;
},
{
glyphname = g;
lastChange = "2014-03-17 16:29:40 -0800";
layers = (
{
layerId = "3D86ED3E-BC30-4996-8F23-7FA448982149";
name = Regular;
paths = (
{
closed = 1;
nodes = (
"1288 272 LINE",
"1480 272 LINE",
"1480 162 LINE SMOOTH",
"1480 -381 OFFCURVE",
"1254 -439 OFFCURVE",
"835 -439 CURVE SMOOTH",
"427 -439 OFFCURVE",
"153 -423 OFFCURVE",
"153 -137 CURVE",
"345 -137 LINE",
"345 -278 OFFCURVE",
"508 -279 OFFCURVE",
"835 -279 CURVE SMOOTH",
"1157 -279 OFFCURVE",
"1288 -282 OFFCURVE",
"1288 130 CURVE"
);
},
{
closed = 1;
nodes = (
"1480 1152 LINE",
"1480 122 LINE",
"1288 122 LINE",
"1288 1152 LINE"
);
},
{
closed = 1;
nodes = (
"1288 974 OFFCURVE",
"1226 1024 OFFCURVE",
"792 1024 CURVE",
"792 1184 LINE",
"1208 1184 OFFCURVE",
"1387 1117 OFFCURVE",
"1387 584 CURVE",
"1288 584 LINE"
);
},
{
closed = 1;
nodes = (
"1387 584 LINE",
"1387 93 OFFCURVE",
"1208 9 OFFCURVE",
"792 9 CURVE",
"792 169 LINE",
"1226 169 OFFCURVE",
"1288 236 OFFCURVE",
"1288 584 CURVE"
);
},
{
closed = 1;
nodes = (
"100 584 LINE",
"100 1117 OFFCURVE",
"293 1184 OFFCURVE",
"792 1184 CURVE",
"792 1024 LINE",
"333 1024 OFFCURVE",
"292 974 OFFCURVE",
"292 584 CURVE"
);
},
{
closed = 1;
nodes = (
"292 236 OFFCURVE",
"332 169 OFFCURVE",
"792 169 CURVE",
"792 9 LINE",
"292 9 OFFCURVE",
"100 93 OFFCURVE",
"100 584 CURVE",
"292 584 LINE"
);
}
);
width = 1612;
}
);
unicode = 0067;
},
{
glyphname = h;
lastChange = "2014-03-17 19:23:35 -0800";
layers = (
{
layerId = "3D86ED3E-BC30-4996-8F23-7FA448982149";
name = Regular;
paths = (
{
closed = 1;
nodes = (
"1284 0 LINE",
"1284 663 LINE SMOOTH",
"1284 978 OFFCURVE",
"1195 1024 OFFCURVE",
"846 1024 CURVE SMOOTH",
"446 1024 OFFCURVE",
"324 930 OFFCURVE",
"324 704 CURVE SMOOTH",
"324 0 LINE",
"132 0 LINE",
"132 1536 LINE",
"324 1536 LINE",
"324 923 LINE",
"300 974 LINE",
"389 1113 OFFCURVE",
"501 1184 OFFCURVE",
"880 1184 CURVE SMOOTH",
"1332 1184 OFFCURVE",
"1478 1077 OFFCURVE",
"1477 663 CURVE SMOOTH",
"1476 0 LINE"
);
}
);
width = 1603;
}
);
unicode = 0068;
},
{
glyphname = hbar;
layers = (
{
layerId = "3D86ED3E-BC30-4996-8F23-7FA448982149";
name = Regular;
paths = (
{
closed = 1;
nodes = (
"320 970 LINE",
"381 1113 OFFCURVE",
"573 1184 OFFCURVE",
"896 1184 CURVE SMOOTH",
"1138 1184 OFFCURVE",
"1298 1138 OFFCURVE",
"1377 1047 CURVE SMOOTH",
"1454 958 OFFCURVE",
"1473 820 OFFCURVE",
"1473 650 CURVE SMOOTH",
"1472 0 LINE",
"1280 0 LINE",
"1280 650 LINE SMOOTH",
"1280 782 OFFCURVE",
"1267 879 OFFCURVE",
"1200 941 CURVE SMOOTH",
"1140 996 OFFCURVE",
"1017 1024 OFFCURVE",
"832 1024 CURVE SMOOTH",
"551 1024 OFFCURVE",
"388 963 OFFCURVE",
"342 841 CURVE SMOOTH",
"328 803 OFFCURVE",
"320 761 OFFCURVE",
"320 714 CURVE SMOOTH",
"320 0 LINE",
"128 0 LINE",
"128 1536 LINE",
"320 1536 LINE"
);
}
);
width = 1601;
}
);
unicode = 0127;
},
{
glyphname = i;
lastChange = "2014-03-17 16:01:01 -0800";
layers = (
{
layerId = "3D86ED3E-BC30-4996-8F23-7FA448982149";
name = Regular;
paths = (
{
closed = 1;
nodes = (
"198 1152 LINE",
"390 1152 LINE",
"390 0 LINE",
"198 0 LINE"
);
},
{
closed = 1;
nodes = (
"390 1344 LINE",
"198 1344 LINE",
"198 1536 LINE",
"390 1536 LINE"
);
}
);
width = 582;
}
);
unicode = 0069;
},
{
glyphname = dotlessi;
layers = (
{
layerId = "3D86ED3E-BC30-4996-8F23-7FA448982149";
name = Regular;
paths = (
{
closed = 1;
nodes = (
"128 0 LINE",
"128 1088 LINE",
"320 1088 LINE",
"320 0 LINE"
);
}
);
width = 448;
}
);
unicode = 0131;
},
{
glyphname = iinvertedbreve;
layers = (
{
components = (
{
name = dotlessi;
transform = "{1, 0, 0, 1, 0, 0}";
}
);
layerId = "3D86ED3E-BC30-4996-8F23-7FA448982149";
name = Regular;
paths = (
{
closed = 1;
nodes = (
"-159 1242 LINE",
"-159 1477 OFFCURVE",
"-18 1562 OFFCURVE",
"225 1562 CURVE SMOOTH",
"468 1562 OFFCURVE",
"609 1478 OFFCURVE",
"609 1242 CURVE",
"449 1242 LINE",
"449 1328 OFFCURVE",
"428 1384 OFFCURVE",
"385 1410 CURVE SMOOTH",
"358 1426 OFFCURVE",
"305 1434 OFFCURVE",
"225 1434 CURVE SMOOTH",
"145 1434 OFFCURVE",
"93 1427 OFFCURVE",
"70 1413 CURVE SMOOTH",
"24 1385 OFFCURVE",
"1 1328 OFFCURVE",
"1 1242 CURVE"
);
}
);
width = 448;
}
);
unicode = 020B;
},
{
glyphname = j;
layers = (
{
layerId = "3D86ED3E-BC30-4996-8F23-7FA448982149";
name = Regular;
paths = (
{
closed = 1;
nodes = (
"-37 -384 LINE",
"-37 -224 LINE",
"108 -224 LINE",
"237 -224 OFFCURVE",
"288 -193 OFFCURVE",
"288 -24 CURVE SMOOTH",
"288 1152 LINE",
"480 1152 LINE",
"480 -24 LINE SMOOTH",
"480 -266 OFFCURVE",
"382 -384 OFFCURVE",
"108 -384 CURVE"
);
},
{
closed = 1;
nodes = (
"480 1344 LINE",
"288 1344 LINE",
"288 1536 LINE",
"480 1536 LINE"
);
}
);
width = 672;
}
);
unicode = 006A;
},
{
glyphname = dotlessj;
layers = (
{
layerId = "3D86ED3E-BC30-4996-8F23-7FA448982149";
name = Regular;
paths = (
{
closed = 1;
nodes = (
"288 -64 CURVE SMOOTH",
"288 1088 LINE",
"480 1088 LINE",
"480 -64 LINE SMOOTH",
"480 -165 OFFCURVE",
"471 -243 OFFCURVE",
"424 -298 CURVE SMOOTH",
"374 -356 OFFCURVE",
"275 -384 OFFCURVE",
"128 -384 CURVE",
"128 -224 LINE",
"257 -224 OFFCURVE",
"288 -193 OFFCURVE"
);
}
);
width = 608;
}
);
unicode = 0237;
},
{
glyphname = k;
lastChange = "2014-03-17 16:01:56 -0800";
layers = (
{
layerId = "3D86ED3E-BC30-4996-8F23-7FA448982149";
name = Regular;
paths = (
{
closed = 1;
nodes = (
"134 1536 LINE",
"326 1536 LINE",
"326 562 LINE",
"253 601 LINE",
"1091 1152 LINE",
"1382 1152 LINE",
"494 561 LINE",
"496 664 LINE",
"1414 0 LINE",
"1128 0 LINE",
"257 642 LINE",
"326 676 LINE",
"326 0 LINE",
"134 0 LINE"
);
}
);
width = 1414;
}
);
unicode = 006B;
},
{
glyphname = kgreenlandic;
layers = (
{
layerId = "3D86ED3E-BC30-4996-8F23-7FA448982149";
name = Regular;
paths = (
{
closed = 1;
nodes = (
"128 0 LINE",
"128 1536 LINE",
"320 1536 LINE",
"320 656 LINE",
"384 656 LINE",
"1088 1088 LINE",
"1376 1088 LINE",
"560 576 LINE",
"1408 0 LINE",
"1120 0 LINE",
"384 512 LINE",
"320 512 LINE",
"320 0 LINE"
);
}
);
width = 1408;
}
);
unicode = 0138;
},
{
glyphname = l;
layers = (
{
layerId = "3D86ED3E-BC30-4996-8F23-7FA448982149";
name = Regular;
paths = (
{
closed = 1;
nodes = (
"192 1536 LINE",
"384 1536 LINE",
"384 0 LINE",
"192 0 LINE"
);
}
);
width = 576;
}
);
unicode = 006C;
},
{
glyphname = lslash;
layers = (
{
layerId = "3D86ED3E-BC30-4996-8F23-7FA448982149";
name = Regular;
paths = (
{
closed = 1;
nodes = (
"0 768 LINE",
"0 928 LINE",
"576 1088 LINE",
"576 928 LINE"
);
},
{
closed = 1;
nodes = (
"128 0 LINE",
"128 1536 LINE",
"320 1536 LINE",
"320 0 LINE"
);
}
);
width = 512;
}
);
unicode = 0142;
},
{
glyphname = m;
lastChange = "2014-03-17 19:24:15 -0800";
layers = (
{
layerId = "3D86ED3E-BC30-4996-8F23-7FA448982149";
name = Regular;
paths = (
{
closed = 1;
nodes = (
"1145 0 LINE",
"1145 640 LINE SMOOTH",
"1145 955 OFFCURVE",
"1056 1024 OFFCURVE",
"796 1024 CURVE SMOOTH",
"456 1024 OFFCURVE",
"324 930 OFFCURVE",
"324 704 CURVE SMOOTH",
"324 0 LINE",
"132 0 LINE",
"132 1152 LINE",
"324 1152 LINE",
"324 923 LINE",
"300 974 LINE",
"389 1113 OFFCURVE",
"501 1184 OFFCURVE",
"820 1184 CURVE SMOOTH",
"1183 1184 OFFCURVE",
"1338 1054 OFFCURVE",
"1338 640 CURVE SMOOTH",
"1337 0 LINE"
);
},
{
closed = 1;
nodes = (
"2157 0 LINE",
"2157 640 LINE SMOOTH",
"2157 955 OFFCURVE",
"2068 1024 OFFCURVE",
"1808 1024 CURVE SMOOTH",
"1468 1024 OFFCURVE",
"1336 930 OFFCURVE",
"1336 704 CURVE",
"1252 909 LINE",
"1348 1103 OFFCURVE",
"1491 1184 OFFCURVE",
"1832 1184 CURVE SMOOTH",
"2195 1184 OFFCURVE",
"2350 1054 OFFCURVE",
"2350 640 CURVE SMOOTH",
"2349 0 LINE"
);
}
);
width = 2474;
}
);
unicode = 006D;
},
{
glyphname = n;
lastChange = "2014-03-17 19:23:14 -0800";
layers = (
{
layerId = "3D86ED3E-BC30-4996-8F23-7FA448982149";
name = Regular;
paths = (
{
closed = 1;
nodes = (
"1284 0 LINE",
"1284 663 LINE SMOOTH",
"1284 978 OFFCURVE",
"1195 1024 OFFCURVE",
"846 1024 CURVE SMOOTH",
"446 1024 OFFCURVE",
"324 930 OFFCURVE",
"324 704 CURVE SMOOTH",
"324 0 LINE",
"132 0 LINE",
"132 1152 LINE",
"324 1152 LINE",
"324 923 LINE",
"300 974 LINE",
"389 1113 OFFCURVE",
"501 1184 OFFCURVE",
"880 1184 CURVE SMOOTH",
"1332 1184 OFFCURVE",
"1478 1077 OFFCURVE",
"1477 663 CURVE SMOOTH",
"1476 0 LINE"
);
}
);
width = 1601;
}
);
unicode = 006E;
},
{
glyphname = o;
layers = (
{
layerId = "3D86ED3E-BC30-4996-8F23-7FA448982149";
name = Regular;
paths = (
{
closed = 1;
nodes = (
"96 582 LINE",
"96 1115 OFFCURVE",
"285 1184 OFFCURVE",
"801 1184 CURVE",
"801 1024 LINE",
"325 1024 OFFCURVE",
"288 972 OFFCURVE",
"288 582 CURVE"
);
},
{
closed = 1;
nodes = (
"288 186 OFFCURVE",
"325 138 OFFCURVE",
"801 138 CURVE",
"801 -22 LINE",
"285 -22 OFFCURVE",
"96 43 OFFCURVE",
"96 582 CURVE",
"288 582 LINE"
);
},
{
closed = 1;
nodes = (
"1314 972 OFFCURVE",
"1277 1024 OFFCURVE",
"801 1024 CURVE",
"801 1184 LINE",
"1317 1184 OFFCURVE",
"1506 1115 OFFCURVE",
"1506 582 CURVE",
"1314 582 LINE"
);
},
{
closed = 1;
nodes = (
"1506 582 LINE",
"1506 43 OFFCURVE",
"1317 -22 OFFCURVE",
"801 -22 CURVE",
"801 138 LINE",
"1277 138 OFFCURVE",
"1314 186 OFFCURVE",
"1314 582 CURVE"
);
}
);
width = 1602;
}
);
unicode = 006F;
},
{
glyphname = oinvertedbreve;
layers = (
{
components = (
{
name = o;
transform = "{1, 0, 0, 1, 32, 0}";
}
);
layerId = "3D86ED3E-BC30-4996-8F23-7FA448982149";
name = Regular;
paths = (
{
closed = 1;
nodes = (
"448 1242 LINE",
"448 1477 OFFCURVE",
"589 1562 OFFCURVE",
"832 1562 CURVE SMOOTH",
"1075 1562 OFFCURVE",
"1216 1478 OFFCURVE",
"1216 1242 CURVE",
"1056 1242 LINE",
"1056 1328 OFFCURVE",
"1035 1384 OFFCURVE",
"992 1410 CURVE SMOOTH",
"965 1426 OFFCURVE",
"912 1434 OFFCURVE",
"832 1434 CURVE SMOOTH",
"752 1434 OFFCURVE",
"700 1427 OFFCURVE",
"677 1413 CURVE SMOOTH",
"631 1385 OFFCURVE",
"608 1328 OFFCURVE",
"608 1242 CURVE"
);
}
);
width = 1664;
}
);
unicode = 020F;
},
{
glyphname = oslash;
lastChange = "2014-03-17 18:56:10 -0800";
layers = (
{
components = (
{
name = o;
transform = "{1, 0, 0, 1, 0, 0}";
}
);
layerId = "3D86ED3E-BC30-4996-8F23-7FA448982149";
name = Regular;
paths = (
{
closed = 1;
nodes = (
"1116 1392 LINE",
"1233 1349 LINE",
"515 -233 LINE",
"398 -190 LINE"
);
}
);
width = 1602;
}
);
unicode = 00F8;
},
{
glyphname = oe;
layers = (
{
layerId = "3D86ED3E-BC30-4996-8F23-7FA448982149";
name = Regular;
paths = (
{
closed = 1;
nodes = (
"1440 896 CURVE",
"1456 960 OFFCURVE",
"1522 1013 OFFCURVE",
"1639 1056 CURVE SMOOTH",
"1756 1099 OFFCURVE",
"1892 1120 OFFCURVE",
"2048 1120 CURVE SMOOTH",
"2221 1120 OFFCURVE",
"2358 1096 OFFCURVE",
"2458 1049 CURVE SMOOTH",
"2624 970 OFFCURVE",
"2688 826 OFFCURVE",
"2688 576 CURVE",
"2672 512 LINE",
"1536 512 LINE",
"1536 275 OFFCURVE",
"1597 160 OFFCURVE",
"1806 138 CURVE SMOOTH",
"1871 131 OFFCURVE",
"1972 128 OFFCURVE",
"2110 128 CURVE SMOOTH",
"2248 128 OFFCURVE",
"2346 140 OFFCURVE",
"2404 164 CURVE SMOOTH",
"2468 190 OFFCURVE",
"2496 234 OFFCURVE",
"2496 320 CURVE",
"2688 320 LINE",
"2688 100 OFFCURVE",
"2553 18 OFFCURVE",
"2350 -13 CURVE SMOOTH",
"2269 -26 OFFCURVE",
"2177 -33 OFFCURVE",
"2083 -33 CURVE SMOOTH",
"1810 -33 OFFCURVE",
"1522 28 OFFCURVE",
"1440 192 CURVE",
"1407 127 OFFCURVE",
"1336 73 OFFCURVE",
"1228 32 CURVE SMOOTH",
"1103 -16 OFFCURVE",
"980 -32 OFFCURVE",
"794 -32 CURVE SMOOTH",
"691 -32 OFFCURVE",
"595 -23 OFFCURVE",
"506 -5 CURVE SMOOTH",
"236 49 OFFCURVE",
"128 218 OFFCURVE",
"128 544 CURVE SMOOTH",
"128 656 OFFCURVE",
"141 749 OFFCURVE",
"166 823 CURVE SMOOTH",
"253 1076 OFFCURVE",
"499 1120 OFFCURVE",
"851 1120 CURVE SMOOTH",
"1063 1120 OFFCURVE",
"1400 1048 OFFCURVE"
);
},
{
closed = 1;
nodes = (
"408 204 CURVE SMOOTH",
"431 185 OFFCURVE",
"462 169 OFFCURVE",
"500 158 CURVE SMOOTH",
"600 128 OFFCURVE",
"704 128 OFFCURVE",
"848 128 CURVE SMOOTH",
"933 128 OFFCURVE",
"1009 132 OFFCURVE",
"1074 139 CURVE SMOOTH",
"1292 163 OFFCURVE",
"1344 295 OFFCURVE",
"1344 544 CURVE SMOOTH",
"1344 640 OFFCURVE",
"1335 716 OFFCURVE",
"1318 771 CURVE SMOOTH",
"1260 955 OFFCURVE",
"1079 960 OFFCURVE",
"832 960 CURVE SMOOTH",
"825 960 LINE SMOOTH",
"661 960 OFFCURVE",
"523 960 OFFCURVE",
"432 896 CURVE SMOOTH",
"348 837 OFFCURVE",
"320 718 OFFCURVE",
"320 572 CURVE SMOOTH",
"320 403 OFFCURVE",
"320 277 OFFCURVE"
);
},
{
closed = 1;
nodes = (
"1562 812 CURVE SMOOTH",
"1545 770 OFFCURVE",
"1536 712 OFFCURVE",
"1536 640 CURVE",
"2496 640 LINE",
"2496 764 OFFCURVE",
"2461 850 OFFCURVE",
"2392 896 CURVE SMOOTH",
"2307 953 OFFCURVE",
"2190 960 OFFCURVE",
"2036 960 CURVE SMOOTH",
"1820 960 OFFCURVE",
"1623 960 OFFCURVE"
);
}
);
width = 2816;
}
);
unicode = 0153;
},
{
glyphname = p;
layers = (
{
layerId = "3D86ED3E-BC30-4996-8F23-7FA448982149";
name = Regular;
paths = (
{
closed = 1;
nodes = (
"324 -384 LINE",
"132 -384 LINE",
"132 1152 LINE",
"324 1152 LINE"
);
},
{
closed = 1;
nodes = (
"225 582 LINE",
"225 1115 OFFCURVE",
"421 1184 OFFCURVE",
"837 1184 CURVE",
"837 1024 LINE",
"403 1024 OFFCURVE",
"324 972 OFFCURVE",
"324 582 CURVE"
);
},
{
closed = 1;
nodes = (
"324 186 OFFCURVE",
"403 138 OFFCURVE",
"837 138 CURVE",
"837 -22 LINE",
"421 -22 OFFCURVE",
"225 43 OFFCURVE",
"225 582 CURVE",
"324 582 LINE"
);
},
{
closed = 1;
nodes = (
"1350 972 OFFCURVE",
"1313 1024 OFFCURVE",
"837 1024 CURVE",
"837 1184 LINE",
"1353 1184 OFFCURVE",
"1542 1115 OFFCURVE",
"1542 582 CURVE",
"1350 582 LINE"
);
},
{
closed = 1;
nodes = (
"1542 582 LINE",
"1542 43 OFFCURVE",
"1353 -22 OFFCURVE",
"837 -22 CURVE",
"837 138 LINE",
"1313 138 OFFCURVE",
"1350 186 OFFCURVE",
"1350 582 CURVE"
);
}
);
width = 1638;
}
);
unicode = 0070;
},
{
glyphname = thorn;
layers = (
{
layerId = "3D86ED3E-BC30-4996-8F23-7FA448982149";
name = Regular;
paths = (
{
closed = 1;
nodes = (
"886 1120 CURVE SMOOTH",
"978 1120 OFFCURVE",
"1069 1111 OFFCURVE",
"1158 1093 CURVE SMOOTH",
"1428 1039 OFFCURVE",
"1536 870 OFFCURVE",
"1536 544 CURVE SMOOTH",
"1536 329 OFFCURVE",
"1493 180 OFFCURVE",
"1376 88 CURVE SMOOTH",
"1269 4 OFFCURVE",
"1074 -32 OFFCURVE",
"886 -32 CURVE SMOOTH",
"794 -32 OFFCURVE",
"726 -30 OFFCURVE",
"682 -25 CURVE SMOOTH",
"486 -4 OFFCURVE",
"365 47 OFFCURVE",
"320 128 CURVE",
"320 -384 LINE",
"128 -384 LINE",
"128 1536 LINE",
"320 1536 LINE",
"320 961 LINE",
"395 1093 OFFCURVE",
"643 1120 OFFCURVE"
);
},
{
closed = 1;
nodes = (
"661 956 CURVE SMOOTH",
"510 948 OFFCURVE",
"412 904 OFFCURVE",
"368 824 CURVE SMOOTH",
"336 766 OFFCURVE",
"320 673 OFFCURVE",
"320 547 CURVE SMOOTH",
"320 420 OFFCURVE",
"336 326 OFFCURVE",
"368 266 CURVE SMOOTH",
"437 137 OFFCURVE",
"590 128 OFFCURVE",
"786 128 CURVE SMOOTH",
"900 128 LINE SMOOTH",
"1009 128 OFFCURVE",
"1097 138 OFFCURVE",
"1164 158 CURVE SMOOTH",
"1246 183 OFFCURVE",
"1285 216 OFFCURVE",
"1318 295 CURVE SMOOTH",
"1335 336 OFFCURVE",
"1344 419 OFFCURVE",
"1344 544 CURVE SMOOTH",
"1344 669 OFFCURVE",
"1334 756 OFFCURVE",
"1312 808 CURVE SMOOTH",
"1250 955 OFFCURVE",
"1053 960 OFFCURVE",
"840 960 CURVE SMOOTH",
"771 960 OFFCURVE",
"711 959 OFFCURVE"
);
}
);
width = 1600;
}
);
unicode = 00FE;
},
{
glyphname = q;
layers = (
{
layerId = "3D86ED3E-BC30-4996-8F23-7FA448982149";
name = Regular;
paths = (
{
closed = 1;
nodes = (
"1506 1152 LINE",
"1506 -384 LINE",
"1314 -384 LINE",
"1314 1152 LINE"
);
},
{
closed = 1;
nodes = (
"1314 972 OFFCURVE",
"1235 1024 OFFCURVE",
"801 1024 CURVE",
"801 1184 LINE",
"1217 1184 OFFCURVE",
"1413 1115 OFFCURVE",
"1413 582 CURVE",
"1314 582 LINE"
);
},
{
closed = 1;
nodes = (
"1413 582 LINE",
"1413 43 OFFCURVE",
"1217 -22 OFFCURVE",
"801 -22 CURVE",
"801 138 LINE",
"1235 138 OFFCURVE",
"1314 186 OFFCURVE",
"1314 582 CURVE"
);
},
{
closed = 1;
nodes = (
"96 582 LINE",
"96 1115 OFFCURVE",
"285 1184 OFFCURVE",
"801 1184 CURVE",
"801 1024 LINE",
"325 1024 OFFCURVE",
"288 972 OFFCURVE",
"288 582 CURVE"
);
},
{
closed = 1;
nodes = (
"288 186 OFFCURVE",
"325 138 OFFCURVE",
"801 138 CURVE",
"801 -22 LINE",
"285 -22 OFFCURVE",
"96 43 OFFCURVE",
"96 582 CURVE",
"288 582 LINE"
);
}
);
width = 1638;
}
);
unicode = 0071;
},
{
glyphname = r;
lastChange = "2014-03-17 06:00:51 -0800";
layers = (
{
background = {
paths = (
{
closed = 1;
nodes = (
"953 1185 LINE",
"953 1024 LINE",
"853 1024 LINE SMOOTH",
"436 1024 OFFCURVE",
"324 930 OFFCURVE",
"324 704 CURVE SMOOTH",
"324 0 LINE",
"132 0 LINE",
"132 1152 LINE",
"324 1152 LINE",
"324 923 LINE",
"300 974 LINE",
"389 1113 OFFCURVE",
"491 1184 OFFCURVE",
"853 1185 CURVE SMOOTH"
);
}
);
};
layerId = "3D86ED3E-BC30-4996-8F23-7FA448982149";
name = Regular;
paths = (
{
closed = 1;
nodes = (
"953 1169 CURVE",
"953 1008 LINE",
"426 1008 OFFCURVE",
"324 946 OFFCURVE",
"324 704 CURVE SMOOTH",
"324 0 LINE",
"132 0 LINE",
"132 1152 LINE",
"324 1152 LINE",
"324 923 LINE",
"300 954 LINE",
"402 1122 OFFCURVE",
"525 1168 OFFCURVE"
);
}
);
width = 1023;
}
);
unicode = 0072;
},
{
glyphname = rinvertedbreve;
layers = (
{
components = (
{
name = r;
transform = "{1, 0, 0, 1, 0, 0}";
}
);
layerId = "3D86ED3E-BC30-4996-8F23-7FA448982149";
name = Regular;
paths = (
{
closed = 1;
nodes = (
"320 1242 LINE",
"320 1477 OFFCURVE",
"461 1562 OFFCURVE",
"704 1562 CURVE SMOOTH",
"947 1562 OFFCURVE",
"1088 1478 OFFCURVE",
"1088 1242 CURVE",
"928 1242 LINE",
"928 1328 OFFCURVE",
"907 1384 OFFCURVE",
"864 1410 CURVE SMOOTH",
"837 1426 OFFCURVE",
"784 1434 OFFCURVE",
"704 1434 CURVE SMOOTH",
"624 1434 OFFCURVE",
"572 1427 OFFCURVE",
"549 1413 CURVE SMOOTH",
"503 1385 OFFCURVE",
"480 1328 OFFCURVE",
"480 1242 CURVE"
);
}
);
width = 1408;
}
);
unicode = 0213;
},
{
glyphname = s;
lastChange = "2014-03-17 18:45:08 -0800";
layers = (
{
background = {
paths = (
{
closed = 1;
nodes = (
"1271 789 LINE",
"1271 992 OFFCURVE",
"1263 1024 OFFCURVE",
"820 1024 CURVE",
"810 1184 LINE",
"1344 1184 OFFCURVE",
"1455 1134 OFFCURVE",
"1455 789 CURVE"
);
},
{
closed = 1;
nodes = (
"304 157 OFFCURVE",
"320 138 OFFCURVE",
"784 138 CURVE",
"779 -22 LINE",
"241 -22 OFFCURVE",
"120 26 OFFCURVE",
"120 384 CURVE",
"304 384 LINE"
);
},
{
closed = 1;
nodes = (
"1478 352 LINE",
"1478 19 OFFCURVE",
"1297 -22 OFFCURVE",
"779 -22 CURVE",
"784 138 LINE",
"1264 138 OFFCURVE",
"1286 166 OFFCURVE",
"1286 336 CURVE"
);
},
{
closed = 1;
nodes = (
"1286 491 OFFCURVE",
"1275 520 OFFCURVE",
"1009 520 CURVE",
"777 520 LINE",
"782 678 LINE",
"993 678 LINE",
"1364 678 OFFCURVE",
"1478 630 OFFCURVE",
"1478 352 CURVE",
"1286 336 LINE"
);
},
{
closed = 1;
nodes = (
"120 844 LINE",
"120 1177 OFFCURVE",
"309 1184 OFFCURVE",
"810 1184 CURVE",
"820 1024 LINE",
"349 1024 OFFCURVE",
"312 1015 OFFCURVE",
"312 851 CURVE"
);
},
{
closed = 1;
nodes = (
"312 694 OFFCURVE",
"348 678 OFFCURVE",
"663 678 CURVE",
"795 678 LINE",
"790 520 LINE",
"627 520 LINE",
"226 520 OFFCURVE",
"120 581 OFFCURVE",
"120 844 CURVE",
"312 851 LINE"
);
}
);
};
layerId = "3D86ED3E-BC30-4996-8F23-7FA448982149";
name = Regular;
paths = (
{
closed = 1;
nodes = (
"668 683 LINE SMOOTH",
"334 687 OFFCURVE",
"312 697 OFFCURVE",
"312 851 CURVE",
"120 854 LINE",
"120 594 OFFCURVE",
"197 529 OFFCURVE",
"571 525 CURVE SMOOTH",
"999 520 LINE SMOOTH",
"1266 517 OFFCURVE",
"1286 491 OFFCURVE",
"1286 336 CURVE",
"1478 336 LINE",
"1478 614 OFFCURVE",
"1403 675 OFFCURVE",
"1048 679 CURVE SMOOTH"
);
},
{
closed = 1;
nodes = (
"1271 829 LINE",
"1271 992 OFFCURVE",
"1263 1025 OFFCURVE",
"820 1025 CURVE",
"810 1185 LINE",
"1374 1185 OFFCURVE",
"1455 1134 OFFCURVE",
"1455 829 CURVE"
);
},
{
closed = 1;
nodes = (
"304 167 OFFCURVE",
"320 138 OFFCURVE",
"784 138 CURVE",
"779 -22 LINE",
"221 -22 OFFCURVE",
"120 36 OFFCURVE",
"120 364 CURVE",
"304 364 LINE"
);
},
{
closed = 1;
nodes = (
"1478 336 LINE",
"1478 3 OFFCURVE",
"1297 -22 OFFCURVE",
"779 -22 CURVE",
"784 138 LINE",
"1264 138 OFFCURVE",
"1286 166 OFFCURVE",
"1286 336 CURVE"
);
},
{
closed = 1;
nodes = (
"120 854 LINE",
"120 1187 OFFCURVE",
"309 1185 OFFCURVE",
"810 1185 CURVE",
"820 1025 LINE",
"349 1025 OFFCURVE",
"312 1015 OFFCURVE",
"312 851 CURVE"
);
}
);
width = 1589;
}
);
unicode = 0073;
},
{
glyphname = scedilla;
layers = (
{
layerId = "3D86ED3E-BC30-4996-8F23-7FA448982149";
name = Regular;
paths = (
{
closed = 1;
nodes = (
"832 -203 LINE",
"1003 -203 OFFCURVE",
"1088 -256 OFFCURVE",
"1088 -363 CURVE SMOOTH",
"1088 -568 OFFCURVE",
"932 -619 OFFCURVE",
"704 -619 CURVE",
"704 -459 LINE",
"779 -459 OFFCURVE",
"825 -455 OFFCURVE",
"844 -448 CURVE SMOOTH",
"879 -435 OFFCURVE",
"896 -407 OFFCURVE",
"896 -363 CURVE SMOOTH",
"896 -342 OFFCURVE",
"889 -327 OFFCURVE",
"875 -320 CURVE SMOOTH",
"846 -306 OFFCURVE",
"789 -299 OFFCURVE",
"704 -299 CURVE",
"704 -11 LINE",
"499 -7 OFFCURVE",
"354 19 OFFCURVE",
"268 64 CURVE SMOOTH",
"175 113 OFFCURVE",
"128 198 OFFCURVE",
"128 320 CURVE",
"320 320 LINE",
"320 234 OFFCURVE",
"348 190 OFFCURVE",
"412 164 CURVE SMOOTH",
"470 140 OFFCURVE",
"589 128 OFFCURVE",
"768 128 CURVE SMOOTH",
"926 128 OFFCURVE",
"1033 134 OFFCURVE",
"1088 146 CURVE SMOOTH",
"1204 170 OFFCURVE",
"1280 190 OFFCURVE",
"1280 315 CURVE SMOOTH",
"1280 410 OFFCURVE",
"1273 448 OFFCURVE",
"1208 475 CURVE SMOOTH",
"1187 484 OFFCURVE",
"1160 490 OFFCURVE",
"1124 496 CURVE SMOOTH",
"1059 506 OFFCURVE",
"966 512 OFFCURVE",
"845 512 CURVE SMOOTH",
"709 512 LINE SMOOTH",
"586 512 OFFCURVE",
"494 514 OFFCURVE",
"384 532 CURVE SMOOTH",
"200 563 OFFCURVE",
"128 637 OFFCURVE",
"128 860 CURVE SMOOTH",
"128 979 OFFCURVE",
"181 1063 OFFCURVE",
"288 1112 CURVE SMOOTH",
"393 1160 OFFCURVE",
"575 1184 OFFCURVE",
"832 1184 CURVE SMOOTH",
"1077 1184 OFFCURVE",
"1247 1156 OFFCURVE",
"1342 1102 CURVE SMOOTH",
"1430 1052 OFFCURVE",
"1472 978 OFFCURVE",
"1472 848 CURVE",
"1280 848 LINE",
"1280 928 OFFCURVE",
"1250 966 OFFCURVE",
"1188 990 CURVE SMOOTH",
"1128 1013 OFFCURVE",
"1030 1024 OFFCURVE",
"893 1024 CURVE SMOOTH",
"756 1024 OFFCURVE",
"655 1023 OFFCURVE",
"590 1020 CURVE SMOOTH",
"449 1014 OFFCURVE",
"320 1003 OFFCURVE",
"320 866 CURVE SMOOTH",
"320 774 OFFCURVE",
"326 719 OFFCURVE",
"392 695 CURVE SMOOTH",
"413 688 OFFCURVE",
"440 682 OFFCURVE",
"476 678 CURVE SMOOTH",
"518 674 OFFCURVE",
"606 672 OFFCURVE",
"738 672 CURVE SMOOTH",
"870 672 OFFCURVE",
"970 670 OFFCURVE",
"1038 666 CURVE SMOOTH",
"1200 657 OFFCURVE",
"1345 635 OFFCURVE",
"1418 544 CURVE SMOOTH",
"1454 500 OFFCURVE",
"1472 434 OFFCURVE",
"1472 344 CURVE SMOOTH",
"1472 253 OFFCURVE",
"1454 183 OFFCURVE",
"1418 136 CURVE SMOOTH",
"1346 41 OFFCURVE",
"1150 -8 OFFCURVE",
"832 -11 CURVE"
);
}
);
width = 1600;
}
);
unicode = 015F;
},
{
glyphname = germandbls;
layers = (
{
layerId = "3D86ED3E-BC30-4996-8F23-7FA448982149";
name = Regular;
paths = (
{
closed = 1;
nodes = (
"769 1536 CURVE SMOOTH",
"1280 1536 LINE SMOOTH",
"1465 1536 OFFCURVE",
"1599 1506 OFFCURVE",
"1680 1444 CURVE SMOOTH",
"1751 1390 OFFCURVE",
"1792 1302 OFFCURVE",
"1792 1186 CURVE SMOOTH",
"1792 1135 OFFCURVE",
"1790 1094 OFFCURVE",
"1784 1061 CURVE SMOOTH",
"1759 917 OFFCURVE",
"1697 841 OFFCURVE",
"1600 832 CURVE",
"1660 829 OFFCURVE",
"1713 814 OFFCURVE",
"1760 788 CURVE SMOOTH",
"1863 730 OFFCURVE",
"1920 632 OFFCURVE",
"1920 471 CURVE SMOOTH",
"1920 314 OFFCURVE",
"1898 195 OFFCURVE",
"1816 119 CURVE SMOOTH",
"1731 40 OFFCURVE",
"1552 0 OFFCURVE",
"1279 0 CURVE SMOOTH",
"512 0 LINE",
"512 160 LINE",
"1215 160 LINE SMOOTH",
"1376 160 OFFCURVE",
"1487 166 OFFCURVE",
"1548 178 CURVE SMOOTH",
"1586 186 OFFCURVE",
"1617 198 OFFCURVE",
"1640 212 CURVE SMOOTH",
"1724 264 OFFCURVE",
"1728 358 OFFCURVE",
"1728 501 CURVE SMOOTH",
"1728 565 OFFCURVE",
"1716 613 OFFCURVE",
"1694 646 CURVE SMOOTH",
"1660 696 OFFCURVE",
"1612 707 OFFCURVE",
"1528 722 CURVE SMOOTH",
"1477 731 OFFCURVE",
"1372 736 OFFCURVE",
"1215 736 CURVE SMOOTH",
"512 736 LINE",
"512 896 LINE",
"1215 896 LINE",
"1223 896 LINE SMOOTH",
"1354 896 OFFCURVE",
"1462 897 OFFCURVE",
"1530 946 CURVE SMOOTH",
"1587 987 OFFCURVE",
"1600 1063 OFFCURVE",
"1600 1162 CURVE SMOOTH",
"1600 1273 OFFCURVE",
"1568 1311 OFFCURVE",
"1487 1347 CURVE SMOOTH",
"1444 1366 OFFCURVE",
"1354 1376 OFFCURVE",
"1216 1376 CURVE SMOOTH",
"833 1376 LINE SMOOTH",
"672 1376 OFFCURVE",
"561 1370 OFFCURVE",
"500 1358 CURVE SMOOTH",
"420 1342 OFFCURVE",
"381 1318 OFFCURVE",
"346 1255 CURVE SMOOTH",
"328 1223 OFFCURVE",
"320 1157 OFFCURVE",
"320 1058 CURVE SMOOTH",
"320 -128 LINE",
"128 -128 LINE",
"128 1058 LINE SMOOTH",
"128 1220 OFFCURVE",
"148 1339 OFFCURVE",
"232 1417 CURVE SMOOTH",
"317 1496 OFFCURVE",
"496 1536 OFFCURVE"
);
}
);
width = 2048;
}
);
unicode = 00DF;
},
{
glyphname = t;
lastChange = "2014-03-17 19:04:47 -0800";
layers = (
{
layerId = "3D86ED3E-BC30-4996-8F23-7FA448982149";
name = Regular;
paths = (
{
closed = 1;
nodes = (
"1141 502 LINE",
"1141 59 OFFCURVE",
"1053 0 OFFCURVE",
"657 0 CURVE SMOOTH",
"305 0 OFFCURVE",
"174 88 OFFCURVE",
"174 416 CURVE",
"174 1467 LINE",
"366 1467 LINE",
"366 1152 LINE",
"1075 1152 LINE",
"1075 994 LINE",
"366 994 LINE",
"366 416 LINE SMOOTH",
"366 191 OFFCURVE",
"406 160 OFFCURVE",
"657 160 CURVE SMOOTH",
"953 160 OFFCURVE",
"971 164 OFFCURVE",
"971 502 CURVE"
);
}
);
width = 1299;
}
);
unicode = 0074;
},
{
glyphname = u;
layers = (
{
layerId = "3D86ED3E-BC30-4996-8F23-7FA448982149";
name = Regular;
paths = (
{
closed = 1;
nodes = (
"1277 1152 LINE",
"1277 458 LINE SMOOTH",
"1277 232 OFFCURVE",
"1165 138 OFFCURVE",
"765 138 CURVE SMOOTH",
"416 138 OFFCURVE",
"317 207 OFFCURVE",
"317 512 CURVE SMOOTH",
"317 1152 LINE",
"125 1152 LINE",
"124 512 LINE SMOOTH",
"123 108 OFFCURVE",
"279 -22 OFFCURVE",
"731 -22 CURVE SMOOTH",
"1077 -22 OFFCURVE",
"1192 37 OFFCURVE",
"1277 153 CURVE",
"1277 0 LINE",
"1469 0 LINE",
"1469 1152 LINE"
);
}
);
width = 1601;
}
);
unicode = 0075;
},
{
glyphname = uinvertedbreve;
layers = (
{
components = (
{
name = u;
transform = "{1, 0, 0, 1, 0, 0}";
}
);
layerId = "3D86ED3E-BC30-4996-8F23-7FA448982149";
name = Regular;
paths = (
{
closed = 1;
nodes = (
"416 1242 LINE",
"416 1477 OFFCURVE",
"557 1562 OFFCURVE",
"800 1562 CURVE SMOOTH",
"1043 1562 OFFCURVE",
"1184 1478 OFFCURVE",
"1184 1242 CURVE",
"1024 1242 LINE",
"1024 1328 OFFCURVE",
"1003 1384 OFFCURVE",
"960 1410 CURVE SMOOTH",
"933 1426 OFFCURVE",
"880 1434 OFFCURVE",
"800 1434 CURVE SMOOTH",
"720 1434 OFFCURVE",
"668 1427 OFFCURVE",
"645 1413 CURVE SMOOTH",
"599 1385 OFFCURVE",
"576 1328 OFFCURVE",
"576 1242 CURVE"
);
}
);
width = 1602;
}
);
unicode = 0217;
},
{
glyphname = v;
lastChange = "2014-03-17 17:13:29 -0800";
layers = (
{
layerId = "3D86ED3E-BC30-4996-8F23-7FA448982149";
name = Regular;
paths = (
{
closed = 1;
nodes = (
"666 0 LINE",
"64 1152 LINE",
"290 1152 LINE",
"794 144 LINE",
"796 144 LINE",
"1310 1152 LINE",
"1524 1152 LINE",
"922 0 LINE"
);
}
);
width = 1588;
}
);
unicode = 0076;
},
{
glyphname = w;
lastChange = "2014-03-17 06:04:28 -0800";
layers = (
{
layerId = "3D86ED3E-BC30-4996-8F23-7FA448982149";
name = Regular;
paths = (
{
closed = 1;
nodes = (
"2170 1152 LINE",
"1728 0 LINE",
"1472 0 LINE",
"1121 933 LINE",
"1119 933 LINE",
"768 0 LINE",
"512 0 LINE",
"70 1152 LINE",
"288 1152 LINE",
"639 155 LINE",
"641 155 LINE",
"1024 1152 LINE",
"1216 1152 LINE",
"1595 155 LINE",
"1597 155 LINE",
"1952 1152 LINE"
);
}
);
width = 2240;
}
);
unicode = 0077;
},
{
glyphname = x;
layers = (
{
layerId = "3D86ED3E-BC30-4996-8F23-7FA448982149";
name = Regular;
paths = (
{
closed = 1;
nodes = (
"1276 0 LINE",
"814 482 LINE",
"352 0 LINE",
"96 0 LINE",
"686 586 LINE",
"124 1152 LINE",
"380 1152 LINE",
"819 707 LINE",
"1248 1152 LINE",
"1504 1152 LINE",
"942 587 LINE",
"1532 0 LINE"
);
}
);
width = 1628;
}
);
unicode = 0078;
},
{
glyphname = y;
lastChange = "2014-03-17 14:57:22 -0800";
layers = (
{
background = {
paths = (
{
closed = 1;
nodes = (
"672 0 LINE",
"64 1152 LINE",
"288 1152 LINE",
"800 128 LINE",
"1280 1152 LINE",
"1504 1152 LINE",
"896 -64 LINE SMOOTH",
"880 -96 OFFCURVE",
"864 -126 OFFCURVE",
"848 -154 CURVE SMOOTH",
"815 -214 OFFCURVE",
"774 -262 OFFCURVE",
"724 -296 CURVE SMOOTH",
"638 -355 OFFCURVE",
"493 -384 OFFCURVE",
"288 -384 CURVE",
"288 -224 LINE",
"409 -224 OFFCURVE",
"500 -214 OFFCURVE",
"560 -194 CURVE SMOOTH",
"590 -184 OFFCURVE",
"614 -173 OFFCURVE",
"632 -160 CURVE SMOOTH",
"686 -120 OFFCURVE",
"705 -63 OFFCURVE",
"736 0 CURVE"
);
}
);
};
layerId = "3D86ED3E-BC30-4996-8F23-7FA448982149";
name = Regular;
paths = (
{
closed = 1;
nodes = (
"686 0 LINE",
"46 1152 LINE",
"266 1152 LINE",
"814 143 LINE",
"1275 1152 LINE",
"1500 1152 LINE",
"916 -64 LINE SMOOTH",
"812 -280 OFFCURVE",
"731 -384 OFFCURVE",
"308 -384 CURVE",
"308 -224 LINE",
"582 -224 OFFCURVE",
"642 -219 OFFCURVE",
"750 0 CURVE"
);
}
);
width = 1568;
}
);
unicode = 0079;
},
{
glyphname = z;
layers = (
{
layerId = "3D86ED3E-BC30-4996-8F23-7FA448982149";
name = Regular;
paths = (
{
closed = 1;
nodes = (
"192 1152 LINE",
"1344 1152 LINE",
"1344 992 LINE",
"382 143 LINE",
"1344 143 LINE",
"1344 0 LINE",
"128 0 LINE",
"128 160 LINE",
"1104 1011 LINE",
"192 1011 LINE"
);
}
);
width = 1472;
}
);
unicode = 007A;
},
{
glyphname = ordmasculine;
layers = (
{
layerId = "3D86ED3E-BC30-4996-8F23-7FA448982149";
name = Regular;
paths = (
{
closed = 1;
nodes = (
"128 961 CURVE SMOOTH",
"128 1287 OFFCURVE",
"236 1456 OFFCURVE",
"506 1510 CURVE SMOOTH",
"595 1528 OFFCURVE",
"704 1537 OFFCURVE",
"832 1537 CURVE SMOOTH",
"1170 1537 OFFCURVE",
"1414 1486 OFFCURVE",
"1498 1240 CURVE SMOOTH",
"1523 1166 OFFCURVE",
"1536 1073 OFFCURVE",
"1536 961 CURVE SMOOTH",
"1536 635 OFFCURVE",
"1428 466 OFFCURVE",
"1158 412 CURVE SMOOTH",
"1069 394 OFFCURVE",
"960 385 OFFCURVE",
"832 385 CURVE SMOOTH",
"494 385 OFFCURVE",
"250 436 OFFCURVE",
"166 682 CURVE SMOOTH",
"141 756 OFFCURVE",
"128 849 OFFCURVE"
);
},
{
closed = 1;
nodes = (
"832 1377 CURVE SMOOTH",
"586 1377 OFFCURVE",
"403 1371 OFFCURVE",
"346 1188 CURVE SMOOTH",
"329 1133 OFFCURVE",
"320 1066 OFFCURVE",
"320 989 CURVE SMOOTH",
"320 820 OFFCURVE",
"320 694 OFFCURVE",
"408 621 CURVE SMOOTH",
"431 602 OFFCURVE",
"462 586 OFFCURVE",
"500 575 CURVE SMOOTH",
"567 555 OFFCURVE",
"663 545 OFFCURVE",
"788 545 CURVE SMOOTH",
"913 545 OFFCURVE",
"1009 549 OFFCURVE",
"1074 556 CURVE SMOOTH",
"1291 580 OFFCURVE",
"1344 713 OFFCURVE",
"1344 961 CURVE SMOOTH",
"1344 1210 OFFCURVE",
"1292 1342 OFFCURVE",
"1074 1366 CURVE SMOOTH",
"1009 1373 OFFCURVE",
"928 1377 OFFCURVE"
);
}
);
width = 1664;
}
);
unicode = 00BA;
},
{
glyphname = Delta;
layers = (
{
layerId = "3D86ED3E-BC30-4996-8F23-7FA448982149";
name = Regular;
paths = (
{
closed = 1;
nodes = (
"128 -1 LINE",
"704 1536 LINE",
"960 1536 LINE",
"1536 -1 LINE"
);
},
{
closed = 1;
nodes = (
"1280 159 LINE",
"832 1408 LINE",
"384 159 LINE"
);
}
);
width = 1664;
}
);
unicode = 0394;
},
{
glyphname = Omega;
layers = (
{
layerId = "3D86ED3E-BC30-4996-8F23-7FA448982149";
name = Regular;
paths = (
{
closed = 1;
nodes = (
"128 671 CURVE SMOOTH",
"128 847 OFFCURVE",
"146 982 OFFCURVE",
"181 1076 CURVE SMOOTH",
"259 1284 OFFCURVE",
"433 1342 OFFCURVE",
"736 1342 CURVE SMOOTH",
"950 1342 OFFCURVE",
"1120 1309 OFFCURVE",
"1217 1202 CURVE SMOOTH",
"1302 1109 OFFCURVE",
"1344 932 OFFCURVE",
"1344 671 CURVE SMOOTH",
"1344 392 OFFCURVE",
"1259 222 OFFCURVE",
"1088 160 CURVE",
"1280 160 LINE",
"1280 0 LINE",
"896 0 LINE",
"896 224 LINE",
"1046 224 OFFCURVE",
"1098 298 OFFCURVE",
"1130 429 CURVE SMOOTH",
"1145 488 OFFCURVE",
"1152 586 OFFCURVE",
"1152 721 CURVE SMOOTH",
"1152 856 OFFCURVE",
"1140 960 OFFCURVE",
"1116 1031 CURVE SMOOTH",
"1091 1105 OFFCURVE",
"1053 1143 OFFCURVE",
"978 1166 CURVE SMOOTH",
"942 1177 OFFCURVE",
"861 1183 OFFCURVE",
"736 1183 CURVE SMOOTH",
"611 1183 OFFCURVE",
"528 1177 OFFCURVE",
"486 1164 CURVE SMOOTH",
"423 1145 OFFCURVE",
"380 1101 OFFCURVE",
"356 1031 CURVE SMOOTH",
"332 960 OFFCURVE",
"320 840 OFFCURVE",
"320 671 CURVE SMOOTH",
"320 487 OFFCURVE",
"347 361 OFFCURVE",
"400 294 CURVE SMOOTH",
"441 242 OFFCURVE",
"494 224 OFFCURVE",
"576 224 CURVE",
"576 0 LINE",
"192 0 LINE",
"192 160 LINE",
"384 160 LINE",
"213 222 OFFCURVE",
"128 392 OFFCURVE"
);
}
);
width = 1472;
}
);
unicode = 03A9;
},
{
glyphname = mu;
layers = (
{
layerId = "3D86ED3E-BC30-4996-8F23-7FA448982149";
name = Regular;
paths = (
{
closed = 1;
nodes = (
"321 33 CURVE",
"321 -384 LINE",
"129 -384 LINE",
"129 -104 LINE",
"128 294 LINE",
"128 580 LINE",
"129 886 LINE",
"129 1088 LINE",
"321 1088 LINE",
"321 512 LINE SMOOTH",
"321 377 OFFCURVE",
"333 277 OFFCURVE",
"401 213 CURVE SMOOTH",
"461 156 OFFCURVE",
"584 128 OFFCURVE",
"769 128 CURVE SMOOTH",
"1050 128 OFFCURVE",
"1214 191 OFFCURVE",
"1260 317 CURVE SMOOTH",
"1274 356 OFFCURVE",
"1281 400 OFFCURVE",
"1281 448 CURVE SMOOTH",
"1281 1088 LINE",
"1473 1088 LINE",
"1473 0 LINE",
"1281 0 LINE",
"1281 191 LINE",
"1241 111 OFFCURVE",
"1171 60 OFFCURVE",
"1076 24 CURVE SMOOTH",
"977 -13 OFFCURVE",
"848 -32 OFFCURVE",
"690 -32 CURVE SMOOTH",
"532 -32 OFFCURVE",
"409 -10 OFFCURVE"
);
}
);
width = 1601;
}
);
unicode = 03BC;
},
{
glyphname = pi;
layers = (
{
layerId = "3D86ED3E-BC30-4996-8F23-7FA448982149";
name = Regular;
paths = (
{
closed = 1;
nodes = (
"128 1088 LINE",
"320 1088 LINE",
"320 0 LINE",
"128 0 LINE"
);
},
{
closed = 1;
nodes = (
"320 1344 LINE",
"128 1344 LINE",
"128 1536 LINE",
"320 1536 LINE"
);
},
{
closed = 1;
nodes = (
"128 1088 LINE",
"128 0 LINE",
"320 0 LINE",
"320 1088 LINE"
);
},
{
closed = 1;
nodes = (
"320 1344 LINE",
"320 1536 LINE",
"128 1536 LINE",
"128 1344 LINE"
);
}
);
width = 448;
}
);
unicode = 03C0;
},
{
glyphname = zero;
lastChange = "2014-03-17 17:36:36 -0800";
layers = (
{
layerId = "3D86ED3E-BC30-4996-8F23-7FA448982149";
name = Regular;
paths = (
{
closed = 1;
nodes = (
"974 1568 LINE",
"974 1402 LINE",
"871 1402 LINE",
"394 1402 OFFCURVE",
"320 1374 OFFCURVE",
"320 788 CURVE",
"128 748 LINE",
"128 788 LINE",
"128 1467 OFFCURVE",
"271 1568 OFFCURVE",
"871 1568 CURVE"
);
},
{
closed = 1;
nodes = (
"271 -32 OFFCURVE",
"128 89 OFFCURVE",
"128 748 CURVE",
"320 788 LINE",
"320 748 LINE",
"320 182 OFFCURVE",
"394 134 OFFCURVE",
"871 134 CURVE",
"974 134 LINE",
"974 -32 LINE",
"871 -32 LINE"
);
},
{
closed = 1;
nodes = (
"1677 1568 OFFCURVE",
"1820 1467 OFFCURVE",
"1820 788 CURVE",
"1820 748 LINE",
"1628 788 LINE",
"1628 1374 OFFCURVE",
"1554 1402 OFFCURVE",
"1077 1402 CURVE",
"974 1402 LINE",
"974 1568 LINE",
"1077 1568 LINE"
);
},
{
closed = 1;
nodes = (
"974 -32 LINE",
"974 134 LINE",
"1077 134 LINE",
"1554 134 OFFCURVE",
"1628 182 OFFCURVE",
"1628 748 CURVE",
"1628 788 LINE",
"1820 748 LINE",
"1820 89 OFFCURVE",
"1677 -32 OFFCURVE",
"1077 -32 CURVE"
);
}
);
width = 1948;
}
);
unicode = 0030;
},
{
glyphname = one;
lastChange = "2014-03-17 17:57:19 -0800";
layers = (
{
layerId = "3D86ED3E-BC30-4996-8F23-7FA448982149";
name = Regular;
paths = (
{
closed = 1;
nodes = (
"1108 160 LINE",
"1194 74 LINE",
"1194 1536 LINE",
"988 1536 LINE",
"368 1331 LINE",
"429 1183 LINE",
"1073 1398 LINE",
"1002 1435 LINE",
"1002 74 LINE",
"1088 160 LINE",
"388 160 LINE",
"388 0 LINE",
"1730 0 LINE",
"1730 160 LINE"
);
}
);
width = 1948;
}
);
unicode = 0031;
},
{
glyphname = two;
lastChange = "2014-03-17 18:15:46 -0800";
layers = (
{
background = {
paths = (
{
closed = 1;
nodes = (
"1709 716 OFFCURVE",
"1816 825 OFFCURVE",
"1816 1132 CURVE",
"1624 1132 LINE",
"1624 916 OFFCURVE",
"1590 877 OFFCURVE",
"1153 877 CURVE SMOOTH",
"815 877 LINE",
"815 716 LINE",
"1143 716 LINE SMOOTH"
);
},
{
closed = 1;
nodes = (
"1693 1568 OFFCURVE",
"1816 1481 OFFCURVE",
"1816 1132 CURVE",
"1624 1132 LINE",
"1624 1388 OFFCURVE",
"1560 1402 OFFCURVE",
"1083 1402 CURVE",
"970 1402 LINE",
"970 1568 LINE",
"1093 1568 LINE"
);
},
{
closed = 1;
nodes = (
"978 1568 LINE",
"978 1402 LINE",
"865 1402 LINE",
"388 1402 OFFCURVE",
"324 1388 OFFCURVE",
"324 1132 CURVE",
"132 1132 LINE",
"132 1481 OFFCURVE",
"255 1568 OFFCURVE",
"855 1568 CURVE"
);
},
{
closed = 1;
nodes = (
"230 877 OFFCURVE",
"132 760 OFFCURVE",
"132 401 CURVE SMOOTH",
"132 101 LINE",
"324 101 LINE",
"324 401 LINE SMOOTH",
"324 667 OFFCURVE",
"363 716 OFFCURVE",
"840 716 CURVE SMOOTH",
"975 716 LINE",
"975 877 LINE",
"830 877 LINE"
);
},
{
closed = 1;
nodes = (
"132 160 LINE",
"132 0 LINE",
"1733 0 LINE",
"1733 160 LINE"
);
}
);
};
layerId = "3D86ED3E-BC30-4996-8F23-7FA448982149";
name = Regular;
paths = (
{
closed = 1;
nodes = (
"1719 686 OFFCURVE",
"1829 795 OFFCURVE",
"1829 1132 CURVE",
"1637 1132 LINE",
"1637 886 OFFCURVE",
"1623 847 OFFCURVE",
"1207 847 CURVE SMOOTH",
"849 847 LINE",
"849 686 LINE",
"1314 686 LINE SMOOTH"
);
},
{
closed = 1;
nodes = (
"1706 1568 OFFCURVE",
"1829 1481 OFFCURVE",
"1829 1132 CURVE",
"1637 1132 LINE",
"1637 1388 OFFCURVE",
"1573 1402 OFFCURVE",
"1117 1402 CURVE",
"1004 1402 LINE",
"1004 1568 LINE",
"1127 1568 LINE"
);
},
{
closed = 1;
nodes = (
"1012 1568 LINE",
"1012 1402 LINE",
"899 1402 LINE",
"422 1402 OFFCURVE",
"358 1388 OFFCURVE",
"358 1132 CURVE",
"166 1132 LINE",
"166 1481 OFFCURVE",
"289 1568 OFFCURVE",
"889 1568 CURVE"
);
},
{
closed = 1;
nodes = (
"264 847 OFFCURVE",
"166 730 OFFCURVE",
"166 371 CURVE SMOOTH",
"166 101 LINE",
"358 101 LINE",
"358 371 LINE SMOOTH",
"358 637 OFFCURVE",
"397 686 OFFCURVE",
"874 686 CURVE SMOOTH",
"1009 686 LINE",
"1009 847 LINE",
"864 847 LINE"
);
},
{
closed = 1;
nodes = (
"166 160 LINE",
"166 0 LINE",
"1768 0 LINE",
"1768 160 LINE"
);
}
);
width = 1948;
}
);
unicode = 0032;
},
{
glyphname = three;
lastChange = "2014-03-17 17:49:02 -0800";
layers = (
{
background = {
paths = (
{
closed = 1;
nodes = (
"1696 784 CURVE",
"1820 731 OFFCURVE",
"1856 613 OFFCURVE",
"1856 428 CURVE SMOOTH",
"1856 234 OFFCURVE",
"1790 101 OFFCURVE",
"1656 40 CURVE SMOOTH",
"1611 19 OFFCURVE",
"1558 4 OFFCURVE",
"1496 -7 CURVE SMOOTH",
"1400 -24 OFFCURVE",
"1242 -32 OFFCURVE",
"1024 -32 CURVE SMOOTH",
"784 -32 OFFCURVE",
"626 -27 OFFCURVE",
"550 -16 CURVE SMOOTH",
"408 4 OFFCURVE",
"306 36 OFFCURVE",
"232 118 CURVE SMOOTH",
"162 195 OFFCURVE",
"128 316 OFFCURVE",
"128 480 CURVE",
"320 480 LINE",
"320 341 OFFCURVE",
"320 241 OFFCURVE",
"408 190 CURVE SMOOTH",
"436 174 OFFCURVE",
"476 161 OFFCURVE",
"528 152 CURVE SMOOTH",
"618 136 OFFCURVE",
"745 128 OFFCURVE",
"908 128 CURVE SMOOTH",
"1071 128 OFFCURVE",
"1184 129 OFFCURVE",
"1249 130 CURVE SMOOTH",
"1401 132 OFFCURVE",
"1546 139 OFFCURVE",
"1611 223 CURVE SMOOTH",
"1646 268 OFFCURVE",
"1663 343 OFFCURVE",
"1663 449 CURVE SMOOTH",
"1663 554 OFFCURVE",
"1648 625 OFFCURVE",
"1616 661 CURVE SMOOTH",
"1591 690 OFFCURVE",
"1543 704 OFFCURVE",
"1472 704 CURVE SMOOTH",
"768 704 LINE",
"768 864 LINE",
"1472 864 LINE SMOOTH",
"1628 864 OFFCURVE",
"1663 924 OFFCURVE",
"1663 1087 CURVE SMOOTH",
"1663 1301 OFFCURVE",
"1609 1372 OFFCURVE",
"1417 1396 CURVE SMOOTH",
"1354 1404 OFFCURVE",
"1243 1408 OFFCURVE",
"1085 1408 CURVE SMOOTH",
"927 1408 OFFCURVE",
"808 1407 OFFCURVE",
"728 1404 CURVE SMOOTH",
"599 1399 OFFCURVE",
"486 1393 OFFCURVE",
"408 1352 CURVE SMOOTH",
"322 1307 OFFCURVE",
"320 1219 OFFCURVE",
"320 1088 CURVE",
"128 1088 LINE",
"128 1397 OFFCURVE",
"254 1517 OFFCURVE",
"536 1552 CURVE SMOOTH",
"624 1563 OFFCURVE",
"786 1568 OFFCURVE",
"1024 1568 CURVE SMOOTH",
"1242 1568 OFFCURVE",
"1390 1562 OFFCURVE",
"1469 1548 CURVE SMOOTH",
"1610 1524 OFFCURVE",
"1699 1495 OFFCURVE",
"1768 1412 CURVE SMOOTH",
"1826 1342 OFFCURVE",
"1856 1234 OFFCURVE",
"1856 1088 CURVE SMOOTH",
"1856 906 OFFCURVE",
"1808 832 OFFCURVE"
);
},
{
closed = 1;
nodes = (
"1696 784 CURVE",
"1820 731 OFFCURVE",
"1856 613 OFFCURVE",
"1856 428 CURVE SMOOTH",
"1856 234 OFFCURVE",
"1790 101 OFFCURVE",
"1656 40 CURVE SMOOTH",
"1611 19 OFFCURVE",
"1558 4 OFFCURVE",
"1496 -7 CURVE SMOOTH",
"1400 -24 OFFCURVE",
"1242 -32 OFFCURVE",
"1024 -32 CURVE SMOOTH",
"784 -32 OFFCURVE",
"626 -27 OFFCURVE",
"550 -16 CURVE SMOOTH",
"408 4 OFFCURVE",
"306 36 OFFCURVE",
"232 118 CURVE SMOOTH",
"162 195 OFFCURVE",
"128 316 OFFCURVE",
"128 480 CURVE",
"320 480 LINE",
"320 341 OFFCURVE",
"320 241 OFFCURVE",
"408 190 CURVE SMOOTH",
"436 174 OFFCURVE",
"476 161 OFFCURVE",
"528 152 CURVE SMOOTH",
"618 136 OFFCURVE",
"745 128 OFFCURVE",
"908 128 CURVE SMOOTH",
"1071 128 OFFCURVE",
"1184 129 OFFCURVE",
"1249 130 CURVE SMOOTH",
"1401 132 OFFCURVE",
"1546 139 OFFCURVE",
"1611 223 CURVE SMOOTH",
"1646 268 OFFCURVE",
"1663 343 OFFCURVE",
"1663 449 CURVE SMOOTH",
"1663 554 OFFCURVE",
"1648 625 OFFCURVE",
"1616 661 CURVE SMOOTH",
"1591 690 OFFCURVE",
"1543 704 OFFCURVE",
"1472 704 CURVE SMOOTH",
"768 704 LINE",
"768 864 LINE",
"1472 864 LINE SMOOTH",
"1628 864 OFFCURVE",
"1663 924 OFFCURVE",
"1663 1087 CURVE SMOOTH",
"1663 1301 OFFCURVE",
"1609 1372 OFFCURVE",
"1417 1396 CURVE SMOOTH",
"1354 1404 OFFCURVE",
"1243 1408 OFFCURVE",
"1085 1408 CURVE SMOOTH",
"927 1408 OFFCURVE",
"808 1407 OFFCURVE",
"728 1404 CURVE SMOOTH",
"599 1399 OFFCURVE",
"486 1393 OFFCURVE",
"408 1352 CURVE SMOOTH",
"322 1307 OFFCURVE",
"320 1219 OFFCURVE",
"320 1088 CURVE",
"128 1088 LINE",
"128 1397 OFFCURVE",
"254 1517 OFFCURVE",
"536 1552 CURVE SMOOTH",
"624 1563 OFFCURVE",
"786 1568 OFFCURVE",
"1024 1568 CURVE SMOOTH",
"1242 1568 OFFCURVE",
"1390 1562 OFFCURVE",
"1469 1548 CURVE SMOOTH",
"1610 1524 OFFCURVE",
"1699 1495 OFFCURVE",
"1768 1412 CURVE SMOOTH",
"1826 1342 OFFCURVE",
"1856 1234 OFFCURVE",
"1856 1088 CURVE SMOOTH",
"1856 906 OFFCURVE",
"1808 832 OFFCURVE"
);
}
);
};
layerId = "3D86ED3E-BC30-4996-8F23-7FA448982149";
name = Regular;
paths = (
{
closed = 1;
nodes = (
"1730 819 OFFCURVE",
"1816 925 OFFCURVE",
"1816 1132 CURVE",
"1624 1132 LINE",
"1624 916 OFFCURVE",
"1590 877 OFFCURVE",
"1153 877 CURVE SMOOTH",
"815 877 LINE",
"815 716 LINE",
"1113 716 LINE SMOOTH",
"1590 716 OFFCURVE",
"1624 681 OFFCURVE",
"1624 444 CURVE",
"1816 444 LINE",
"1816 659 OFFCURVE",
"1731 770 OFFCURVE",
"1607 796 CURVE"
);
},
{
closed = 1;
nodes = (
"975 -32 LINE",
"975 134 LINE",
"1108 134 LINE",
"1585 134 OFFCURVE",
"1624 178 OFFCURVE",
"1624 444 CURVE",
"1816 444 LINE",
"1816 85 OFFCURVE",
"1718 -32 OFFCURVE",
"1118 -32 CURVE"
);
},
{
closed = 1;
nodes = (
"1693 1568 OFFCURVE",
"1816 1481 OFFCURVE",
"1816 1132 CURVE",
"1624 1132 LINE",
"1624 1388 OFFCURVE",
"1560 1402 OFFCURVE",
"1083 1402 CURVE",
"970 1402 LINE",
"970 1568 LINE",
"1093 1568 LINE"
);
},
{
closed = 1;
nodes = (
"978 1568 LINE",
"978 1402 LINE",
"865 1402 LINE",
"388 1402 OFFCURVE",
"324 1388 OFFCURVE",
"324 1132 CURVE",
"132 1132 LINE",
"132 1481 OFFCURVE",
"255 1568 OFFCURVE",
"855 1568 CURVE"
);
},
{
closed = 1;
nodes = (
"230 -32 OFFCURVE",
"132 85 OFFCURVE",
"132 444 CURVE",
"324 444 LINE",
"324 178 OFFCURVE",
"363 134 OFFCURVE",
"840 134 CURVE",
"975 134 LINE",
"975 -32 LINE",
"830 -32 LINE"
);
}
);
width = 1948;
}
);
unicode = 0033;
},
{
glyphname = four;
layers = (
{
layerId = "3D86ED3E-BC30-4996-8F23-7FA448982149";
name = Regular;
paths = (
{
closed = 1;
nodes = (
"1664 320 LINE",
"1664 0 LINE",
"1472 0 LINE",
"1472 320 LINE",
"128 320 LINE",
"128 512 LINE",
"1408 1536 LINE",
"1664 1536 LINE",
"1664 480 LINE",
"1920 480 LINE",
"1920 320 LINE"
);
},
{
closed = 1;
nodes = (
"1472 480 LINE",
"1472 1408 LINE",
"320 480 LINE"
);
}
);
width = 2048;
}
);
unicode = 0034;
},
{
glyphname = five;
lastChange = "2014-03-17 18:30:21 -0800";
layers = (
{
background = {
paths = (
{
closed = 1;
nodes = (
"320 736 LINE",
"128 736 LINE",
"128 1536 LINE",
"1792 1536 LINE",
"1792 1376 LINE",
"320 1376 LINE"
);
},
{
closed = 1;
nodes = (
"320 736 LINE",
"128 736 LINE",
"128 1536 LINE",
"1792 1536 LINE",
"1792 1376 LINE",
"320 1376 LINE"
);
}
);
};
layerId = "3D86ED3E-BC30-4996-8F23-7FA448982149";
name = Regular;
paths = (
{
closed = 1;
nodes = (
"1628 544 LINE",
"1628 781 OFFCURVE",
"1594 816 OFFCURVE",
"1117 816 CURVE",
"1004 816 LINE",
"1004 976 LINE",
"1187 977 LINE",
"1744 977 OFFCURVE",
"1820 858 OFFCURVE",
"1820 544 CURVE"
);
},
{
closed = 1;
nodes = (
"330 735 LINE",
"370 908 OFFCURVE",
"483 977 OFFCURVE",
"725 977 CURVE",
"1018 976 LINE",
"1018 816 LINE",
"905 816 LINE",
"608 816 OFFCURVE",
"483 802 OFFCURVE",
"430 735 CURVE"
);
},
{
closed = 1;
nodes = (
"979 -32 LINE",
"979 134 LINE",
"1112 134 LINE",
"1589 134 OFFCURVE",
"1628 176 OFFCURVE",
"1628 444 CURVE SMOOTH",
"1628 544 LINE",
"1820 544 LINE",
"1820 444 LINE SMOOTH",
"1820 83 OFFCURVE",
"1722 -32 OFFCURVE",
"1122 -32 CURVE"
);
},
{
closed = 1;
nodes = (
"275 -32 OFFCURVE",
"177 85 OFFCURVE",
"177 444 CURVE",
"369 444 LINE",
"369 178 OFFCURVE",
"408 134 OFFCURVE",
"885 134 CURVE",
"979 134 LINE",
"979 -32 LINE",
"875 -32 LINE"
);
},
{
closed = 1;
nodes = (
"395 735 LINE",
"203 735 LINE",
"203 1536 LINE",
"1752 1536 LINE",
"1752 1376 LINE",
"395 1376 LINE"
);
}
);
width = 1948;
}
);
unicode = 0035;
},
{
glyphname = six;
lastChange = "2014-03-17 18:02:49 -0800";
layers = (
{
background = {
paths = (
{
closed = 1;
nodes = (
"1730 819 OFFCURVE",
"1816 925 OFFCURVE",
"1816 1132 CURVE",
"1624 1132 LINE",
"1624 916 OFFCURVE",
"1590 877 OFFCURVE",
"1153 877 CURVE SMOOTH",
"815 877 LINE",
"815 716 LINE",
"1113 716 LINE SMOOTH",
"1590 716 OFFCURVE",
"1624 681 OFFCURVE",
"1624 444 CURVE",
"1816 444 LINE",
"1816 659 OFFCURVE",
"1731 770 OFFCURVE",
"1607 796 CURVE"
);
},
{
closed = 1;
nodes = (
"975 -32 LINE",
"975 134 LINE",
"1108 134 LINE",
"1585 134 OFFCURVE",
"1624 178 OFFCURVE",
"1624 444 CURVE",
"1816 444 LINE",
"1816 85 OFFCURVE",
"1718 -32 OFFCURVE",
"1118 -32 CURVE"
);
},
{
closed = 1;
nodes = (
"1693 1568 OFFCURVE",
"1816 1481 OFFCURVE",
"1816 1132 CURVE",
"1624 1132 LINE",
"1624 1388 OFFCURVE",
"1560 1402 OFFCURVE",
"1083 1402 CURVE",
"970 1402 LINE",
"970 1568 LINE",
"1093 1568 LINE"
);
},
{
closed = 1;
nodes = (
"978 1568 LINE",
"978 1402 LINE",
"865 1402 LINE",
"388 1402 OFFCURVE",
"324 1388 OFFCURVE",
"324 1132 CURVE",
"132 1132 LINE",
"132 1481 OFFCURVE",
"255 1568 OFFCURVE",
"855 1568 CURVE"
);
},
{
closed = 1;
nodes = (
"230 -32 OFFCURVE",
"132 85 OFFCURVE",
"132 444 CURVE",
"324 444 LINE",
"324 178 OFFCURVE",
"363 134 OFFCURVE",
"840 134 CURVE",
"975 134 LINE",
"975 -32 LINE",
"830 -32 LINE"
);
},
{
closed = 1;
nodes = (
"132 444 LINE",
"324 444 LINE",
"324 681 OFFCURVE",
"358 716 OFFCURVE",
"835 716 CURVE SMOOTH",
"1133 716 LINE",
"1133 877 LINE",
"795 877 LINE SMOOTH",
"358 877 OFFCURVE",
"324 916 OFFCURVE",
"324 1132 CURVE",
"132 1132 LINE"
);
}
);
};
layerId = "3D86ED3E-BC30-4996-8F23-7FA448982149";
name = Regular;
paths = (
{
closed = 1;
nodes = (
"1839 758 OFFCURVE",
"1763 877 OFFCURVE",
"1206 877 CURVE",
"952 876 LINE",
"952 716 LINE",
"1136 716 LINE",
"1613 716 OFFCURVE",
"1647 681 OFFCURVE",
"1647 444 CURVE",
"1839 444 LINE"
);
},
{
closed = 1;
nodes = (
"998 -32 LINE",
"998 134 LINE",
"1131 134 LINE",
"1608 134 OFFCURVE",
"1647 178 OFFCURVE",
"1647 444 CURVE",
"1839 444 LINE",
"1839 85 OFFCURVE",
"1741 -32 OFFCURVE",
"1141 -32 CURVE"
);
},
{
closed = 1;
nodes = (
"1001 1568 LINE",
"1001 1402 LINE",
"888 1402 LINE",
"411 1402 OFFCURVE",
"347 1378 OFFCURVE",
"347 1122 CURVE",
"155 1122 LINE",
"155 1471 OFFCURVE",
"278 1568 OFFCURVE",
"878 1568 CURVE"
);
},
{
closed = 1;
nodes = (
"253 -32 OFFCURVE",
"155 85 OFFCURVE",
"155 444 CURVE",
"347 444 LINE",
"347 178 OFFCURVE",
"386 134 OFFCURVE",
"863 134 CURVE",
"998 134 LINE",
"998 -32 LINE",
"853 -32 LINE"
);
},
{
closed = 1;
nodes = (
"155 444 LINE",
"347 444 LINE",
"347 1122 LINE",
"155 1122 LINE"
);
},
{
closed = 1;
nodes = (
"1706 1568 OFFCURVE",
"1805 1481 OFFCURVE",
"1805 1132 CURVE",
"1613 1132 LINE",
"1613 1388 OFFCURVE",
"1573 1402 OFFCURVE",
"1106 1402 CURVE",
"993 1402 LINE",
"993 1568 LINE",
"1116 1568 LINE"
);
},
{
closed = 1;
nodes = (
"347 444 LINE",
"347 681 OFFCURVE",
"381 716 OFFCURVE",
"858 716 CURVE",
"1042 716 LINE",
"1042 876 LINE",
"678 877 LINE",
"361 877 OFFCURVE",
"265 758 OFFCURVE",
"265 444 CURVE"
);
}
);
width = 1948;
}
);
unicode = 0036;
},
{
glyphname = seven;
layers = (
{
layerId = "3D86ED3E-BC30-4996-8F23-7FA448982149";
name = Regular;
paths = (
{
closed = 1;
nodes = (
"704 0 LINE",
"448 0 LINE",
"1632 1376 LINE",
"128 1376 LINE",
"128 1536 LINE",
"1856 1536 LINE",
"1856 1344 LINE"
);
}
);
width = 1984;
}
);
unicode = 0037;
},
{
glyphname = eight;
lastChange = "2014-03-17 17:49:46 -0800";
layers = (
{
background = {
paths = (
{
closed = 1;
nodes = (
"1599 816 CURVE",
"1778 750 OFFCURVE",
"1855 639 OFFCURVE",
"1855 427 CURVE SMOOTH",
"1855 198 OFFCURVE",
"1764 81 OFFCURVE",
"1590 22 CURVE SMOOTH",
"1485 -14 OFFCURVE",
"1339 -32 OFFCURVE",
"1151 -32 CURVE SMOOTH",
"830 -32 LINE SMOOTH",
"557 -32 OFFCURVE",
"368 8 OFFCURVE",
"263 88 CURVE SMOOTH",
"174 156 OFFCURVE",
"127 265 OFFCURVE",
"127 408 CURVE SMOOTH",
"127 522 OFFCURVE",
"137 591 OFFCURVE",
"178 661 CURVE SMOOTH",
"218 729 OFFCURVE",
"287 781 OFFCURVE",
"383 816 CURVE",
"262 861 OFFCURVE",
"190 937 OFFCURVE",
"169 1044 CURVE SMOOTH",
"162 1078 OFFCURVE",
"159 1121 OFFCURVE",
"159 1174 CURVE SMOOTH",
"159 1305 OFFCURVE",
"208 1403 OFFCURVE",
"295 1462 CURVE SMOOTH",
"400 1533 OFFCURVE",
"588 1568 OFFCURVE",
"862 1568 CURVE SMOOTH",
"1120 1568 LINE SMOOTH",
"1394 1568 OFFCURVE",
"1582 1533 OFFCURVE",
"1687 1462 CURVE SMOOTH",
"1774 1403 OFFCURVE",
"1823 1305 OFFCURVE",
"1823 1174 CURVE SMOOTH",
"1823 967 OFFCURVE",
"1755 874 OFFCURVE"
);
},
{
closed = 1;
nodes = (
"1151 128 LINE SMOOTH",
"1301 128 OFFCURVE",
"1402 135 OFFCURVE",
"1457 149 CURVE SMOOTH",
"1546 172 OFFCURVE",
"1594 190 OFFCURVE",
"1629 250 CURVE SMOOTH",
"1651 289 OFFCURVE",
"1663 338 OFFCURVE",
"1663 398 CURVE SMOOTH",
"1663 539 OFFCURVE",
"1656 613 OFFCURVE",
"1575 668 CURVE SMOOTH",
"1551 684 OFFCURVE",
"1521 697 OFFCURVE",
"1483 707 CURVE SMOOTH",
"1410 726 OFFCURVE",
"1299 736 OFFCURVE",
"1151 736 CURVE SMOOTH",
"830 736 LINE SMOOTH",
"682 736 OFFCURVE",
"580 729 OFFCURVE",
"525 714 CURVE SMOOTH",
"435 690 OFFCURVE",
"386 671 OFFCURVE",
"351 610 CURVE SMOOTH",
"329 573 OFFCURVE",
"319 524 OFFCURVE",
"319 464 CURVE SMOOTH",
"319 324 OFFCURVE",
"326 246 OFFCURVE",
"407 193 CURVE SMOOTH",
"430 178 OFFCURVE",
"461 166 OFFCURVE",
"499 156 CURVE SMOOTH",
"571 138 OFFCURVE",
"681 128 OFFCURVE",
"830 128 CURVE SMOOTH"
);
},
{
closed = 1;
nodes = (
"1151 896 LINE SMOOTH",
"1355 896 OFFCURVE",
"1487 913 OFFCURVE",
"1547 948 CURVE SMOOTH",
"1610 984 OFFCURVE",
"1631 1046 OFFCURVE",
"1631 1139 CURVE SMOOTH",
"1631 1253 OFFCURVE",
"1616 1316 OFFCURVE",
"1543 1355 CURVE SMOOTH",
"1519 1368 OFFCURVE",
"1489 1378 OFFCURVE",
"1451 1386 CURVE SMOOTH",
"1381 1401 OFFCURVE",
"1271 1408 OFFCURVE",
"1119 1408 CURVE SMOOTH",
"862 1408 LINE SMOOTH",
"710 1408 OFFCURVE",
"607 1402 OFFCURVE",
"554 1391 CURVE SMOOTH",
"423 1363 OFFCURVE",
"351 1328 OFFCURVE",
"351 1180 CURVE SMOOTH",
"351 1053 OFFCURVE",
"360 989 OFFCURVE",
"439 946 CURVE SMOOTH",
"462 933 OFFCURVE",
"493 923 OFFCURVE",
"531 916 CURVE SMOOTH",
"600 903 OFFCURVE",
"710 896 OFFCURVE",
"862 896 CURVE SMOOTH"
);
}
);
};
layerId = "3D86ED3E-BC30-4996-8F23-7FA448982149";
name = Regular;
paths = (
{
closed = 1;
nodes = (
"1730 819 OFFCURVE",
"1816 925 OFFCURVE",
"1816 1132 CURVE",
"1624 1132 LINE",
"1624 916 OFFCURVE",
"1590 877 OFFCURVE",
"1153 877 CURVE SMOOTH",
"815 877 LINE",
"815 716 LINE",
"1113 716 LINE SMOOTH",
"1590 716 OFFCURVE",
"1624 681 OFFCURVE",
"1624 444 CURVE",
"1816 444 LINE",
"1816 659 OFFCURVE",
"1731 770 OFFCURVE",
"1607 796 CURVE"
);
},
{
closed = 1;
nodes = (
"975 -32 LINE",
"975 134 LINE",
"1108 134 LINE",
"1585 134 OFFCURVE",
"1624 178 OFFCURVE",
"1624 444 CURVE",
"1816 444 LINE",
"1816 85 OFFCURVE",
"1718 -32 OFFCURVE",
"1118 -32 CURVE"
);
},
{
closed = 1;
nodes = (
"1693 1568 OFFCURVE",
"1816 1481 OFFCURVE",
"1816 1132 CURVE",
"1624 1132 LINE",
"1624 1388 OFFCURVE",
"1560 1402 OFFCURVE",
"1083 1402 CURVE",
"970 1402 LINE",
"970 1568 LINE",
"1093 1568 LINE"
);
},
{
closed = 1;
nodes = (
"978 1568 LINE",
"978 1402 LINE",
"865 1402 LINE",
"388 1402 OFFCURVE",
"324 1388 OFFCURVE",
"324 1132 CURVE",
"132 1132 LINE",
"132 1481 OFFCURVE",
"255 1568 OFFCURVE",
"855 1568 CURVE"
);
},
{
closed = 1;
nodes = (
"230 -32 OFFCURVE",
"132 85 OFFCURVE",
"132 444 CURVE",
"324 444 LINE",
"324 178 OFFCURVE",
"363 134 OFFCURVE",
"840 134 CURVE",
"975 134 LINE",
"975 -32 LINE",
"830 -32 LINE"
);
},
{
closed = 1;
nodes = (
"217 770 OFFCURVE",
"132 659 OFFCURVE",
"132 444 CURVE",
"324 444 LINE",
"324 681 OFFCURVE",
"358 716 OFFCURVE",
"835 716 CURVE SMOOTH",
"1133 716 LINE",
"1133 877 LINE",
"795 877 LINE SMOOTH",
"358 877 OFFCURVE",
"324 916 OFFCURVE",
"324 1132 CURVE",
"132 1132 LINE",
"132 925 OFFCURVE",
"218 819 OFFCURVE",
"341 796 CURVE"
);
}
);
width = 1948;
}
);
unicode = 0038;
},
{
glyphname = nine;
lastChange = "2014-03-17 17:55:19 -0800";
layers = (
{
layerId = "3D86ED3E-BC30-4996-8F23-7FA448982149";
name = Regular;
paths = (
{
closed = 1;
nodes = (
"132 778 OFFCURVE",
"208 659 OFFCURVE",
"765 659 CURVE",
"1019 660 LINE",
"1019 820 LINE",
"835 820 LINE",
"358 820 OFFCURVE",
"324 855 OFFCURVE",
"324 1092 CURVE",
"132 1092 LINE"
);
},
{
closed = 1;
nodes = (
"973 1568 LINE",
"973 1402 LINE",
"840 1402 LINE",
"363 1402 OFFCURVE",
"324 1358 OFFCURVE",
"324 1092 CURVE",
"132 1092 LINE",
"132 1451 OFFCURVE",
"230 1568 OFFCURVE",
"830 1568 CURVE"
);
},
{
closed = 1;
nodes = (
"970 -32 LINE",
"970 134 LINE",
"1083 134 LINE",
"1560 134 OFFCURVE",
"1624 168 OFFCURVE",
"1624 424 CURVE",
"1816 424 LINE",
"1816 75 OFFCURVE",
"1693 -32 OFFCURVE",
"1093 -32 CURVE"
);
},
{
closed = 1;
nodes = (
"1718 1568 OFFCURVE",
"1816 1451 OFFCURVE",
"1816 1092 CURVE",
"1624 1092 LINE",
"1624 1358 OFFCURVE",
"1585 1402 OFFCURVE",
"1108 1402 CURVE",
"973 1402 LINE",
"973 1568 LINE",
"1118 1568 LINE"
);
},
{
closed = 1;
nodes = (
"1816 1092 LINE",
"1624 1092 LINE",
"1624 424 LINE",
"1816 424 LINE"
);
},
{
closed = 1;
nodes = (
"256 -32 OFFCURVE",
"157 55 OFFCURVE",
"157 404 CURVE",
"349 404 LINE",
"349 148 OFFCURVE",
"389 134 OFFCURVE",
"865 134 CURVE",
"978 134 LINE",
"978 -32 LINE",
"855 -32 LINE"
);
},
{
closed = 1;
nodes = (
"1624 1092 LINE",
"1624 855 OFFCURVE",
"1590 820 OFFCURVE",
"1113 820 CURVE",
"929 820 LINE",
"929 660 LINE",
"1293 659 LINE",
"1610 659 OFFCURVE",
"1706 778 OFFCURVE",
"1706 1092 CURVE"
);
}
);
width = 1984;
}
);
unicode = 0039;
},
{
glyphname = fraction;
layers = (
{
layerId = "3D86ED3E-BC30-4996-8F23-7FA448982149";
name = Regular;
paths = (
{
closed = 1;
nodes = (
"64 0 LINE",
"768 1536 LINE",
"960 1536 LINE",
"256 0 LINE"
);
}
);
width = 1023;
}
);
unicode = 2044;
},
{
glyphname = onesuperior;
layers = (
{
layerId = "3D86ED3E-BC30-4996-8F23-7FA448982149";
name = Regular;
paths = (
{
closed = 1;
nodes = (
"64 1120 LINE",
"512 1536 LINE",
"768 1536 LINE",
"768 448 LINE",
"576 448 LINE",
"576 1376 LINE",
"160 992 LINE"
);
}
);
width = 896;
}
);
unicode = 00B9;
},
{
glyphname = twosuperior;
layers = (
{
layerId = "3D86ED3E-BC30-4996-8F23-7FA448982149";
name = Regular;
paths = (
{
closed = 1;
nodes = (
"128 448 LINE",
"128 672 LINE SMOOTH",
"128 753 OFFCURVE",
"144 812 OFFCURVE",
"178 849 CURVE SMOOTH",
"223 899 OFFCURVE",
"313 936 OFFCURVE",
"448 962 CURVE SMOOTH",
"834 1035 LINE SMOOTH",
"971 1062 OFFCURVE",
"1024 1090 OFFCURVE",
"1024 1242 CURVE SMOOTH",
"1024 1369 OFFCURVE",
"964 1398 OFFCURVE",
"842 1404 CURVE SMOOTH",
"797 1406 OFFCURVE",
"727 1408 OFFCURVE",
"632 1408 CURVE SMOOTH",
"537 1408 OFFCURVE",
"467 1404 OFFCURVE",
"420 1396 CURVE SMOOTH",
"332 1382 OFFCURVE",
"320 1361 OFFCURVE",
"320 1248 CURVE",
"128 1248 LINE",
"128 1350 OFFCURVE",
"149 1425 OFFCURVE",
"190 1472 CURVE SMOOTH",
"267 1560 OFFCURVE",
"408 1569 OFFCURVE",
"565 1569 CURVE SMOOTH",
"608 1569 OFFCURVE",
"652 1568 OFFCURVE",
"697 1568 CURVE SMOOTH",
"838 1568 OFFCURVE",
"989 1566 OFFCURVE",
"1082 1522 CURVE SMOOTH",
"1186 1473 OFFCURVE",
"1216 1386 OFFCURVE",
"1216 1220 CURVE SMOOTH",
"1216 1127 OFFCURVE",
"1194 1055 OFFCURVE",
"1150 1004 CURVE SMOOTH",
"1102 947 OFFCURVE",
"1018 907 OFFCURVE",
"898 884 CURVE SMOOTH",
"640 833 LINE SMOOTH",
"520 809 OFFCURVE",
"446 792 OFFCURVE",
"416 782 CURVE SMOOTH",
"332 755 OFFCURVE",
"320 733 OFFCURVE",
"320 608 CURVE",
"1186 608 LINE",
"1186 448 LINE"
);
}
);
width = 1344;
}
);
unicode = 00B2;
},
{
glyphname = threesuperior;
layers = (
{
layerId = "3D86ED3E-BC30-4996-8F23-7FA448982149";
name = Regular;
paths = (
{
closed = 1;
nodes = (
"971 1377 CURVE SMOOTH",
"909 1377 OFFCURVE",
"834 1376 OFFCURVE",
"705 1376 CURVE SMOOTH",
"586 1376 OFFCURVE",
"503 1374 OFFCURVE",
"455 1370 CURVE SMOOTH",
"422 1367 OFFCURVE",
"396 1362 OFFCURVE",
"378 1355 CURVE SMOOTH",
"326 1336 OFFCURVE",
"320 1309 OFFCURVE",
"320 1218 CURVE",
"128 1218 LINE",
"128 1330 OFFCURVE",
"153 1409 OFFCURVE",
"202 1456 CURVE SMOOTH",
"274 1525 OFFCURVE",
"403 1537 OFFCURVE",
"544 1537 CURVE SMOOTH",
"628 1537 OFFCURVE",
"702 1536 OFFCURVE",
"839 1536 CURVE SMOOTH",
"955 1536 OFFCURVE",
"1040 1533 OFFCURVE",
"1093 1526 CURVE SMOOTH",
"1136 1521 OFFCURVE",
"1173 1512 OFFCURVE",
"1204 1499 CURVE SMOOTH",
"1312 1455 OFFCURVE",
"1343 1362 OFFCURVE",
"1343 1204 CURVE SMOOTH",
"1343 1070 OFFCURVE",
"1291 1010 OFFCURVE",
"1183 976 CURVE",
"1314 923 OFFCURVE",
"1343 882 OFFCURVE",
"1343 706 CURVE SMOOTH",
"1343 416 OFFCURVE",
"1083 416 OFFCURVE",
"791 416 CURVE SMOOTH",
"701 416 OFFCURVE",
"631 415 OFFCURVE",
"565 415 CURVE SMOOTH",
"380 415 OFFCURVE",
"259 441 OFFCURVE",
"202 490 CURVE SMOOTH",
"153 532 OFFCURVE",
"128 603 OFFCURVE",
"128 703 CURVE",
"320 703 LINE",
"320 595 OFFCURVE",
"358 589 OFFCURVE",
"455 582 CURVE SMOOTH",
"525 577 OFFCURVE",
"593 576 OFFCURVE",
"671 576 CURVE SMOOTH",
"770 576 LINE SMOOTH",
"845 576 OFFCURVE",
"908 577 OFFCURVE",
"957 578 CURVE SMOOTH",
"1006 579 OFFCURVE",
"1046 584 OFFCURVE",
"1074 594 CURVE SMOOTH",
"1136 615 OFFCURVE",
"1150 657 OFFCURVE",
"1150 746 CURVE SMOOTH",
"1150 794 OFFCURVE",
"1138 831 OFFCURVE",
"1115 857 CURVE SMOOTH",
"1082 895 OFFCURVE",
"1028 896 OFFCURVE",
"959 896 CURVE SMOOTH",
"768 896 LINE",
"768 1056 LINE",
"959 1056 LINE SMOOTH",
"1100 1056 OFFCURVE",
"1150 1091 OFFCURVE",
"1150 1226 CURVE SMOOTH",
"1150 1349 OFFCURVE",
"1095 1377 OFFCURVE"
);
}
);
width = 1471;
}
);
unicode = 00B3;
},
{
glyphname = foursuperior;
layers = (
{
layerId = "3D86ED3E-BC30-4996-8F23-7FA448982149";
name = Regular;
paths = (
{
closed = 1;
nodes = (
"1344 192 LINE",
"1152 192 LINE",
"1152 0 LINE",
"960 0 LINE",
"960 192 LINE",
"128 192 LINE",
"128 384 LINE",
"896 1088 LINE",
"1152 1088 LINE",
"1152 352 LINE",
"1344 352 LINE"
);
},
{
closed = 1;
nodes = (
"320 352 LINE",
"960 352 LINE",
"960 960 LINE"
);
}
);
width = 1472;
}
);
unicode = 2074;
},
{
glyphname = asterisk;
layers = (
{
layerId = "3D86ED3E-BC30-4996-8F23-7FA448982149";
name = Regular;
paths = (
{
closed = 1;
nodes = (
"420 384 LINE",
"264 495 LINE",
"628 896 LINE",
"128 1072 LINE",
"228 1250 LINE",
"660 992 LINE",
"612 1536 LINE",
"804 1536 LINE",
"756 992 LINE",
"1187 1250 LINE",
"1287 1072 LINE",
"788 896 LINE",
"1152 495 LINE",
"996 384 LINE",
"708 834 LINE"
);
}
);
width = 1415;
}
);
unicode = 002A;
},
{
glyphname = backslash;
layers = (
{
layerId = "3D86ED3E-BC30-4996-8F23-7FA448982149";
name = Regular;
paths = (
{
closed = 1;
nodes = (
"960 0 LINE",
"768 0 LINE",
"64 1536 LINE",
"256 1536 LINE"
);
}
);
width = 1023;
}
);
unicode = 005C;
},
{
glyphname = bullet;
layers = (
{
layerId = "3D86ED3E-BC30-4996-8F23-7FA448982149";
name = Regular;
paths = (
{
closed = 1;
nodes = (
"384 512 CURVE SMOOTH",
"384 683 OFFCURVE",
"469 768 OFFCURVE",
"640 768 CURVE SMOOTH",
"810 768 OFFCURVE",
"896 683 OFFCURVE",
"896 512 CURVE SMOOTH",
"896 342 OFFCURVE",
"805 256 OFFCURVE",
"640 256 CURVE SMOOTH",
"470 256 OFFCURVE",
"384 340 OFFCURVE"
);
}
);
width = 1280;
}
);
unicode = 2022;
},
{
glyphname = colon;
layers = (
{
layerId = "3D86ED3E-BC30-4996-8F23-7FA448982149";
name = Regular;
paths = (
{
closed = 1;
nodes = (
"320 768 LINE",
"128 768 LINE",
"128 960 LINE",
"320 960 LINE"
);
},
{
closed = 1;
nodes = (
"320 192 LINE",
"128 192 LINE",
"128 384 LINE",
"320 384 LINE"
);
}
);
width = 448;
}
);
unicode = 003A;
},
{
glyphname = comma;
layers = (
{
layerId = "3D86ED3E-BC30-4996-8F23-7FA448982149";
name = Regular;
paths = (
{
closed = 1;
nodes = (
"128 128 LINE",
"320 128 LINE",
"192 -256 LINE",
"64 -256 LINE"
);
}
);
width = 448;
}
);
unicode = 002C;
},
{
glyphname = exclam;
lastChange = "2014-03-17 18:24:49 -0800";
layers = (
{
layerId = "3D86ED3E-BC30-4996-8F23-7FA448982149";
name = Regular;
paths = (
{
closed = 1;
nodes = (
"188 1536 LINE",
"380 1536 LINE",
"332 448 LINE",
"236 448 LINE"
);
},
{
closed = 1;
nodes = (
"380 0 LINE",
"188 0 LINE",
"188 192 LINE",
"380 192 LINE"
);
}
);
width = 568;
}
);
unicode = 0021;
},
{
glyphname = numbersign;
lastChange = "2014-03-17 18:52:38 -0800";
layers = (
{
background = {
paths = (
{
closed = 1;
nodes = (
"415 -128 LINE",
"255 -80 LINE",
"640 1472 LINE",
"800 1424 LINE"
);
}
);
};
layerId = "3D86ED3E-BC30-4996-8F23-7FA448982149";
name = Regular;
paths = (
{
closed = 1;
nodes = (
"209 1012 LINE",
"209 1152 LINE",
"1525 1152 LINE",
"1525 1012 LINE"
);
},
{
closed = 1;
nodes = (
"1421 588 LINE",
"1421 448 LINE",
"105 448 LINE",
"105 588 LINE"
);
},
{
closed = 1;
nodes = (
"378 -104 LINE",
"212 -104 LINE",
"597 1536 LINE",
"767 1536 LINE"
);
},
{
closed = 1;
nodes = (
"998 -104 LINE",
"832 -104 LINE",
"1217 1536 LINE",
"1387 1536 LINE"
);
}
);
width = 1536;
}
);
unicode = 0023;
},
{
glyphname = period;
layers = (
{
layerId = "3D86ED3E-BC30-4996-8F23-7FA448982149";
name = Regular;
paths = (
{
closed = 1;
nodes = (
"320 0 LINE",
"128 0 LINE",
"128 192 LINE",
"320 192 LINE"
);
}
);
width = 448;
}
);
unicode = 002E;
},
{
glyphname = periodcentered;
layers = (
{
layerId = "3D86ED3E-BC30-4996-8F23-7FA448982149";
name = Regular;
paths = (
{
closed = 1;
nodes = (
"320 896 LINE",
"320 704 LINE",
"128 704 LINE",
"128 896 LINE"
);
}
);
width = 448;
}
);
unicode = 00B7;
},
{
glyphname = question;
lastChange = "2014-03-17 18:17:26 -0800";
layers = (
{
background = {
paths = (
{
closed = 1;
nodes = (
"1728 1153 CURVE SMOOTH",
"1728 890 OFFCURVE",
"1572 736 OFFCURVE",
"1292 736 CURVE SMOOTH",
"1093 736 OFFCURVE",
"946 728 OFFCURVE",
"910 571 CURVE SMOOTH",
"900 529 OFFCURVE",
"896 445 OFFCURVE",
"896 321 CURVE",
"704 321 LINE",
"704 387 LINE SMOOTH",
"704 496 OFFCURVE",
"709 572 OFFCURVE",
"720 616 CURVE SMOOTH",
"772 826 OFFCURVE",
"940 896 OFFCURVE",
"1216 896 CURVE SMOOTH",
"1438 896 OFFCURVE",
"1535 943 OFFCURVE",
"1535 1152 CURVE SMOOTH",
"1535 1273 OFFCURVE",
"1507 1340 OFFCURVE",
"1424 1374 CURVE SMOOTH",
"1384 1390 OFFCURVE",
"1331 1401 OFFCURVE",
"1266 1404 CURVE SMOOTH",
"1201 1407 OFFCURVE",
"1115 1408 OFFCURVE",
"1008 1408 CURVE SMOOTH",
"831 1408 OFFCURVE",
"667 1408 OFFCURVE",
"528 1388 CURVE SMOOTH",
"411 1371 OFFCURVE",
"333 1343 OFFCURVE",
"324 1228 CURVE SMOOTH",
"322 1198 OFFCURVE",
"320 1163 OFFCURVE",
"320 1122 CURVE",
"128 1122 LINE",
"128 1264 OFFCURVE",
"162 1369 OFFCURVE",
"232 1436 CURVE SMOOTH",
"318 1519 OFFCURVE",
"494 1562 OFFCURVE",
"758 1566 CURVE SMOOTH",
"840 1567 OFFCURVE",
"923 1568 OFFCURVE",
"1008 1568 CURVE SMOOTH",
"1034 1568 LINE SMOOTH",
"1288 1568 OFFCURVE",
"1526 1566 OFFCURVE",
"1645 1432 CURVE SMOOTH",
"1700 1370 OFFCURVE",
"1728 1277 OFFCURVE"
);
},
{
closed = 1;
nodes = (
"896 0 LINE",
"704 0 LINE",
"704 192 LINE",
"896 192 LINE"
);
}
);
};
layerId = "3D86ED3E-BC30-4996-8F23-7FA448982149";
name = Regular;
paths = (
{
closed = 1;
nodes = (
"1400 1568 OFFCURVE",
"1657 1543 OFFCURVE",
"1657 1153 CURVE SMOOTH",
"1657 890 OFFCURVE",
"1609 736 OFFCURVE",
"1214 736 CURVE SMOOTH",
"1063 736 LINE SMOOTH",
"882 736 OFFCURVE",
"877 719 OFFCURVE",
"876 474 CURVE SMOOTH",
"876 321 LINE",
"684 321 LINE",
"684 474 LINE SMOOTH",
"684 836 OFFCURVE",
"727 895 OFFCURVE",
"1063 895 CURVE SMOOTH",
"1214 895 LINE SMOOTH",
"1423 895 OFFCURVE",
"1465 943 OFFCURVE",
"1465 1153 CURVE SMOOTH",
"1465 1393 OFFCURVE",
"1360 1408 OFFCURVE",
"988 1408 CURVE SMOOTH",
"457 1408 OFFCURVE",
"410 1381 OFFCURVE",
"410 1122 CURVE",
"218 1122 LINE",
"218 1560 OFFCURVE",
"447 1568 OFFCURVE",
"988 1568 CURVE SMOOTH"
);
},
{
closed = 1;
nodes = (
"876 0 LINE",
"684 0 LINE",
"684 192 LINE",
"876 192 LINE"
);
}
);
width = 1856;
}
);
unicode = 003F;
},
{
glyphname = quotedbl;
layers = (
{
layerId = "3D86ED3E-BC30-4996-8F23-7FA448982149";
name = Regular;
paths = (
{
closed = 1;
nodes = (
"128 1536 LINE",
"320 1536 LINE",
"288 1152 LINE",
"160 1152 LINE"
);
},
{
closed = 1;
nodes = (
"448 1536 LINE",
"640 1536 LINE",
"608 1152 LINE",
"480 1152 LINE"
);
}
);
width = 768;
}
);
unicode = 0022;
},
{
glyphname = quotesingle;
layers = (
{
layerId = "3D86ED3E-BC30-4996-8F23-7FA448982149";
name = Regular;
paths = (
{
closed = 1;
nodes = (
"128 1536 LINE",
"320 1536 LINE",
"288 1152 LINE",
"160 1152 LINE"
);
}
);
width = 448;
}
);
unicode = 0027;
},
{
glyphname = semicolon;
layers = (
{
layerId = "3D86ED3E-BC30-4996-8F23-7FA448982149";
name = Regular;
paths = (
{
closed = 1;
nodes = (
"128 512 LINE",
"320 512 LINE",
"192 128 LINE",
"64 128 LINE"
);
},
{
closed = 1;
nodes = (
"320 768 LINE",
"128 768 LINE",
"128 960 LINE",
"320 960 LINE"
);
}
);
width = 448;
}
);
unicode = 003B;
},
{
glyphname = slash;
layers = (
{
layerId = "3D86ED3E-BC30-4996-8F23-7FA448982149";
name = Regular;
paths = (
{
closed = 1;
nodes = (
"768 1536 LINE",
"960 1536 LINE",
"256 0 LINE",
"64 0 LINE"
);
}
);
width = 1023;
}
);
unicode = 002F;
},
{
glyphname = underscore;
layers = (
{
layerId = "3D86ED3E-BC30-4996-8F23-7FA448982149";
name = Regular;
paths = (
{
closed = 1;
nodes = (
"0 0 LINE",
"1088 0 LINE",
"1088 -160 LINE",
"0 -160 LINE"
);
}
);
width = 1088;
}
);
unicode = 005F;
},
{
glyphname = braceleft;
lastChange = "2014-03-17 18:37:19 -0800";
layers = (
{
layerId = "3D86ED3E-BC30-4996-8F23-7FA448982149";
name = Regular;
paths = (
{
closed = 1;
nodes = (
"128 680 LINE",
"128 760 LINE",
"308 760 OFFCURVE",
"320 759 OFFCURVE",
"320 855 CURVE SMOOTH",
"322 1287 LINE SMOOTH",
"323 1605 OFFCURVE",
"436 1642 OFFCURVE",
"832 1642 CURVE",
"832 1482 LINE",
"527 1482 OFFCURVE",
"513 1481 OFFCURVE",
"512 1267 CURVE SMOOTH",
"510 852 LINE SMOOTH",
"510 757 OFFCURVE",
"493 680 OFFCURVE",
"384 680 CURVE SMOOTH"
);
},
{
closed = 1;
nodes = (
"493 680 OFFCURVE",
"510 603 OFFCURVE",
"510 508 CURVE SMOOTH",
"512 93 LINE SMOOTH",
"513 -121 OFFCURVE",
"527 -122 OFFCURVE",
"832 -122 CURVE",
"832 -282 LINE",
"436 -282 OFFCURVE",
"323 -245 OFFCURVE",
"322 73 CURVE SMOOTH",
"320 505 LINE SMOOTH",
"320 601 OFFCURVE",
"308 600 OFFCURVE",
"128 600 CURVE",
"128 680 LINE",
"384 680 LINE SMOOTH"
);
}
);
width = 960;
}
);
unicode = 007B;
},
{
glyphname = braceright;
lastChange = "2014-03-17 18:38:05 -0800";
layers = (
{
layerId = "3D86ED3E-BC30-4996-8F23-7FA448982149";
name = Regular;
paths = (
{
closed = 1;
nodes = (
"467 680 OFFCURVE",
"450 757 OFFCURVE",
"450 852 CURVE SMOOTH",
"448 1267 LINE SMOOTH",
"447 1481 OFFCURVE",
"433 1482 OFFCURVE",
"128 1482 CURVE",
"128 1642 LINE",
"524 1642 OFFCURVE",
"637 1605 OFFCURVE",
"638 1287 CURVE SMOOTH",
"640 855 LINE SMOOTH",
"640 759 OFFCURVE",
"652 760 OFFCURVE",
"832 760 CURVE",
"832 680 LINE",
"576 680 LINE SMOOTH"
);
},
{
closed = 1;
nodes = (
"832 680 LINE",
"832 600 LINE",
"652 600 OFFCURVE",
"640 601 OFFCURVE",
"640 505 CURVE SMOOTH",
"638 73 LINE SMOOTH",
"637 -245 OFFCURVE",
"524 -282 OFFCURVE",
"128 -282 CURVE",
"128 -122 LINE",
"433 -122 OFFCURVE",
"447 -121 OFFCURVE",
"448 93 CURVE SMOOTH",
"450 508 LINE SMOOTH",
"450 603 OFFCURVE",
"467 680 OFFCURVE",
"576 680 CURVE SMOOTH"
);
}
);
width = 960;
}
);
unicode = 007D;
},
{
glyphname = bracketleft;
layers = (
{
layerId = "3D86ED3E-BC30-4996-8F23-7FA448982149";
name = Regular;
paths = (
{
closed = 1;
nodes = (
"128 1536 LINE",
"704 1536 LINE",
"704 1376 LINE",
"320 1376 LINE",
"320 160 LINE",
"704 160 LINE",
"704 0 LINE",
"128 0 LINE"
);
}
);
width = 832;
}
);
unicode = 005B;
},
{
glyphname = bracketright;
layers = (
{
layerId = "3D86ED3E-BC30-4996-8F23-7FA448982149";
name = Regular;
paths = (
{
closed = 1;
nodes = (
"704 0 LINE",
"128 0 LINE",
"128 160 LINE",
"512 160 LINE",
"512 1376 LINE",
"128 1376 LINE",
"128 1536 LINE",
"704 1536 LINE"
);
}
);
width = 832;
}
);
unicode = 005D;
},
{
glyphname = parenleft;
layers = (
{
layerId = "3D86ED3E-BC30-4996-8F23-7FA448982149";
name = Regular;
paths = (
{
closed = 1;
nodes = (
"640 -64 LINE",
"411 -64 OFFCURVE",
"261 27 OFFCURVE",
"192 208 CURVE SMOOTH",
"155 306 OFFCURVE",
"134 427 OFFCURVE",
"130 573 CURVE SMOOTH",
"128 639 OFFCURVE",
"128 704 OFFCURVE",
"128 768 CURVE SMOOTH",
"128 942 OFFCURVE",
"133 1065 OFFCURVE",
"144 1138 CURVE SMOOTH",
"166 1280 OFFCURVE",
"202 1387 OFFCURVE",
"280 1470 CURVE SMOOTH",
"362 1557 OFFCURVE",
"482 1600 OFFCURVE",
"640 1600 CURVE",
"640 1440 LINE",
"536 1440 OFFCURVE",
"461 1416 OFFCURVE",
"414 1366 CURVE SMOOTH",
"356 1305 OFFCURVE",
"325 1174 OFFCURVE",
"322 974 CURVE SMOOTH",
"321 912 OFFCURVE",
"320 843 OFFCURVE",
"320 768 CURVE SMOOTH",
"320 586 OFFCURVE",
"323 466 OFFCURVE",
"330 408 CURVE SMOOTH",
"353 207 OFFCURVE",
"416 96 OFFCURVE",
"640 96 CURVE"
);
}
);
width = 768;
}
);
unicode = 0028;
},
{
glyphname = parenright;
layers = (
{
layerId = "3D86ED3E-BC30-4996-8F23-7FA448982149";
name = Regular;
paths = (
{
closed = 1;
nodes = (
"128 96 LINE",
"232 96 OFFCURVE",
"307 120 OFFCURVE",
"354 170 CURVE SMOOTH",
"412 231 OFFCURVE",
"443 362 OFFCURVE",
"446 562 CURVE SMOOTH",
"447 624 OFFCURVE",
"448 693 OFFCURVE",
"448 768 CURVE SMOOTH",
"448 950 OFFCURVE",
"445 1070 OFFCURVE",
"438 1128 CURVE SMOOTH",
"415 1329 OFFCURVE",
"352 1440 OFFCURVE",
"128 1440 CURVE",
"128 1600 LINE",
"357 1600 OFFCURVE",
"507 1509 OFFCURVE",
"576 1328 CURVE SMOOTH",
"613 1230 OFFCURVE",
"634 1109 OFFCURVE",
"638 963 CURVE SMOOTH",
"640 897 OFFCURVE",
"640 832 OFFCURVE",
"640 768 CURVE SMOOTH",
"640 594 OFFCURVE",
"635 471 OFFCURVE",
"624 398 CURVE SMOOTH",
"602 256 OFFCURVE",
"566 149 OFFCURVE",
"488 66 CURVE SMOOTH",
"406 -21 OFFCURVE",
"286 -64 OFFCURVE",
"128 -64 CURVE"
);
}
);
width = 768;
}
);
unicode = 0029;
},
{
glyphname = emdash;
layers = (
{
layerId = "3D86ED3E-BC30-4996-8F23-7FA448982149";
name = Regular;
paths = (
{
closed = 1;
nodes = (
"0 512 LINE",
"0 672 LINE",
"1088 672 LINE",
"1088 512 LINE"
);
}
);
width = 1088;
}
);
unicode = 2014;
},
{
glyphname = endash;
layers = (
{
layerId = "3D86ED3E-BC30-4996-8F23-7FA448982149";
name = Regular;
paths = (
{
closed = 1;
nodes = (
"128 512 LINE",
"128 672 LINE",
"960 672 LINE",
"960 512 LINE"
);
}
);
width = 1088;
}
);
unicode = 2013;
},
{
glyphname = hyphen;
layers = (
{
layerId = "3D86ED3E-BC30-4996-8F23-7FA448982149";
name = Regular;
paths = (
{
closed = 1;
nodes = (
"128 672 LINE",
"896 672 LINE",
"896 512 LINE",
"128 512 LINE"
);
}
);
width = 1024;
}
);
unicode = 002D;
},
{
glyphname = softhyphen;
layers = (
{
layerId = "3D86ED3E-BC30-4996-8F23-7FA448982149";
name = Regular;
paths = (
{
closed = 1;
nodes = (
"128 672 LINE",
"896 672 LINE",
"896 512 LINE",
"128 512 LINE"
);
}
);
width = 1024;
}
);
unicode = 00AD;
},
{
glyphname = guillemetleft;
layers = (
{
layerId = "3D86ED3E-BC30-4996-8F23-7FA448982149";
name = Regular;
paths = (
{
closed = 1;
nodes = (
"768 256 LINE",
"672 128 LINE",
"128 512 LINE",
"128 704 LINE",
"672 1088 LINE",
"768 960 LINE",
"256 608 LINE"
);
},
{
closed = 1;
nodes = (
"1216 256 LINE",
"1120 128 LINE",
"576 512 LINE",
"576 704 LINE",
"1120 1088 LINE",
"1216 960 LINE",
"704 608 LINE"
);
}
);
width = 1344;
}
);
unicode = 00AB;
},
{
glyphname = guillemetright;
layers = (
{
layerId = "3D86ED3E-BC30-4996-8F23-7FA448982149";
name = Regular;
paths = (
{
closed = 1;
nodes = (
"640 608 LINE",
"128 960 LINE",
"224 1088 LINE",
"768 704 LINE",
"768 512 LINE",
"224 128 LINE",
"128 256 LINE"
);
},
{
closed = 1;
nodes = (
"1088 608 LINE",
"576 960 LINE",
"672 1088 LINE",
"1216 704 LINE",
"1216 512 LINE",
"672 128 LINE",
"576 256 LINE"
);
}
);
width = 1344;
}
);
unicode = 00BB;
},
{
glyphname = guilsinglleft;
layers = (
{
layerId = "3D86ED3E-BC30-4996-8F23-7FA448982149";
name = Regular;
paths = (
{
closed = 1;
nodes = (
"256 608 LINE",
"768 256 LINE",
"672 128 LINE",
"128 512 LINE",
"128 704 LINE",
"672 1088 LINE",
"768 960 LINE"
);
}
);
width = 896;
}
);
unicode = 2039;
},
{
glyphname = guilsinglright;
layers = (
{
layerId = "3D86ED3E-BC30-4996-8F23-7FA448982149";
name = Regular;
paths = (
{
closed = 1;
nodes = (
"128 256 LINE",
"640 608 LINE",
"128 960 LINE",
"224 1088 LINE",
"768 704 LINE",
"768 512 LINE",
"224 128 LINE"
);
}
);
width = 896;
}
);
unicode = 203A;
},
{
glyphname = quotedblbase;
layers = (
{
layerId = "3D86ED3E-BC30-4996-8F23-7FA448982149";
name = Regular;
paths = (
{
closed = 1;
nodes = (
"128 -192 LINE",
"192 192 LINE",
"384 192 LINE",
"256 -192 LINE"
);
},
{
closed = 1;
nodes = (
"448 -192 LINE",
"512 192 LINE",
"704 192 LINE",
"576 -192 LINE"
);
}
);
width = 832;
}
);
unicode = 201E;
},
{
glyphname = quotedblleft;
layers = (
{
layerId = "3D86ED3E-BC30-4996-8F23-7FA448982149";
name = Regular;
paths = (
{
closed = 1;
nodes = (
"384 1152 LINE",
"448 1536 LINE",
"640 1536 LINE",
"512 1152 LINE"
);
},
{
closed = 1;
nodes = (
"128 1152 LINE",
"192 1536 LINE",
"384 1536 LINE",
"256 1152 LINE"
);
}
);
width = 768;
}
);
unicode = 201C;
},
{
glyphname = quotedblright;
layers = (
{
layerId = "3D86ED3E-BC30-4996-8F23-7FA448982149";
name = Regular;
paths = (
{
closed = 1;
nodes = (
"128 1152 LINE",
"192 1536 LINE",
"384 1536 LINE",
"256 1152 LINE"
);
},
{
closed = 1;
nodes = (
"448 1152 LINE",
"512 1536 LINE",
"704 1536 LINE",
"576 1152 LINE"
);
}
);
width = 832;
}
);
unicode = 201D;
},
{
glyphname = quoteleft;
layers = (
{
layerId = "3D86ED3E-BC30-4996-8F23-7FA448982149";
name = Regular;
paths = (
{
closed = 1;
nodes = (
"128 1152 LINE",
"192 1536 LINE",
"384 1536 LINE",
"256 1152 LINE"
);
}
);
width = 512;
}
);
unicode = 2018;
},
{
glyphname = quoteright;
layers = (
{
layerId = "3D86ED3E-BC30-4996-8F23-7FA448982149";
name = Regular;
paths = (
{
closed = 1;
nodes = (
"128 1152 LINE",
"192 1536 LINE",
"384 1536 LINE",
"256 1152 LINE"
);
}
);
width = 512;
}
);
unicode = 2019;
},
{
glyphname = quotesinglbase;
layers = (
{
layerId = "3D86ED3E-BC30-4996-8F23-7FA448982149";
name = Regular;
paths = (
{
closed = 1;
nodes = (
"64 -256 LINE",
"128 128 LINE",
"320 128 LINE",
"192 -256 LINE"
);
}
);
width = 448;
}
);
unicode = 201A;
},
{
glyphname = florin;
layers = (
{
layerId = "3D86ED3E-BC30-4996-8F23-7FA448982149";
name = Regular;
paths = (
{
closed = 1;
nodes = (
"320 960 LINE",
"128 960 LINE",
"128 1088 LINE",
"320 1088 LINE",
"320 1152 LINE SMOOTH",
"320 1311 OFFCURVE",
"357 1420 OFFCURVE",
"432 1480 CURVE SMOOTH",
"505 1539 OFFCURVE",
"639 1568 OFFCURVE",
"833 1568 CURVE SMOOTH",
"960 1568 LINE",
"960 1408 LINE",
"832 1408 LINE SMOOTH",
"777 1408 LINE SMOOTH",
"652 1408 OFFCURVE",
"559 1402 OFFCURVE",
"528 1300 CURVE SMOOTH",
"517 1265 OFFCURVE",
"512 1216 OFFCURVE",
"512 1152 CURVE SMOOTH",
"512 1088 LINE",
"960 1088 LINE",
"960 960 LINE",
"512 960 LINE",
"512 128 LINE SMOOTH",
"512 -31 OFFCURVE",
"475 -140 OFFCURVE",
"400 -200 CURVE SMOOTH",
"327 -259 OFFCURVE",
"193 -288 OFFCURVE",
"-1 -288 CURVE",
"0 -128 LINE",
"55 -128 LINE SMOOTH",
"180 -128 OFFCURVE",
"273 -122 OFFCURVE",
"304 -20 CURVE SMOOTH",
"315 15 OFFCURVE",
"320 64 OFFCURVE",
"320 128 CURVE SMOOTH"
);
}
);
width = 1184;
}
);
unicode = 0192;
},
{
glyphname = cent;
layers = (
{
layerId = "3D86ED3E-BC30-4996-8F23-7FA448982149";
name = Regular;
paths = (
{
closed = 1;
nodes = (
"128 544 CURVE SMOOTH",
"128 700 OFFCURVE",
"146 816 OFFCURVE",
"182 892 CURVE SMOOTH",
"222 977 OFFCURVE",
"293 1036 OFFCURVE",
"394 1070 CURVE SMOOTH",
"492 1103 OFFCURVE",
"638 1120 OFFCURVE",
"833 1120 CURVE SMOOTH",
"1080 1120 OFFCURVE",
"1251 1087 OFFCURVE",
"1345 1020 CURVE SMOOTH",
"1437 955 OFFCURVE",
"1473 856 OFFCURVE",
"1473 704 CURVE",
"1281 704 LINE",
"1281 870 OFFCURVE",
"1250 898 OFFCURVE",
"1121 937 CURVE SMOOTH",
"1070 952 OFFCURVE",
"974 960 OFFCURVE",
"833 960 CURVE SMOOTH",
"664 960 OFFCURVE",
"544 948 OFFCURVE",
"473 924 CURVE SMOOTH",
"399 899 OFFCURVE",
"361 861 OFFCURVE",
"338 786 CURVE SMOOTH",
"327 750 OFFCURVE",
"321 669 OFFCURVE",
"321 544 CURVE SMOOTH",
"321 419 OFFCURVE",
"327 336 OFFCURVE",
"340 294 CURVE SMOOTH",
"374 181 OFFCURVE",
"477 150 OFFCURVE",
"618 136 CURVE SMOOTH",
"676 130 OFFCURVE",
"762 128 OFFCURVE",
"875 128 CURVE SMOOTH",
"988 128 OFFCURVE",
"1079 138 OFFCURVE",
"1148 159 CURVE SMOOTH",
"1181 169 OFFCURVE",
"1207 181 OFFCURVE",
"1225 196 CURVE SMOOTH",
"1275 237 OFFCURVE",
"1281 274 OFFCURVE",
"1281 384 CURVE",
"1473 384 LINE",
"1473 312 OFFCURVE",
"1464 250 OFFCURVE",
"1445 198 CURVE SMOOTH",
"1402 79 OFFCURVE",
"1295 21 OFFCURVE",
"1149 -8 CURVE SMOOTH",
"1066 -24 OFFCURVE",
"944 -32 OFFCURVE",
"783 -32 CURVE SMOOTH",
"491 -32 OFFCURVE",
"271 10 OFFCURVE",
"182 196 CURVE SMOOTH",
"146 272 OFFCURVE",
"128 388 OFFCURVE"
);
}
);
width = 1601;
}
);
unicode = 00A2;
},
{
glyphname = currency;
layers = (
{
layerId = "3D86ED3E-BC30-4996-8F23-7FA448982149";
name = Regular;
paths = (
{
closed = 1;
nodes = (
"934 848 CURVE",
"1084 977 LINE",
"1168 880 LINE",
"1023 756 LINE",
"1066 691 OFFCURVE",
"1088 611 OFFCURVE",
"1088 514 CURVE SMOOTH",
"1088 417 OFFCURVE",
"1066 335 OFFCURVE",
"1023 268 CURVE",
"1168 144 LINE",
"1084 47 LINE",
"933 175 LINE",
"858 122 OFFCURVE",
"761 96 OFFCURVE",
"639 96 CURVE SMOOTH",
"517 96 OFFCURVE",
"420 123 OFFCURVE",
"346 176 CURVE",
"196 47 LINE",
"112 144 LINE",
"256 268 LINE",
"213 334 OFFCURVE",
"192 415 OFFCURVE",
"192 512 CURVE SMOOTH",
"192 609 OFFCURVE",
"213 690 OFFCURVE",
"256 756 CURVE",
"112 880 LINE",
"196 977 LINE",
"346 848 LINE",
"423 901 OFFCURVE",
"521 928 OFFCURVE",
"640 928 CURVE SMOOTH",
"759 928 OFFCURVE",
"857 901 OFFCURVE"
);
},
{
closed = 1;
nodes = (
"896 512 CURVE SMOOTH",
"896 682 OFFCURVE",
"805 768 OFFCURVE",
"640 768 CURVE SMOOTH",
"470 768 OFFCURVE",
"384 684 OFFCURVE",
"384 512 CURVE SMOOTH",
"384 341 OFFCURVE",
"469 256 OFFCURVE",
"640 256 CURVE SMOOTH",
"810 256 OFFCURVE",
"896 341 OFFCURVE"
);
}
);
width = 1280;
}
);
unicode = 00A4;
},
{
glyphname = dollar;
lastChange = "2014-03-17 18:54:55 -0800";
layers = (
{
components = (
{
name = S;
transform = "{1, 0, 0, 1, 0, 0}";
}
);
layerId = "3D86ED3E-BC30-4996-8F23-7FA448982149";
name = Regular;
paths = (
{
closed = 1;
nodes = (
"1036 1754 LINE",
"1168 1754 LINE",
"1168 -228 LINE",
"1036 -228 LINE"
);
}
);
width = 2142;
}
);
unicode = 0024;
},
{
glyphname = euro;
layers = (
{
layerId = "3D86ED3E-BC30-4996-8F23-7FA448982149";
name = Regular;
paths = (
{
closed = 1;
nodes = (
"1133 0 LINE",
"816 0 LINE SMOOTH",
"765 0 OFFCURVE",
"662 7 OFFCURVE",
"600 9 CURVE SMOOTH",
"429 15 OFFCURVE",
"315 55 OFFCURVE",
"237 165 CURVE SMOOTH",
"134 310 OFFCURVE",
"129 552 OFFCURVE",
"129 800 CURVE SMOOTH",
"129 927 LINE SMOOTH",
"129 1065 OFFCURVE",
"141 1180 OFFCURVE",
"166 1272 CURVE SMOOTH",
"207 1423 OFFCURVE",
"327 1519 OFFCURVE",
"497 1547 CURVE SMOOTH",
"585 1562 OFFCURVE",
"650 1563 OFFCURVE",
"732 1563 CURVE SMOOTH",
"800 1563 LINE SMOOTH",
"920 1563 LINE SMOOTH",
"995 1563 OFFCURVE",
"1069 1564 OFFCURVE",
"1133 1569 CURVE",
"1264 1569 LINE",
"1373 1563 OFFCURVE",
"1415 1559 OFFCURVE",
"1502 1552 CURVE SMOOTH",
"1655 1539 OFFCURVE",
"1751 1497 OFFCURVE",
"1820 1385 CURVE SMOOTH",
"1882 1285 OFFCURVE",
"1913 1130 OFFCURVE",
"1913 919 CURVE SMOOTH",
"1913 632 LINE SMOOTH",
"1913 574 OFFCURVE",
"1908 499 OFFCURVE",
"1899 408 CURVE SMOOTH",
"1868 130 OFFCURVE",
"1750 22 OFFCURVE",
"1459 6 CURVE"
);
},
{
closed = 1;
nodes = (
"1412 169 CURVE SMOOTH",
"1543 176 OFFCURVE",
"1629 208 OFFCURVE",
"1670 266 CURVE SMOOTH",
"1704 313 OFFCURVE",
"1721 393 OFFCURVE",
"1721 504 CURVE SMOOTH",
"1721 1071 LINE SMOOTH",
"1721 1258 OFFCURVE",
"1644 1390 OFFCURVE",
"1471 1395 CURVE",
"1289 1404 OFFCURVE",
"1144 1409 OFFCURVE",
"1037 1409 CURVE SMOOTH",
"981 1409 LINE",
"801 1403 LINE SMOOTH",
"774 1402 OFFCURVE",
"734 1401 OFFCURVE",
"681 1401 CURVE SMOOTH",
"628 1401 OFFCURVE",
"575 1394 OFFCURVE",
"520 1382 CURVE SMOOTH",
"412 1358 OFFCURVE",
"352 1298 OFFCURVE",
"338 1202 CURVE SMOOTH",
"325 1102 OFFCURVE",
"318 1037 OFFCURVE",
"318 1008 CURVE SMOOTH",
"318 664 LINE SMOOTH",
"318 634 OFFCURVE",
"325 534 OFFCURVE",
"328 488 CURVE SMOOTH",
"336 359 OFFCURVE",
"366 265 OFFCURVE",
"439 213 CURVE SMOOTH",
"477 186 OFFCURVE",
"564 170 OFFCURVE",
"700 164 CURVE SMOOTH",
"784 160 OFFCURVE",
"845 158 OFFCURVE",
"928 158 CURVE SMOOTH",
"1120 158 LINE SMOOTH",
"1242 158 OFFCURVE",
"1256 160 OFFCURVE"
);
},
{
closed = 1;
nodes = (
"1006 1437 CURVE SMOOTH",
"1006 1435 OFFCURVE",
"1006 1434 OFFCURVE",
"1008 1434 CURVE SMOOTH",
"1010 1434 OFFCURVE",
"1011 1435 OFFCURVE",
"1011 1437 CURVE SMOOTH",
"1011 1439 OFFCURVE",
"1010 1440 OFFCURVE",
"1008 1440 CURVE SMOOTH",
"1006 1440 OFFCURVE",
"1006 1439 OFFCURVE"
);
}
);
width = 2042;
}
);
unicode = 20AC;
},
{
glyphname = sterling;
layers = (
{
layerId = "3D86ED3E-BC30-4996-8F23-7FA448982149";
name = Regular;
paths = (
{
closed = 1;
nodes = (
"64 800 LINE",
"256 800 LINE",
"256 958 LINE SMOOTH",
"256 1272 OFFCURVE",
"304 1439 OFFCURVE",
"522 1517 CURVE SMOOTH",
"619 1552 OFFCURVE",
"765 1569 OFFCURVE",
"960 1569 CURVE SMOOTH",
"1181 1569 OFFCURVE",
"1334 1538 OFFCURVE",
"1419 1474 CURVE SMOOTH",
"1497 1416 OFFCURVE",
"1536 1315 OFFCURVE",
"1536 1173 CURVE",
"1344 1173 LINE",
"1344 1274 OFFCURVE",
"1338 1307 OFFCURVE",
"1294 1346 CURVE SMOOTH",
"1278 1360 OFFCURVE",
"1256 1372 OFFCURVE",
"1228 1381 CURVE SMOOTH",
"1171 1400 OFFCURVE",
"1091 1409 OFFCURVE",
"987 1409 CURVE SMOOTH",
"883 1409 OFFCURVE",
"802 1406 OFFCURVE",
"744 1400 CURVE SMOOTH",
"599 1385 OFFCURVE",
"501 1351 OFFCURVE",
"467 1231 CURVE SMOOTH",
"454 1186 OFFCURVE",
"448 1095 OFFCURVE",
"448 958 CURVE SMOOTH",
"448 800 LINE",
"1280 800 LINE",
"1280 640 LINE",
"448 640 LINE",
"448 160 LINE",
"1472 160 LINE",
"1472 0 LINE",
"256 0 LINE",
"256 640 LINE",
"64 640 LINE"
);
}
);
width = 1663;
}
);
unicode = 00A3;
},
{
glyphname = yen;
layers = (
{
layerId = "3D86ED3E-BC30-4996-8F23-7FA448982149";
name = Regular;
paths = (
{
closed = 1;
nodes = (
"416 416 LINE",
"928 416 LINE",
"928 640 LINE",
"416 640 LINE",
"416 800 LINE",
"773 800 LINE",
"64 1536 LINE",
"320 1536 LINE",
"1024 768 LINE",
"1728 1536 LINE",
"1984 1536 LINE",
"1274 800 LINE",
"1632 800 LINE",
"1632 640 LINE",
"1120 640 LINE",
"1120 416 LINE",
"1632 416 LINE",
"1632 256 LINE",
"1120 256 LINE",
"1120 0 LINE",
"928 0 LINE",
"928 256 LINE",
"416 256 LINE"
);
}
);
width = 2048;
}
);
unicode = 00A5;
},
{
glyphname = approxequal;
layers = (
{
layerId = "3D86ED3E-BC30-4996-8F23-7FA448982149";
name = Regular;
paths = (
{
closed = 1;
nodes = (
"754 607 CURVE SMOOTH",
"823 607 OFFCURVE",
"832 630 OFFCURVE",
"832 703 CURVE",
"1024 703 LINE",
"1024 615 OFFCURVE",
"993 548 OFFCURVE",
"932 502 CURVE SMOOTH",
"884 466 OFFCURVE",
"833 447 OFFCURVE",
"778 447 CURVE SMOOTH",
"638 447 OFFCURVE",
"565 490 OFFCURVE",
"468 528 CURVE SMOOTH",
"442 538 OFFCURVE",
"418 543 OFFCURVE",
"398 543 CURVE SMOOTH",
"329 543 OFFCURVE",
"320 521 OFFCURVE",
"320 447 CURVE",
"128 447 LINE",
"128 539 OFFCURVE",
"159 607 OFFCURVE",
"220 652 CURVE SMOOTH",
"267 686 OFFCURVE",
"318 703 OFFCURVE",
"373 703 CURVE SMOOTH",
"513 703 OFFCURVE",
"587 660 OFFCURVE",
"684 622 CURVE SMOOTH",
"710 612 OFFCURVE",
"734 607 OFFCURVE"
);
},
{
closed = 1;
nodes = (
"754 992 CURVE SMOOTH",
"823 992 OFFCURVE",
"832 1015 OFFCURVE",
"832 1088 CURVE",
"1024 1088 LINE",
"1024 1000 OFFCURVE",
"993 932 OFFCURVE",
"932 886 CURVE SMOOTH",
"884 850 OFFCURVE",
"833 832 OFFCURVE",
"778 832 CURVE SMOOTH",
"638 832 OFFCURVE",
"565 875 OFFCURVE",
"468 913 CURVE SMOOTH",
"442 923 OFFCURVE",
"418 928 OFFCURVE",
"398 928 CURVE SMOOTH",
"329 928 OFFCURVE",
"320 906 OFFCURVE",
"320 832 CURVE",
"128 832 LINE",
"128 924 OFFCURVE",
"159 991 OFFCURVE",
"220 1036 CURVE SMOOTH",
"267 1070 OFFCURVE",
"318 1088 OFFCURVE",
"373 1088 CURVE SMOOTH",
"513 1088 OFFCURVE",
"587 1045 OFFCURVE",
"684 1007 CURVE SMOOTH",
"710 997 OFFCURVE",
"734 992 OFFCURVE"
);
}
);
width = 1152;
}
);
unicode = 2248;
},
{
glyphname = asciitilde;
layers = (
{
layerId = "3D86ED3E-BC30-4996-8F23-7FA448982149";
name = Regular;
paths = (
{
closed = 1;
nodes = (
"320 832 CURVE",
"128 832 LINE",
"128 997 OFFCURVE",
"237 1088 OFFCURVE",
"384 1088 CURVE SMOOTH",
"454 1088 OFFCURVE",
"527 1072 OFFCURVE",
"603 1040 CURVE SMOOTH",
"647 1021 OFFCURVE",
"701 992 OFFCURVE",
"754 992 CURVE SMOOTH",
"818 992 OFFCURVE",
"832 1009 OFFCURVE",
"832 1088 CURVE",
"1024 1088 LINE",
"1024 1000 OFFCURVE",
"993 932 OFFCURVE",
"932 886 CURVE SMOOTH",
"884 850 OFFCURVE",
"829 832 OFFCURVE",
"768 832 CURVE SMOOTH",
"698 832 OFFCURVE",
"625 848 OFFCURVE",
"549 880 CURVE SMOOTH",
"505 899 OFFCURVE",
"451 928 OFFCURVE",
"398 928 CURVE SMOOTH",
"330 928 OFFCURVE",
"320 910 OFFCURVE"
);
}
);
width = 1152;
}
);
unicode = 007E;
},
{
glyphname = divide;
layers = (
{
layerId = "3D86ED3E-BC30-4996-8F23-7FA448982149";
name = Regular;
paths = (
{
closed = 1;
nodes = (
"128 512 LINE",
"128 672 LINE",
"1152 672 LINE",
"1152 512 LINE"
);
},
{
closed = 1;
nodes = (
"768 960 LINE",
"768 768 LINE",
"576 768 LINE",
"576 960 LINE"
);
},
{
closed = 1;
nodes = (
"768 384 LINE",
"768 192 LINE",
"576 192 LINE",
"576 384 LINE"
);
}
);
width = 1280;
}
);
unicode = 00F7;
},
{
glyphname = equal;
lastChange = "2014-03-17 19:13:35 -0800";
layers = (
{
layerId = "3D86ED3E-BC30-4996-8F23-7FA448982149";
name = Regular;
paths = (
{
closed = 1;
nodes = (
"128 913 LINE",
"1034 913 LINE",
"1034 753 LINE",
"128 753 LINE"
);
},
{
closed = 1;
nodes = (
"128 480 LINE",
"1034 480 LINE",
"1034 320 LINE",
"128 320 LINE"
);
}
);
width = 1162;
}
);
unicode = 003D;
},
{
glyphname = greater;
layers = (
{
layerId = "3D86ED3E-BC30-4996-8F23-7FA448982149";
name = Regular;
paths = (
{
closed = 1;
nodes = (
"1024 928 LINE",
"1024 736 LINE",
"128 192 LINE",
"128 448 LINE",
"880 832 LINE",
"128 1216 LINE",
"128 1472 LINE"
);
}
);
width = 1152;
}
);
unicode = 003E;
},
{
glyphname = greaterequal;
layers = (
{
layerId = "3D86ED3E-BC30-4996-8F23-7FA448982149";
name = Regular;
paths = (
{
closed = 1;
nodes = (
"1024 928 LINE",
"1024 736 LINE",
"128 192 LINE",
"128 448 LINE",
"880 832 LINE",
"128 1216 LINE",
"128 1472 LINE"
);
},
{
closed = 1;
nodes = (
"128 128 LINE",
"1022 128 LINE",
"1022 -32 LINE",
"128 -32 LINE"
);
}
);
width = 1152;
}
);
unicode = 2265;
},
{
glyphname = infinity;
layers = (
{
layerId = "3D86ED3E-BC30-4996-8F23-7FA448982149";
name = Regular;
paths = (
{
closed = 1;
nodes = (
"128 544 CURVE SMOOTH",
"128 914 OFFCURVE",
"283 1120 OFFCURVE",
"642 1120 CURVE SMOOTH",
"821 1120 OFFCURVE",
"987 1028 OFFCURVE",
"1139 844 CURVE SMOOTH",
"1182 792 OFFCURVE",
"1222 740 OFFCURVE",
"1259 687 CURVE",
"1457 976 OFFCURVE",
"1656 1120 OFFCURVE",
"1854 1120 CURVE SMOOTH",
"2213 1120 OFFCURVE",
"2368 913 OFFCURVE",
"2368 544 CURVE SMOOTH",
"2368 174 OFFCURVE",
"2213 -32 OFFCURVE",
"1854 -32 CURVE SMOOTH",
"1652 -32 OFFCURVE",
"1451 110 OFFCURVE",
"1251 393 CURVE",
"1050 110 OFFCURVE",
"847 -32 OFFCURVE",
"642 -32 CURVE SMOOTH",
"283 -32 OFFCURVE",
"128 175 OFFCURVE"
);
},
{
closed = 1;
nodes = (
"320 568 CURVE SMOOTH",
"320 296 OFFCURVE",
"390 128 OFFCURVE",
"646 128 CURVE SMOOTH",
"688 128 OFFCURVE",
"732 140 OFFCURVE",
"778 164 CURVE SMOOTH",
"824 188 OFFCURVE",
"869 220 OFFCURVE",
"914 259 CURVE SMOOTH",
"990 325 OFFCURVE",
"1071 417 OFFCURVE",
"1156 535 CURVE",
"1071 663 OFFCURVE",
"1000 754 OFFCURVE",
"945 806 CURVE SMOOTH",
"890 858 OFFCURVE",
"838 897 OFFCURVE",
"791 922 CURVE SMOOTH",
"744 947 OFFCURVE",
"700 960 OFFCURVE",
"661 960 CURVE SMOOTH",
"506 960 OFFCURVE",
"419 928 OFFCURVE",
"368 822 CURVE SMOOTH",
"336 757 OFFCURVE",
"320 672 OFFCURVE"
);
},
{
closed = 1;
nodes = (
"1854 128 CURVE SMOOTH",
"2097 128 OFFCURVE",
"2176 285 OFFCURVE",
"2176 544 CURVE SMOOTH",
"2176 720 OFFCURVE",
"2142 837 OFFCURVE",
"2075 896 CURVE SMOOTH",
"2013 950 OFFCURVE",
"1949 960 OFFCURVE",
"1842 960 CURVE SMOOTH",
"1807 960 OFFCURVE",
"1767 948 OFFCURVE",
"1722 923 CURVE SMOOTH",
"1677 898 OFFCURVE",
"1633 866 OFFCURVE",
"1590 827 CURVE SMOOTH",
"1513 757 OFFCURVE",
"1434 664 OFFCURVE",
"1355 548 CURVE",
"1551 268 OFFCURVE",
"1717 128 OFFCURVE"
);
}
);
width = 2496;
}
);
unicode = 221E;
},
{
glyphname = integral;
layers = (
{
layerId = "3D86ED3E-BC30-4996-8F23-7FA448982149";
name = Regular;
paths = (
{
closed = 1;
nodes = (
"449 1152 LINE SMOOTH",
"449 1311 OFFCURVE",
"486 1420 OFFCURVE",
"561 1480 CURVE SMOOTH",
"634 1539 OFFCURVE",
"768 1568 OFFCURVE",
"961 1568 CURVE",
"961 1408 LINE",
"906 1408 LINE SMOOTH",
"781 1408 OFFCURVE",
"688 1402 OFFCURVE",
"657 1300 CURVE SMOOTH",
"646 1265 OFFCURVE",
"641 1216 OFFCURVE",
"641 1152 CURVE SMOOTH",
"641 128 LINE SMOOTH",
"641 -31 OFFCURVE",
"604 -140 OFFCURVE",
"529 -200 CURVE SMOOTH",
"456 -259 OFFCURVE",
"322 -288 OFFCURVE",
"128 -288 CURVE",
"129 -128 LINE",
"184 -128 LINE SMOOTH",
"309 -128 OFFCURVE",
"402 -122 OFFCURVE",
"433 -20 CURVE SMOOTH",
"444 15 OFFCURVE",
"449 64 OFFCURVE",
"449 128 CURVE SMOOTH"
);
}
);
width = 1089;
}
);
unicode = 222B;
},
{
glyphname = less;
layers = (
{
layerId = "3D86ED3E-BC30-4996-8F23-7FA448982149";
name = Regular;
paths = (
{
closed = 1;
nodes = (
"1024 1472 LINE",
"1024 1216 LINE",
"272 832 LINE",
"1024 448 LINE",
"1024 192 LINE",
"128 736 LINE",
"128 928 LINE"
);
}
);
width = 1152;
}
);
unicode = 003C;
},
{
glyphname = lessequal;
layers = (
{
layerId = "3D86ED3E-BC30-4996-8F23-7FA448982149";
name = Regular;
paths = (
{
closed = 1;
nodes = (
"1024 1472 LINE",
"1024 1216 LINE",
"272 832 LINE",
"1024 448 LINE",
"1024 192 LINE",
"128 736 LINE",
"128 928 LINE"
);
},
{
closed = 1;
nodes = (
"128 128 LINE",
"1022 128 LINE",
"1022 -32 LINE",
"128 -32 LINE"
);
}
);
width = 1152;
}
);
unicode = 2264;
},
{
glyphname = logicalnot;
layers = (
{
layerId = "3D86ED3E-BC30-4996-8F23-7FA448982149";
name = Regular;
paths = (
{
closed = 1;
nodes = (
"1088 640 LINE",
"896 640 LINE",
"896 928 LINE",
"128 928 LINE",
"128 1088 LINE",
"1088 1088 LINE"
);
}
);
width = 1216;
}
);
unicode = 00AC;
},
{
glyphname = minus;
layers = (
{
layerId = "3D86ED3E-BC30-4996-8F23-7FA448982149";
name = Regular;
paths = (
{
closed = 1;
nodes = (
"128 512 LINE",
"128 672 LINE",
"1344 672 LINE",
"1344 512 LINE"
);
}
);
width = 1472;
}
);
unicode = 2212;
},
{
glyphname = multiply;
layers = (
{
layerId = "3D86ED3E-BC30-4996-8F23-7FA448982149";
name = Regular;
paths = (
{
closed = 1;
nodes = (
"1125 1181 LINE",
"808 864 LINE",
"1125 547 LINE",
"989 411 LINE",
"672 728 LINE",
"355 411 LINE",
"219 547 LINE",
"536 864 LINE",
"219 1181 LINE",
"355 1317 LINE",
"672 1000 LINE",
"989 1317 LINE"
);
}
);
width = 1344;
}
);
unicode = 00D7;
},
{
glyphname = notequal;
layers = (
{
layerId = "3D86ED3E-BC30-4996-8F23-7FA448982149";
name = Regular;
paths = (
{
closed = 1;
nodes = (
"384 -64 LINE",
"992 1472 LINE",
"1152 1408 LINE",
"544 -128 LINE"
);
},
{
closed = 1;
nodes = (
"128 864 LINE",
"128 1024 LINE",
"1344 1024 LINE",
"1344 864 LINE"
);
},
{
closed = 1;
nodes = (
"128 320 LINE",
"128 480 LINE",
"1344 480 LINE",
"1344 320 LINE"
);
}
);
width = 1472;
}
);
unicode = 2260;
},
{
glyphname = partialdiff;
layers = (
{
layerId = "3D86ED3E-BC30-4996-8F23-7FA448982149";
name = Regular;
paths = (
{
closed = 1;
nodes = (
"1152 928 LINE SMOOTH",
"1387 928 OFFCURVE",
"1558 896 OFFCURVE",
"1664 832 CURVE",
"1664 1014 OFFCURVE",
"1651 1140 OFFCURVE",
"1624 1208 CURVE SMOOTH",
"1592 1290 OFFCURVE",
"1526 1345 OFFCURVE",
"1427 1372 CURVE SMOOTH",
"1341 1396 OFFCURVE",
"1185 1408 OFFCURVE",
"960 1408 CURVE SMOOTH",
"670 1408 OFFCURVE",
"489 1379 OFFCURVE",
"416 1322 CURVE SMOOTH",
"352 1272 OFFCURVE",
"352 1219 OFFCURVE",
"352 1120 CURVE",
"192 1120 LINE",
"192 1229 OFFCURVE",
"204 1305 OFFCURVE",
"227 1348 CURVE SMOOTH",
"276 1439 OFFCURVE",
"338 1481 OFFCURVE",
"448 1515 CURVE SMOOTH",
"564 1550 OFFCURVE",
"713 1568 OFFCURVE",
"895 1568 CURVE SMOOTH",
"1077 1568 OFFCURVE",
"1218 1561 OFFCURVE",
"1316 1548 CURVE SMOOTH",
"1569 1515 OFFCURVE",
"1737 1437 OFFCURVE",
"1808 1231 CURVE SMOOTH",
"1840 1139 OFFCURVE",
"1856 984 OFFCURVE",
"1856 768 CURVE SMOOTH",
"1856 712 LINE SMOOTH",
"1856 495 OFFCURVE",
"1853 297 OFFCURVE",
"1768 164 CURVE SMOOTH",
"1740 120 OFFCURVE",
"1700 83 OFFCURVE",
"1648 54 CURVE SMOOTH",
"1544 -4 OFFCURVE",
"1378 -32 OFFCURVE",
"1152 -32 CURVE SMOOTH",
"831 -32 LINE SMOOTH",
"556 -32 OFFCURVE",
"367 8 OFFCURVE",
"264 88 CURVE SMOOTH",
"165 165 OFFCURVE",
"128 278 OFFCURVE",
"128 448 CURVE SMOOTH",
"128 618 OFFCURVE",
"165 731 OFFCURVE",
"264 808 CURVE SMOOTH",
"367 888 OFFCURVE",
"556 928 OFFCURVE",
"831 928 CURVE SMOOTH"
);
},
{
closed = 1;
nodes = (
"831 768 LINE SMOOTH",
"681 768 OFFCURVE",
"578 761 OFFCURVE",
"524 748 CURVE SMOOTH",
"434 726 OFFCURVE",
"388 706 OFFCURVE",
"354 644 CURVE SMOOTH",
"332 603 OFFCURVE",
"320 538 OFFCURVE",
"320 448 CURVE SMOOTH",
"320 356 OFFCURVE",
"329 295 OFFCURVE",
"346 263 CURVE SMOOTH",
"381 200 OFFCURVE",
"423 173 OFFCURVE",
"500 154 CURVE SMOOTH",
"570 137 OFFCURVE",
"680 128 OFFCURVE",
"831 128 CURVE SMOOTH",
"1152 128 LINE SMOOTH",
"1394 128 OFFCURVE",
"1593 137 OFFCURVE",
"1643 317 CURVE SMOOTH",
"1657 367 OFFCURVE",
"1664 427 OFFCURVE",
"1664 496 CURVE SMOOTH",
"1664 624 OFFCURVE",
"1649 690 OFFCURVE",
"1566 728 CURVE SMOOTH",
"1528 745 OFFCURVE",
"1476 756 OFFCURVE",
"1409 761 CURVE SMOOTH",
"1342 766 OFFCURVE",
"1257 768 OFFCURVE",
"1152 768 CURVE SMOOTH"
);
}
);
width = 1984;
}
);
unicode = 2202;
},
{
glyphname = percent;
lastChange = "2014-03-17 19:04:14 -0800";
layers = (
{
components = (
{
disableAlignment = 1;
name = fraction;
transform = "{1, 0, 0, 1, 1457, 0}";
}
);
layerId = "3D86ED3E-BC30-4996-8F23-7FA448982149";
name = Regular;
paths = (
{
closed = 1;
nodes = (
"321 1568 OFFCURVE",
"146 1505 OFFCURVE",
"146 1012 CURVE SMOOTH",
"146 514 OFFCURVE",
"321 454 OFFCURVE",
"798 454 CURVE SMOOTH",
"1274 454 OFFCURVE",
"1449 514 OFFCURVE",
"1449 1012 CURVE SMOOTH",
"1449 1505 OFFCURVE",
"1274 1568 OFFCURVE",
"798 1568 CURVE SMOOTH"
);
},
{
closed = 1;
nodes = (
"358 602 OFFCURVE",
"324 646 OFFCURVE",
"324 1012 CURVE SMOOTH",
"324 1373 OFFCURVE",
"358 1421 OFFCURVE",
"798 1421 CURVE SMOOTH",
"1237 1421 OFFCURVE",
"1272 1373 OFFCURVE",
"1272 1012 CURVE SMOOTH",
"1272 646 OFFCURVE",
"1237 602 OFFCURVE",
"798 602 CURVE SMOOTH"
);
},
{
closed = 1;
nodes = (
"2595 1082 OFFCURVE",
"2420 1018 OFFCURVE",
"2420 526 CURVE SMOOTH",
"2420 28 OFFCURVE",
"2595 -32 OFFCURVE",
"3071 -32 CURVE SMOOTH",
"3548 -32 OFFCURVE",
"3723 28 OFFCURVE",
"3723 526 CURVE SMOOTH",
"3723 1018 OFFCURVE",
"3548 1082 OFFCURVE",
"3071 1082 CURVE SMOOTH"
);
},
{
closed = 1;
nodes = (
"2632 115 OFFCURVE",
"2597 160 OFFCURVE",
"2597 526 CURVE SMOOTH",
"2597 886 OFFCURVE",
"2632 934 OFFCURVE",
"3071 934 CURVE SMOOTH",
"3511 934 OFFCURVE",
"3545 886 OFFCURVE",
"3545 526 CURVE SMOOTH",
"3545 160 OFFCURVE",
"3511 115 OFFCURVE",
"3071 115 CURVE SMOOTH"
);
}
);
width = 3869;
}
);
unicode = 0025;
},
{
glyphname = plus;
layers = (
{
layerId = "3D86ED3E-BC30-4996-8F23-7FA448982149";
name = Regular;
paths = (
{
closed = 1;
nodes = (
"128 960 LINE",
"576 960 LINE",
"576 1408 LINE",
"768 1408 LINE",
"768 960 LINE",
"1216 960 LINE",
"1216 800 LINE",
"768 800 LINE",
"768 320 LINE",
"576 320 LINE",
"576 800 LINE",
"128 800 LINE"
);
}
);
width = 1344;
}
);
unicode = 002B;
},
{
glyphname = plusminus;
layers = (
{
layerId = "3D86ED3E-BC30-4996-8F23-7FA448982149";
name = Regular;
paths = (
{
closed = 1;
nodes = (
"128 960 LINE",
"576 960 LINE",
"576 1408 LINE",
"768 1408 LINE",
"768 960 LINE",
"1216 960 LINE",
"1216 800 LINE",
"768 800 LINE",
"768 320 LINE",
"576 320 LINE",
"576 800 LINE",
"128 800 LINE"
);
}
);
width = 1344;
}
);
unicode = 00B1;
},
{
glyphname = product;
layers = (
{
layerId = "3D86ED3E-BC30-4996-8F23-7FA448982149";
name = Regular;
paths = (
{
closed = 1;
nodes = (
"1664 0 LINE",
"1472 0 LINE",
"1472 1376 LINE",
"320 1376 LINE",
"320 0 LINE",
"128 0 LINE",
"128 1536 LINE",
"1664 1536 LINE"
);
}
);
width = 1792;
}
);
unicode = 220F;
},
{
glyphname = radical;
layers = (
{
layerId = "3D86ED3E-BC30-4996-8F23-7FA448982149";
name = Regular;
paths = (
{
closed = 1;
nodes = (
"128 896 LINE",
"352 896 LINE",
"768 128 LINE",
"1280 1536 LINE",
"1504 1536 LINE",
"896 0 LINE",
"640 0 LINE"
);
}
);
width = 1632;
}
);
unicode = 221A;
},
{
glyphname = summation;
layers = (
{
layerId = "3D86ED3E-BC30-4996-8F23-7FA448982149";
name = Regular;
paths = (
{
closed = 1;
nodes = (
"864 736 LINE",
"320 160 LINE",
"1536 160 LINE",
"1536 0 LINE",
"128 0 LINE",
"128 176 LINE",
"704 784 LINE",
"128 1360 LINE",
"128 1536 LINE",
"1536 1536 LINE",
"1536 1376 LINE",
"320 1376 LINE",
"864 832 LINE"
);
}
);
width = 1664;
}
);
unicode = 2211;
},
{
glyphname = lozenge;
layers = (
{
layerId = "3D86ED3E-BC30-4996-8F23-7FA448982149";
name = Regular;
paths = (
{
closed = 1;
nodes = (
"1152 768 LINE",
"704 0 LINE",
"576 0 LINE",
"128 768 LINE",
"576 1536 LINE",
"704 1536 LINE"
);
},
{
closed = 1;
nodes = (
"352 768 LINE",
"640 256 LINE",
"928 768 LINE",
"640 1280 LINE"
);
}
);
width = 1280;
}
);
unicode = 25CA;
},
{
glyphname = ampersand;
lastChange = "2014-03-17 18:22:53 -0800";
layers = (
{
background = {
paths = (
{
closed = 1;
nodes = (
"1171 1568 LINE",
"1171 1402 LINE",
"871 1402 LINE",
"394 1402 OFFCURVE",
"320 1374 OFFCURVE",
"320 788 CURVE",
"128 748 LINE",
"128 788 LINE",
"128 1467 OFFCURVE",
"271 1568 OFFCURVE",
"871 1568 CURVE"
);
},
{
closed = 1;
nodes = (
"271 -32 OFFCURVE",
"128 89 OFFCURVE",
"128 748 CURVE",
"320 788 LINE",
"320 748 LINE",
"320 182 OFFCURVE",
"394 134 OFFCURVE",
"871 134 CURVE",
"1171 134 LINE",
"1171 -32 LINE",
"871 -32 LINE"
);
},
{
closed = 1;
nodes = (
"1874 1568 OFFCURVE",
"2017 1467 OFFCURVE",
"2017 788 CURVE",
"2017 748 LINE",
"1825 788 LINE",
"1825 1374 OFFCURVE",
"1751 1402 OFFCURVE",
"1274 1402 CURVE",
"974 1402 LINE",
"974 1568 LINE",
"1274 1568 LINE"
);
},
{
closed = 1;
nodes = (
"974 -32 LINE",
"974 134 LINE",
"1274 134 LINE",
"1751 134 OFFCURVE",
"1825 182 OFFCURVE",
"1825 748 CURVE",
"1825 788 LINE",
"2017 748 LINE",
"2017 89 OFFCURVE",
"1874 -32 OFFCURVE",
"1274 -32 CURVE"
);
}
);
};
layerId = "3D86ED3E-BC30-4996-8F23-7FA448982149";
name = Regular;
paths = (
{
closed = 1;
nodes = (
"340 1507 OFFCURVE",
"522 1569 OFFCURVE",
"814 1569 CURVE SMOOTH",
"1066 1569 LINE",
"1096 1402 LINE",
"782 1402 LINE SMOOTH",
"617 1402 OFFCURVE",
"525 1378 OFFCURVE",
"512 1239 CURVE SMOOTH",
"501 1124 OFFCURVE",
"542 1076 OFFCURVE",
"684 1004 CURVE SMOOTH",
"2302 186 LINE",
"2227 42 LINE",
"640 833 LINE",
"433 833 OFFCURVE",
"320 726 OFFCURVE",
"320 515 CURVE SMOOTH",
"320 136 OFFCURVE",
"526 134 OFFCURVE",
"1028 134 CURVE",
"1028 -32 LINE",
"548 -32 OFFCURVE",
"128 -68 OFFCURVE",
"128 512 CURVE SMOOTH",
"128 789 OFFCURVE",
"307 922 OFFCURVE",
"484 942 CURVE",
"376 997 OFFCURVE",
"308 1090 OFFCURVE",
"320 1244 CURVE SMOOTH"
);
},
{
closed = 1;
nodes = (
"974 -32 LINE",
"974 134 LINE",
"1274 134 LINE",
"1751 134 OFFCURVE",
"1825 182 OFFCURVE",
"1825 748 CURVE",
"1825 788 LINE",
"2017 748 LINE",
"2017 89 OFFCURVE",
"1874 -32 OFFCURVE",
"1274 -32 CURVE"
);
},
{
closed = 1;
nodes = (
"1712 1402 OFFCURVE",
"1652 1402 OFFCURVE",
"1204 1402 CURVE",
"974 1402 LINE",
"974 1568 LINE",
"1204 1568 LINE",
"1752 1568 OFFCURVE",
"1904 1517 OFFCURVE",
"1904 1047 CURVE",
"1712 1047 LINE"
);
}
);
width = 2432;
}
);
unicode = 0026;
},
{
glyphname = asciicircum;
layers = (
{
layerId = "3D86ED3E-BC30-4996-8F23-7FA448982149";
name = Regular;
paths = (
{
closed = 1;
nodes = (
"544 1408 LINE",
"192 896 LINE",
"64 992 LINE",
"448 1536 LINE",
"640 1536 LINE",
"1024 992 LINE",
"896 896 LINE"
);
}
);
width = 1088;
}
);
unicode = 005E;
},
{
glyphname = at;
layers = (
{
layerId = "3D86ED3E-BC30-4996-8F23-7FA448982149";
name = Regular;
paths = (
{
closed = 1;
nodes = (
"840 306 CURVE SMOOTH",
"911 290 OFFCURVE",
"989 288 OFFCURVE",
"1082 288 CURVE SMOOTH",
"1123 288 LINE SMOOTH",
"1242 288 OFFCURVE",
"1349 289 OFFCURVE",
"1418 332 CURVE SMOOTH",
"1476 368 OFFCURVE",
"1504 448 OFFCURVE",
"1504 573 CURVE SMOOTH",
"1504 762 OFFCURVE",
"1451 840 OFFCURVE",
"1298 856 CURVE SMOOTH",
"1249 861 OFFCURVE",
"1190 864 OFFCURVE",
"1123 864 CURVE SMOOTH",
"1080 864 LINE SMOOTH",
"987 864 OFFCURVE",
"911 862 OFFCURVE",
"840 846 CURVE SMOOTH",
"717 818 OFFCURVE",
"704 747 OFFCURVE",
"704 576 CURVE SMOOTH",
"704 484 OFFCURVE",
"710 424 OFFCURVE",
"722 397 CURVE SMOOTH",
"746 343 OFFCURVE",
"777 320 OFFCURVE"
);
},
{
closed = 1;
nodes = (
"1796 288 CURVE SMOOTH",
"1915 288 OFFCURVE",
"1920 338 OFFCURVE",
"1920 480 CURVE SMOOTH",
"1920 768 LINE SMOOTH",
"1920 1037 OFFCURVE",
"1857 1138 OFFCURVE",
"1635 1185 CURVE SMOOTH",
"1537 1206 OFFCURVE",
"1403 1216 OFFCURVE",
"1232 1216 CURVE SMOOTH",
"1061 1216 OFFCURVE",
"933 1214 OFFCURVE",
"846 1211 CURVE SMOOTH",
"621 1202 OFFCURVE",
"453 1167 OFFCURVE",
"380 1012 CURVE SMOOTH",
"341 929 OFFCURVE",
"321 784 OFFCURVE",
"321 576 CURVE SMOOTH",
"321 379 OFFCURVE",
"340 238 OFFCURVE",
"380 154 CURVE SMOOTH",
"451 4 OFFCURVE",
"623 -43 OFFCURVE",
"846 -56 CURVE SMOOTH",
"933 -61 OFFCURVE",
"1248 -64 OFFCURVE",
"1791 -64 CURVE",
"1791 -224 LINE",
"1152 -224 LINE SMOOTH",
"860 -224 OFFCURVE",
"638 -196 OFFCURVE",
"488 -138 CURVE SMOOTH",
"345 -83 OFFCURVE",
"247 6 OFFCURVE",
"194 127 CURVE SMOOTH",
"150 227 OFFCURVE",
"128 377 OFFCURVE",
"128 576 CURVE SMOOTH",
"128 804 OFFCURVE",
"150 968 OFFCURVE",
"194 1068 CURVE SMOOTH",
"245 1184 OFFCURVE",
"343 1265 OFFCURVE",
"488 1310 CURVE SMOOTH",
"628 1354 OFFCURVE",
"849 1376 OFFCURVE",
"1152 1376 CURVE SMOOTH",
"1530 1376 OFFCURVE",
"1786 1331 OFFCURVE",
"1920 1240 CURVE SMOOTH",
"1967 1208 OFFCURVE",
"2006 1169 OFFCURVE",
"2034 1124 CURVE SMOOTH",
"2062 1079 OFFCURVE",
"2088 865 OFFCURVE",
"2112 480 CURVE",
"2112 346 OFFCURVE",
"2092 255 OFFCURVE",
"2053 208 CURVE SMOOTH",
"2009 155 OFFCURVE",
"1921 128 OFFCURVE",
"1791 128 CURVE SMOOTH",
"1654 128 OFFCURVE",
"1567 186 OFFCURVE",
"1567 320 CURVE",
"1538 257 OFFCURVE",
"1484 217 OFFCURVE",
"1428 188 CURVE SMOOTH",
"1349 147 OFFCURVE",
"1241 128 OFFCURVE",
"1120 128 CURVE SMOOTH",
"865 128 OFFCURVE",
"639 141 OFFCURVE",
"556 307 CURVE SMOOTH",
"527 366 OFFCURVE",
"512 455 OFFCURVE",
"512 576 CURVE SMOOTH",
"512 815 OFFCURVE",
"559 929 OFFCURVE",
"734 984 CURVE SMOOTH",
"819 1011 OFFCURVE",
"947 1024 OFFCURVE",
"1117 1024 CURVE SMOOTH",
"1254 1024 OFFCURVE",
"1360 997 OFFCURVE",
"1435 944 CURVE SMOOTH",
"1467 921 OFFCURVE",
"1490 894 OFFCURVE",
"1504 864 CURVE",
"1504 992 LINE",
"1696 992 LINE",
"1696 480 LINE SMOOTH",
"1696 397 OFFCURVE",
"1700 347 OFFCURVE",
"1708 329 CURVE SMOOTH",
"1725 293 OFFCURVE",
"1745 288 OFFCURVE"
);
}
);
width = 2240;
}
);
unicode = 0040;
},
{
glyphname = bar;
layers = (
{
layerId = "3D86ED3E-BC30-4996-8F23-7FA448982149";
name = Regular;
paths = (
{
closed = 1;
nodes = (
"128 -128 LINE",
"128 1600 LINE",
"320 1600 LINE",
"320 -128 LINE"
);
}
);
width = 448;
}
);
unicode = 007C;
},
{
glyphname = brokenbar;
layers = (
{
layerId = "3D86ED3E-BC30-4996-8F23-7FA448982149";
name = Regular;
paths = (
{
closed = 1;
nodes = (
"128 896 LINE",
"128 1600 LINE",
"320 1600 LINE",
"320 896 LINE"
);
},
{
closed = 1;
nodes = (
"128 -128 LINE",
"128 576 LINE",
"320 576 LINE",
"320 -128 LINE"
);
}
);
width = 448;
}
);
unicode = 00A6;
},
{
glyphname = copyright;
layers = (
{
layerId = "3D86ED3E-BC30-4996-8F23-7FA448982149";
name = Regular;
paths = (
{
closed = 1;
nodes = (
"960 1664 CURVE SMOOTH",
"1190 1664 OFFCURVE",
"1365 1636 OFFCURVE",
"1488 1578 CURVE SMOOTH",
"1605 1523 OFFCURVE",
"1687 1435 OFFCURVE",
"1733 1313 CURVE SMOOTH",
"1772 1210 OFFCURVE",
"1792 1060 OFFCURVE",
"1792 864 CURVE SMOOTH",
"1792 773 OFFCURVE",
"1788 691 OFFCURVE",
"1780 616 CURVE SMOOTH",
"1763 464 OFFCURVE",
"1716 345 OFFCURVE",
"1640 260 CURVE SMOOTH",
"1523 129 OFFCURVE",
"1297 64 OFFCURVE",
"960 64 CURVE SMOOTH",
"730 64 OFFCURVE",
"555 92 OFFCURVE",
"432 150 CURVE SMOOTH",
"315 205 OFFCURVE",
"233 293 OFFCURVE",
"187 415 CURVE SMOOTH",
"148 518 OFFCURVE",
"128 668 OFFCURVE",
"128 864 CURVE SMOOTH",
"128 955 OFFCURVE",
"132 1037 OFFCURVE",
"140 1112 CURVE SMOOTH",
"157 1264 OFFCURVE",
"204 1383 OFFCURVE",
"280 1468 CURVE SMOOTH",
"397 1599 OFFCURVE",
"623 1664 OFFCURVE"
);
},
{
closed = 1;
nodes = (
"960 224 CURVE SMOOTH",
"1144 224 OFFCURVE",
"1275 237 OFFCURVE",
"1354 262 CURVE SMOOTH",
"1447 292 OFFCURVE",
"1512 352 OFFCURVE",
"1548 442 CURVE SMOOTH",
"1583 529 OFFCURVE",
"1600 670 OFFCURVE",
"1600 864 CURVE SMOOTH",
"1600 1058 OFFCURVE",
"1583 1199 OFFCURVE",
"1548 1286 CURVE SMOOTH",
"1506 1391 OFFCURVE",
"1448 1436 OFFCURVE",
"1330 1474 CURVE SMOOTH",
"1267 1494 OFFCURVE",
"1144 1504 OFFCURVE",
"960 1504 CURVE SMOOTH",
"776 1504 OFFCURVE",
"645 1491 OFFCURVE",
"566 1466 CURVE SMOOTH",
"473 1436 OFFCURVE",
"408 1376 OFFCURVE",
"372 1286 CURVE SMOOTH",
"337 1199 OFFCURVE",
"320 1058 OFFCURVE",
"320 864 CURVE SMOOTH",
"320 670 OFFCURVE",
"337 529 OFFCURVE",
"372 442 CURVE SMOOTH",
"414 337 OFFCURVE",
"472 292 OFFCURVE",
"590 254 CURVE SMOOTH",
"653 234 OFFCURVE",
"776 224 OFFCURVE"
);
},
{
closed = 1;
nodes = (
"448 893 CURVE SMOOTH",
"448 987 OFFCURVE",
"455 1064 OFFCURVE",
"469 1126 CURVE SMOOTH",
"517 1337 OFFCURVE",
"693 1375 OFFCURVE",
"959 1375 CURVE SMOOTH",
"1155 1375 OFFCURVE",
"1291 1348 OFFCURVE",
"1368 1292 CURVE SMOOTH",
"1438 1241 OFFCURVE",
"1472 1153 OFFCURVE",
"1472 1027 CURVE",
"1312 1027 LINE",
"1312 1146 OFFCURVE",
"1290 1189 OFFCURVE",
"1204 1216 CURVE SMOOTH",
"1128 1240 OFFCURVE",
"1068 1241 OFFCURVE",
"959 1241 CURVE SMOOTH",
"916 1241 LINE SMOOTH",
"830 1241 OFFCURVE",
"762 1230 OFFCURVE",
"714 1210 CURVE SMOOTH",
"661 1188 OFFCURVE",
"637 1156 OFFCURVE",
"622 1097 CURVE SMOOTH",
"614 1067 OFFCURVE",
"610 999 OFFCURVE",
"610 893 CURVE SMOOTH",
"610 659 OFFCURVE",
"621 573 OFFCURVE",
"812 551 CURVE SMOOTH",
"852 546 OFFCURVE",
"915 544 OFFCURVE",
"999 544 CURVE SMOOTH",
"1083 544 OFFCURVE",
"1151 553 OFFCURVE",
"1204 570 CURVE SMOOTH",
"1290 598 OFFCURVE",
"1312 636 OFFCURVE",
"1312 759 CURVE",
"1472 759 LINE",
"1472 633 OFFCURVE",
"1438 545 OFFCURVE",
"1368 494 CURVE SMOOTH",
"1274 425 OFFCURVE",
"1133 410 OFFCURVE",
"956 410 CURVE SMOOTH",
"853 410 OFFCURVE",
"768 417 OFFCURVE",
"702 432 CURVE SMOOTH",
"493 479 OFFCURVE",
"448 633 OFFCURVE"
);
}
);
width = 1920;
}
);
unicode = 00A9;
},
{
glyphname = dagger;
layers = (
{
layerId = "3D86ED3E-BC30-4996-8F23-7FA448982149";
name = Regular;
paths = (
{
closed = 1;
nodes = (
"832 928 LINE",
"576 928 LINE",
"576 -128 LINE",
"384 -128 LINE",
"384 928 LINE",
"128 928 LINE",
"128 1088 LINE",
"384 1088 LINE",
"384 1600 LINE",
"576 1600 LINE",
"576 1088 LINE",
"832 1088 LINE"
);
}
);
width = 960;
}
);
unicode = 2020;
},
{
glyphname = daggerdbl;
layers = (
{
layerId = "3D86ED3E-BC30-4996-8F23-7FA448982149";
name = Regular;
paths = (
{
closed = 1;
nodes = (
"832 320 LINE",
"576 320 LINE",
"576 -128 LINE",
"384 -128 LINE",
"384 320 LINE",
"128 320 LINE",
"128 480 LINE",
"384 480 LINE",
"384 928 LINE",
"128 928 LINE",
"128 1088 LINE",
"384 1088 LINE",
"384 1600 LINE",
"576 1600 LINE",
"576 1088 LINE",
"832 1088 LINE",
"832 928 LINE",
"576 928 LINE",
"576 480 LINE",
"832 480 LINE"
);
}
);
width = 960;
}
);
unicode = 2021;
},
{
glyphname = degree;
layers = (
{
layerId = "3D86ED3E-BC30-4996-8F23-7FA448982149";
name = Regular;
paths = (
{
closed = 1;
nodes = (
"1088 512 CURVE SMOOTH",
"1088 440 OFFCURVE",
"1077 378 OFFCURVE",
"1054 326 CURVE SMOOTH",
"988 173 OFFCURVE",
"850 96 OFFCURVE",
"640 96 CURVE SMOOTH",
"365 96 OFFCURVE",
"192 242 OFFCURVE",
"192 512 CURVE SMOOTH",
"192 584 OFFCURVE",
"203 646 OFFCURVE",
"226 698 CURVE SMOOTH",
"292 851 OFFCURVE",
"430 928 OFFCURVE",
"640 928 CURVE SMOOTH",
"915 928 OFFCURVE",
"1088 782 OFFCURVE"
);
},
{
closed = 1;
nodes = (
"896 512 CURVE SMOOTH",
"896 682 OFFCURVE",
"805 768 OFFCURVE",
"640 768 CURVE SMOOTH",
"470 768 OFFCURVE",
"384 684 OFFCURVE",
"384 512 CURVE SMOOTH",
"384 341 OFFCURVE",
"469 256 OFFCURVE",
"640 256 CURVE SMOOTH",
"810 256 OFFCURVE",
"896 341 OFFCURVE"
);
}
);
width = 1280;
}
);
unicode = 00B0;
},
{
glyphname = paragraph;
layers = (
{
layerId = "3D86ED3E-BC30-4996-8F23-7FA448982149";
name = Regular;
paths = (
{
closed = 1;
nodes = (
"1088 1376 LINE",
"1088 0 LINE",
"896 0 LINE",
"896 608 LINE",
"833 608 LINE SMOOTH",
"627 608 OFFCURVE",
"471 626 OFFCURVE",
"365 663 CURVE SMOOTH",
"313 681 OFFCURVE",
"271 703 OFFCURVE",
"240 730 CURVE SMOOTH",
"151 807 OFFCURVE",
"128 922 OFFCURVE",
"128 1086 CURVE SMOOTH",
"128 1245 OFFCURVE",
"148 1352 OFFCURVE",
"240 1424 CURVE SMOOTH",
"335 1499 OFFCURVE",
"533 1536 OFFCURVE",
"833 1536 CURVE SMOOTH",
"1856 1536 LINE",
"1856 1376 LINE",
"1664 1376 LINE",
"1664 0 LINE",
"1472 0 LINE",
"1472 1376 LINE"
);
}
);
width = 1984;
}
);
unicode = 00B6;
},
{
glyphname = registered;
layers = (
{
layerId = "3D86ED3E-BC30-4996-8F23-7FA448982149";
name = Regular;
paths = (
{
closed = 1;
nodes = (
"1405 536 CURVE SMOOTH",
"1405 384 LINE",
"1244 384 LINE",
"1244 536 LINE SMOOTH",
"1244 707 OFFCURVE",
"1220 756 OFFCURVE",
"1087 786 CURVE SMOOTH",
"1045 796 OFFCURVE",
"959 800 OFFCURVE",
"828 800 CURVE SMOOTH",
"733 800 LINE",
"733 384 LINE",
"573 384 LINE",
"573 1376 LINE",
"860 1376 LINE SMOOTH",
"1072 1376 OFFCURVE",
"1218 1351 OFFCURVE",
"1299 1302 CURVE SMOOTH",
"1374 1256 OFFCURVE",
"1404 1193 OFFCURVE",
"1404 1078 CURVE SMOOTH",
"1404 935 OFFCURVE",
"1303 869 OFFCURVE",
"1160 860 CURVE",
"1351 836 OFFCURVE",
"1405 754 OFFCURVE"
);
},
{
closed = 1;
nodes = (
"733 1248 LINE",
"733 928 LINE",
"860 928 LINE SMOOTH",
"1016 928 OFFCURVE",
"1120 939 OFFCURVE",
"1172 962 CURVE SMOOTH",
"1223 984 OFFCURVE",
"1244 1019 OFFCURVE",
"1244 1087 CURVE SMOOTH",
"1244 1155 OFFCURVE",
"1223 1189 OFFCURVE",
"1172 1212 CURVE SMOOTH",
"1119 1236 OFFCURVE",
"1015 1248 OFFCURVE",
"860 1248 CURVE SMOOTH"
);
},
{
closed = 1;
nodes = (
"960 1664 CURVE SMOOTH",
"1190 1664 OFFCURVE",
"1365 1636 OFFCURVE",
"1488 1578 CURVE SMOOTH",
"1605 1523 OFFCURVE",
"1687 1435 OFFCURVE",
"1733 1313 CURVE SMOOTH",
"1772 1210 OFFCURVE",
"1792 1060 OFFCURVE",
"1792 864 CURVE SMOOTH",
"1792 773 OFFCURVE",
"1788 691 OFFCURVE",
"1780 616 CURVE SMOOTH",
"1763 464 OFFCURVE",
"1716 345 OFFCURVE",
"1640 260 CURVE SMOOTH",
"1523 129 OFFCURVE",
"1297 64 OFFCURVE",
"960 64 CURVE SMOOTH",
"730 64 OFFCURVE",
"555 92 OFFCURVE",
"432 150 CURVE SMOOTH",
"315 205 OFFCURVE",
"233 293 OFFCURVE",
"187 415 CURVE SMOOTH",
"148 518 OFFCURVE",
"128 668 OFFCURVE",
"128 864 CURVE SMOOTH",
"128 955 OFFCURVE",
"132 1037 OFFCURVE",
"140 1112 CURVE SMOOTH",
"157 1264 OFFCURVE",
"204 1383 OFFCURVE",
"280 1468 CURVE SMOOTH",
"397 1599 OFFCURVE",
"623 1664 OFFCURVE"
);
},
{
closed = 1;
nodes = (
"960 224 CURVE SMOOTH",
"1144 224 OFFCURVE",
"1275 237 OFFCURVE",
"1354 262 CURVE SMOOTH",
"1447 292 OFFCURVE",
"1512 352 OFFCURVE",
"1548 442 CURVE SMOOTH",
"1583 529 OFFCURVE",
"1600 670 OFFCURVE",
"1600 864 CURVE SMOOTH",
"1600 1058 OFFCURVE",
"1583 1199 OFFCURVE",
"1548 1286 CURVE SMOOTH",
"1506 1391 OFFCURVE",
"1448 1436 OFFCURVE",
"1330 1474 CURVE SMOOTH",
"1267 1494 OFFCURVE",
"1144 1504 OFFCURVE",
"960 1504 CURVE SMOOTH",
"776 1504 OFFCURVE",
"645 1491 OFFCURVE",
"566 1466 CURVE SMOOTH",
"473 1436 OFFCURVE",
"408 1376 OFFCURVE",
"372 1286 CURVE SMOOTH",
"337 1199 OFFCURVE",
"320 1058 OFFCURVE",
"320 864 CURVE SMOOTH",
"320 670 OFFCURVE",
"337 529 OFFCURVE",
"372 442 CURVE SMOOTH",
"414 337 OFFCURVE",
"472 292 OFFCURVE",
"590 254 CURVE SMOOTH",
"653 234 OFFCURVE",
"776 224 OFFCURVE"
);
}
);
width = 1920;
}
);
unicode = 00AE;
},
{
glyphname = section;
layers = (
{
layerId = "3D86ED3E-BC30-4996-8F23-7FA448982149";
name = Regular;
paths = (
{
closed = 1;
nodes = (
"129 1116 CURVE SMOOTH",
"129 1345 OFFCURVE",
"236 1402 OFFCURVE",
"432 1446 CURVE SMOOTH",
"509 1463 OFFCURVE",
"643 1472 OFFCURVE",
"833 1472 CURVE SMOOTH",
"1034 1472 OFFCURVE",
"1175 1445 OFFCURVE",
"1255 1392 CURVE SMOOTH",
"1334 1340 OFFCURVE",
"1373 1249 OFFCURVE",
"1373 1120 CURVE",
"1181 1120 LINE",
"1181 1251 OFFCURVE",
"1119 1291 OFFCURVE",
"1002 1304 CURVE SMOOTH",
"957 1309 OFFCURVE",
"879 1312 OFFCURVE",
"767 1312 CURVE SMOOTH",
"655 1312 OFFCURVE",
"561 1306 OFFCURVE",
"487 1292 CURVE SMOOTH",
"381 1273 OFFCURVE",
"321 1240 OFFCURVE",
"321 1120 CURVE SMOOTH",
"321 1049 OFFCURVE",
"334 1017 OFFCURVE",
"392 994 CURVE SMOOTH",
"450 971 OFFCURVE",
"586 960 OFFCURVE",
"800 960 CURVE SMOOTH",
"1183 960 OFFCURVE",
"1374 892 OFFCURVE",
"1374 757 CURVE SMOOTH",
"1374 702 OFFCURVE",
"1345 633 OFFCURVE",
"1286 551 CURVE",
"1352 504 OFFCURVE",
"1376 435 OFFCURVE",
"1376 324 CURVE SMOOTH",
"1376 95 OFFCURVE",
"1269 38 OFFCURVE",
"1073 -6 CURVE SMOOTH",
"996 -23 OFFCURVE",
"862 -32 OFFCURVE",
"672 -32 CURVE SMOOTH",
"471 -32 OFFCURVE",
"330 -5 OFFCURVE",
"250 48 CURVE SMOOTH",
"171 100 OFFCURVE",
"132 191 OFFCURVE",
"132 320 CURVE",
"324 320 LINE",
"324 189 OFFCURVE",
"386 149 OFFCURVE",
"503 136 CURVE SMOOTH",
"548 131 OFFCURVE",
"626 128 OFFCURVE",
"738 128 CURVE SMOOTH",
"850 128 OFFCURVE",
"944 134 OFFCURVE",
"1018 148 CURVE SMOOTH",
"1056 155 OFFCURVE",
"1086 164 OFFCURVE",
"1108 175 CURVE SMOOTH",
"1171 206 OFFCURVE",
"1184 243 OFFCURVE",
"1184 337 CURVE SMOOTH",
"1184 434 OFFCURVE",
"1117 453 OFFCURVE",
"1028 466 CURVE SMOOTH",
"936 479 OFFCURVE",
"872 480 OFFCURVE",
"775 480 CURVE SMOOTH",
"639 480 LINE SMOOTH",
"521 480 OFFCURVE",
"418 489 OFFCURVE",
"329 507 CURVE SMOOTH",
"286 516 OFFCURVE",
"252 527 OFFCURVE",
"226 540 CURVE SMOOTH",
"167 569 OFFCURVE",
"128 604 OFFCURVE",
"128 699 CURVE SMOOTH",
"128 750 OFFCURVE",
"159 813 OFFCURVE",
"220 887 CURVE",
"154 935 OFFCURVE",
"129 1004 OFFCURVE"
);
},
{
closed = 1;
nodes = (
"1153 607 CURVE",
"1175 651 OFFCURVE",
"1186 686 OFFCURVE",
"1186 712 CURVE SMOOTH",
"1186 728 OFFCURVE",
"1179 742 OFFCURVE",
"1166 754 CURVE SMOOTH",
"1153 766 OFFCURVE",
"1125 777 OFFCURVE",
"1082 786 CURVE SMOOTH",
"1039 795 OFFCURVE",
"945 800 OFFCURVE",
"801 800 CURVE SMOOTH",
"595 800 OFFCURVE",
"445 811 OFFCURVE",
"352 832 CURVE",
"339 798 OFFCURVE",
"321 768 OFFCURVE",
"321 728 CURVE SMOOTH",
"321 678 OFFCURVE",
"354 667 OFFCURVE",
"409 654 CURVE SMOOTH",
"448 645 OFFCURVE",
"546 640 OFFCURVE",
"704 640 CURVE SMOOTH",
"909 640 OFFCURVE",
"1059 629 OFFCURVE"
);
}
);
width = 1504;
}
);
unicode = 00A7;
},
{
glyphname = trademark;
layers = (
{
layerId = "3D86ED3E-BC30-4996-8F23-7FA448982149";
name = Regular;
paths = (
{
closed = 1;
nodes = (
"128 1536 LINE",
"1088 1536 LINE",
"1088 1408 LINE",
"704 1408 LINE",
"704 704 LINE",
"512 704 LINE",
"512 1408 LINE",
"128 1408 LINE"
);
},
{
closed = 1;
nodes = (
"1823 704 LINE",
"1408 1408 LINE",
"1408 704 LINE",
"1216 704 LINE",
"1216 1536 LINE",
"1536 1536 LINE",
"1920 864 LINE",
"2318 1536 LINE",
"2624 1536 LINE",
"2624 704 LINE",
"2432 704 LINE",
"2432 1387 LINE",
"2017 704 LINE"
);
}
);
width = 2752;
}
);
unicode = 2122;
},
{
glyphname = acute;
layers = (
{
layerId = "3D86ED3E-BC30-4996-8F23-7FA448982149";
name = Regular;
paths = (
{
closed = 1;
nodes = (
"832 1664 LINE",
"192 1280 LINE",
"128 1376 LINE",
"704 1856 LINE"
);
}
);
width = 960;
}
);
unicode = 00B4;
},
{
glyphname = breve;
layers = (
{
layerId = "3D86ED3E-BC30-4996-8F23-7FA448982149";
name = Regular;
paths = (
{
closed = 1;
nodes = (
"256 1600 CURVE",
"416 1600 LINE",
"416 1514 OFFCURVE",
"439 1457 OFFCURVE",
"485 1429 CURVE SMOOTH",
"508 1415 OFFCURVE",
"560 1408 OFFCURVE",
"640 1408 CURVE SMOOTH",
"720 1408 OFFCURVE",
"773 1416 OFFCURVE",
"800 1432 CURVE SMOOTH",
"843 1458 OFFCURVE",
"864 1514 OFFCURVE",
"864 1600 CURVE",
"1024 1600 LINE",
"1024 1364 OFFCURVE",
"883 1280 OFFCURVE",
"640 1280 CURVE SMOOTH",
"397 1280 OFFCURVE",
"256 1364 OFFCURVE"
);
}
);
width = 1280;
}
);
unicode = 02D8;
},
{
glyphname = caron;
layers = (
{
layerId = "3D86ED3E-BC30-4996-8F23-7FA448982149";
name = Regular;
paths = (
{
closed = 1;
nodes = (
"544 1408 LINE",
"832 1856 LINE",
"960 1760 LINE",
"640 1280 LINE",
"448 1280 LINE",
"128 1760 LINE",
"256 1856 LINE"
);
}
);
width = 1088;
}
);
unicode = 02C7;
},
{
glyphname = cedilla;
layers = (
{
layerId = "3D86ED3E-BC30-4996-8F23-7FA448982149";
name = Regular;
paths = (
{
closed = 1;
nodes = (
"256 -128 LINE",
"427 -128 OFFCURVE",
"512 -181 OFFCURVE",
"512 -288 CURVE SMOOTH",
"512 -493 OFFCURVE",
"356 -544 OFFCURVE",
"128 -544 CURVE",
"128 -384 LINE",
"203 -384 OFFCURVE",
"249 -381 OFFCURVE",
"268 -374 CURVE SMOOTH",
"303 -361 OFFCURVE",
"320 -332 OFFCURVE",
"320 -288 CURVE SMOOTH",
"320 -267 OFFCURVE",
"313 -253 OFFCURVE",
"299 -246 CURVE SMOOTH",
"270 -232 OFFCURVE",
"213 -224 OFFCURVE",
"128 -224 CURVE",
"128 64 LINE",
"256 64 LINE"
);
}
);
width = 640;
}
);
unicode = 00B8;
},
{
glyphname = circumflex;
layers = (
{
layerId = "3D86ED3E-BC30-4996-8F23-7FA448982149";
name = Regular;
paths = (
{
closed = 1;
nodes = (
"832 1280 LINE",
"544 1728 LINE",
"256 1280 LINE",
"128 1376 LINE",
"448 1856 LINE",
"640 1856 LINE",
"960 1376 LINE"
);
}
);
width = 1088;
}
);
unicode = 02C6;
},
{
glyphname = dieresis;
layers = (
{
layerId = "3D86ED3E-BC30-4996-8F23-7FA448982149";
name = Regular;
paths = (
{
closed = 1;
nodes = (
"256 1536 LINE",
"256 1344 LINE",
"64 1344 LINE",
"64 1536 LINE"
);
},
{
closed = 1;
nodes = (
"1024 1536 LINE",
"1024 1344 LINE",
"832 1344 LINE",
"832 1536 LINE"
);
}
);
width = 1088;
}
);
unicode = 00A8;
},
{
glyphname = dotaccent;
layers = (
{
layerId = "3D86ED3E-BC30-4996-8F23-7FA448982149";
name = Regular;
paths = (
{
closed = 1;
nodes = (
"320 1536 LINE",
"320 1344 LINE",
"128 1344 LINE",
"128 1536 LINE"
);
}
);
width = 448;
}
);
unicode = 02D9;
},
{
glyphname = grave;
layers = (
{
layerId = "3D86ED3E-BC30-4996-8F23-7FA448982149";
name = Regular;
paths = (
{
closed = 1;
nodes = (
"128 1664 LINE",
"256 1856 LINE",
"832 1376 LINE",
"768 1280 LINE"
);
}
);
width = 960;
}
);
unicode = 0060;
},
{
glyphname = hungarumlaut;
layers = (
{
layerId = "3D86ED3E-BC30-4996-8F23-7FA448982149";
name = Regular;
paths = (
{
closed = 1;
nodes = (
"832 1664 LINE",
"192 1280 LINE",
"128 1376 LINE",
"704 1856 LINE"
);
},
{
closed = 1;
nodes = (
"1385 1664 LINE",
"745 1280 LINE",
"681 1376 LINE",
"1257 1856 LINE"
);
}
);
width = 1512;
}
);
unicode = 02DD;
},
{
glyphname = macron;
layers = (
{
layerId = "3D86ED3E-BC30-4996-8F23-7FA448982149";
name = Regular;
paths = (
{
closed = 1;
nodes = (
"128 1344 LINE",
"128 1504 LINE",
"896 1504 LINE",
"896 1344 LINE"
);
}
);
width = 1024;
}
);
unicode = 00AF;
},
{
glyphname = ogonek;
layers = (
{
layerId = "3D86ED3E-BC30-4996-8F23-7FA448982149";
name = Regular;
paths = (
{
closed = 1;
nodes = (
"320 -224 CURVE SMOOTH",
"320 -330 OFFCURVE",
"398 -352 OFFCURVE",
"512 -352 CURVE",
"512 -512 LINE",
"339 -512 OFFCURVE",
"222 -467 OFFCURVE",
"161 -377 CURVE SMOOTH",
"139 -344 OFFCURVE",
"128 -310 OFFCURVE",
"128 -274 CURVE SMOOTH",
"128 -204 OFFCURVE",
"142 -167 OFFCURVE",
"168 -125 CURVE SMOOTH",
"213 -53 OFFCURVE",
"285 10 OFFCURVE",
"384 64 CURVE",
"512 64 LINE",
"384 -21 OFFCURVE",
"320 -117 OFFCURVE"
);
}
);
width = 640;
}
);
unicode = 02DB;
},
{
glyphname = ring;
layers = (
{
layerId = "3D86ED3E-BC30-4996-8F23-7FA448982149";
name = Regular;
paths = (
{
closed = 1;
nodes = (
"992 1600 CURVE SMOOTH",
"992 1395 OFFCURVE",
"849 1280 OFFCURVE",
"640 1280 CURVE SMOOTH",
"419 1280 OFFCURVE",
"288 1403 OFFCURVE",
"288 1600 CURVE SMOOTH",
"288 1805 OFFCURVE",
"431 1920 OFFCURVE",
"640 1920 CURVE SMOOTH",
"861 1920 OFFCURVE",
"992 1797 OFFCURVE"
);
},
{
closed = 1;
nodes = (
"640 1792 CURVE SMOOTH",
"567 1792 OFFCURVE",
"512 1768 OFFCURVE",
"476 1722 CURVE SMOOTH",
"457 1698 OFFCURVE",
"448 1657 OFFCURVE",
"448 1600 CURVE SMOOTH",
"448 1472 OFFCURVE",
"506 1408 OFFCURVE",
"640 1408 CURVE SMOOTH",
"713 1408 OFFCURVE",
"768 1432 OFFCURVE",
"804 1478 CURVE SMOOTH",
"823 1502 OFFCURVE",
"832 1543 OFFCURVE",
"832 1600 CURVE SMOOTH",
"832 1728 OFFCURVE",
"774 1792 OFFCURVE"
);
}
);
width = 1280;
}
);
unicode = 02DA;
},
{
glyphname = tilde;
layers = (
{
layerId = "3D86ED3E-BC30-4996-8F23-7FA448982149";
name = Regular;
paths = (
{
closed = 1;
nodes = (
"320 1344 CURVE",
"128 1344 LINE",
"128 1509 OFFCURVE",
"238 1601 OFFCURVE",
"384 1601 CURVE SMOOTH",
"455 1601 OFFCURVE",
"528 1584 OFFCURVE",
"603 1552 CURVE SMOOTH",
"647 1533 OFFCURVE",
"701 1504 OFFCURVE",
"754 1504 CURVE SMOOTH",
"818 1504 OFFCURVE",
"832 1521 OFFCURVE",
"832 1600 CURVE",
"1024 1600 LINE",
"1024 1512 OFFCURVE",
"993 1444 OFFCURVE",
"932 1398 CURVE SMOOTH",
"884 1362 OFFCURVE",
"829 1344 OFFCURVE",
"768 1344 CURVE SMOOTH",
"698 1344 OFFCURVE",
"625 1360 OFFCURVE",
"549 1392 CURVE SMOOTH",
"505 1411 OFFCURVE",
"451 1440 OFFCURVE",
"398 1440 CURVE SMOOTH",
"330 1440 OFFCURVE",
"320 1422 OFFCURVE"
);
}
);
width = 1152;
}
);
unicode = 02DC;
},
